<?xml version="1.0" encoding="UTF-8" standalone="no"?>
<!DOCTYPE svg PUBLIC "-//W3C//DTD SVG 1.1//EN" "http://www.w3.org/Graphics/SVG/1.1/DTD/svg11.dtd">
<svg width="100%" height="100%" viewBox="0 0 960 641" version="1.1" xmlns="http://www.w3.org/2000/svg" xmlns:xlink="http://www.w3.org/1999/xlink" xml:space="preserve" xmlns:serif="http://www.serif.com/" style="fill-rule:evenodd;clip-rule:evenodd;stroke-linejoin:round;stroke-miterlimit:2;">
    <g transform="matrix(1,0,0,1,0,-752)">
        <g id="API" transform="matrix(1,0,0,1,0,752.918)">
            <rect x="0" y="0" width="960" height="640" style="fill:#fff;"/>
            <path d="M0,40L0,10C0,4.5 4.5,0 10,0L950,0C955.5,0 960,4.5 960,10L960,40" style="fill:#dadada;fill-rule:nonzero;"/>
            <circle cx="25.4" cy="20" r="8.5" style="fill:#fff;"/>
            <circle cx="49.1" cy="20" r="8.5" style="fill:#fff;"/>
            <circle cx="72.9" cy="20" r="8.5" style="fill:#fff;"/>
            <path d="M267,59.7L256.3,72.7L256.3,59.7L250.2,59.7L250.2,89.7L256.3,89.7L256.3,80.6L260.2,76.3L268.1,89.7L275.1,89.7L264.1,71.6L274.5,59.7L267,59.7ZM229.6,84.3C228.8,84 228.2,83.7 227.6,83.1C227,82.6 226.6,81.9 226.3,81.1C226,80.3 225.8,79.4 225.8,78.3L225.8,59.7L219.8,59.7L219.8,79.2C219.8,80.9 220.1,82.4 220.7,83.7C221.3,85.1 222.2,86.2 223.2,87.1C224.3,88 225.6,88.8 227.1,89.3C228.6,89.8 230.2,90.1 232,90.1C233.8,90.1 235.4,89.8 236.9,89.3C238.4,88.8 239.7,88.1 240.8,87.1C241.9,86.2 242.7,85 243.3,83.7C243.9,82.3 244.2,80.8 244.2,79.2L244.2,59.7L238.2,59.7L238.2,78.3C238.2,79.4 238,80.3 237.7,81.1C237.4,81.9 236.9,82.6 236.4,83.1C235.8,83.6 235.2,84 234.4,84.3C233.6,84.6 232.8,84.7 231.9,84.7C231.2,84.7 230.4,84.5 229.6,84.3M207.7,87.8C207.9,88.3 208.2,88.7 208.5,89C208.8,89.3 209.3,89.6 209.7,89.8C210.2,90 210.7,90.1 211.2,90.1C211.7,90.1 212.2,90 212.7,89.8C213.2,89.6 213.6,89.3 213.9,89C214.2,88.7 214.5,88.2 214.7,87.8C214.9,87.3 215,86.8 215,86.3C215,85.8 214.9,85.3 214.7,84.8C214.5,84.3 214.2,83.9 213.9,83.6C213.6,83.3 213.1,83 212.7,82.8C212.2,82.6 211.8,82.5 211.2,82.5C210.7,82.5 210.2,82.6 209.7,82.8C209.2,83 208.8,83.3 208.5,83.6C208.2,83.9 207.9,84.3 207.7,84.8C207.5,85.3 207.4,85.7 207.4,86.3C207.4,86.9 207.5,87.3 207.7,87.8M198.1,89.7L206.6,59.7L199.9,59.7L194.2,82.3L194,82.3L188.2,59.7L181.4,59.7L189.9,89.7L198.1,89.7ZM161.3,83.9C160.3,83.4 159.5,82.7 158.8,81.8C158.1,80.9 157.6,79.9 157.3,78.7C157,77.5 156.8,76.2 156.8,74.8L156.8,74.6C156.8,73.2 157,71.9 157.3,70.7C157.6,69.5 158.2,68.5 158.8,67.6C159.5,66.7 160.3,66 161.3,65.5C162.3,65 163.5,64.8 164.8,64.8C166.1,64.8 167.3,65 168.3,65.5C169.3,66 170.1,66.7 170.8,67.6C171.5,68.5 172,69.5 172.3,70.7C172.6,71.9 172.8,73.2 172.8,74.6L172.8,74.8C172.8,76.2 172.6,77.5 172.3,78.7C172,79.9 171.4,80.9 170.8,81.8C170.1,82.7 169.3,83.4 168.3,83.9C167.3,84.4 166.1,84.6 164.8,84.6C163.5,84.7 162.3,84.4 161.3,83.9M158.8,60.5C157,61.3 155.5,62.4 154.3,63.8C153.1,65.2 152.1,66.8 151.5,68.7C150.9,70.6 150.5,72.6 150.5,74.7C150.5,76.9 150.8,78.9 151.5,80.7C152.1,82.6 153.1,84.2 154.3,85.6C155.5,87 157,88.1 158.8,88.9C160.6,89.7 162.6,90.1 164.8,90.1C167,90.1 169,89.7 170.8,88.9C172.6,88.1 174.1,87 175.3,85.6C176.5,84.2 177.5,82.6 178.1,80.7C178.7,78.8 179.1,76.8 179.1,74.7C179.1,72.6 178.8,70.5 178.1,68.7C177.5,66.8 176.5,65.2 175.3,63.8C174.1,62.4 172.6,61.3 170.8,60.5C169,59.7 167,59.3 164.8,59.3C162.5,59.3 160.5,59.7 158.8,60.5M125.7,74.6C125.7,73.3 125.9,72.1 126.2,70.9C126.5,69.7 127,68.7 127.7,67.8C128.4,66.9 129.2,66.2 130.2,65.6C131.2,65 132.4,64.8 133.8,64.8C134.7,64.8 135.5,64.9 136.2,65.1C136.9,65.3 137.6,65.6 138.1,66C138.7,66.4 139.2,66.9 139.6,67.4C140,67.9 140.4,68.5 140.7,69.2L146,66.2C145.5,65.2 144.8,64.2 144,63.3C143.2,62.4 142.3,61.7 141.2,61.1C140.1,60.5 139,60 137.7,59.7C136.4,59.4 135.1,59.2 133.7,59.2C131.5,59.2 129.5,59.6 127.8,60.4C126,61.2 124.5,62.3 123.3,63.7C122.1,65.1 121.1,66.7 120.4,68.6C119.7,70.5 119.4,72.5 119.4,74.6C119.4,76.8 119.7,78.8 120.3,80.6C120.9,82.5 121.8,84.1 123,85.5C124.2,86.9 125.6,88 127.3,88.8C129,89.6 130.9,90 133.1,90C134,90 134.9,89.9 135.7,89.7C136.5,89.5 137.3,89.2 138,88.9C138.7,88.6 139.3,88.1 139.9,87.7C140.5,87.2 140.9,86.7 141.3,86.1L141.3,89.6L146.6,89.6L146.6,73.3L133,73.3L133,77.9L140.7,77.9L140.7,78.2C140.7,78.8 140.6,79.5 140.4,80.3C140.2,81.1 139.8,81.8 139.3,82.4C138.8,83 138,83.6 137.1,84C136.2,84.4 135.1,84.6 133.7,84.6C132.3,84.6 131.1,84.3 130.1,83.8C129.1,83.2 128.2,82.5 127.6,81.6C126.9,80.7 126.5,79.6 126.1,78.5C125.8,77.3 125.6,76.1 125.6,74.8L125.6,74.6L125.7,74.6ZM62.3,65.8C63.7,66.4 65.2,65.7 65.7,64.4C66.3,63.1 65.6,61.5 64.3,61C63,60.5 61.4,61.1 60.9,62.4C60.3,63.7 61,65.3 62.3,65.8M56.3,69.3C57.7,69.9 59.2,69.2 59.7,67.9C60.3,66.6 59.6,65 58.3,64.5C57,64 55.4,64.6 54.9,65.9C54.4,67.2 55,68.8 56.3,69.3M54.6,75.9C56,76.5 57.5,75.8 58,74.5C58.6,73.2 57.9,71.6 56.6,71.1C55.3,70.6 53.7,71.2 53.2,72.5C52.6,73.9 53.3,75.4 54.6,75.9M68.9,67.9C70.3,68.5 71.8,67.8 72.3,66.5C72.9,65.2 72.2,63.6 70.9,63.1C69.6,62.6 68,63.2 67.5,64.5C67,65.8 67.6,67.4 68.9,67.9M93,65.8C91.6,66.4 90.1,65.7 89.6,64.4C89,63.1 89.7,61.5 91,61C92.3,60.5 93.9,61.1 94.4,62.4C95,63.7 94.4,65.3 93,65.8M99,69.3C97.6,69.9 96.1,69.2 95.6,67.9C95,66.6 95.6,65 97,64.5C98.3,64 99.9,64.6 100.4,65.9C101,67.2 100.3,68.8 99,69.3M100.8,75.9C99.4,76.5 97.9,75.8 97.4,74.5C96.8,73.2 97.5,71.6 98.8,71.1C100.1,70.6 101.7,71.2 102.2,72.5C102.7,73.9 102.1,75.4 100.8,75.9M86.4,67.9C85,68.5 83.5,67.8 83,66.5C82.4,65.2 83.1,63.6 84.4,63.1C85.7,62.6 87.3,63.2 87.8,64.5C88.4,65.8 87.7,67.4 86.4,67.9M79.1,61.1L82.4,62.8L82.4,58L79.1,59L78.8,58.7L80.1,54.5L75.3,54.5L76.6,58.7L76.3,59L72.9,58L72.9,62.9L76.2,61.2L76.5,61.5L74.6,67.3C74.5,67.6 74.5,67.9 74.5,68.2C74.5,69.8 75.7,71 77.1,71.3L78.1,71.3C79.6,71.1 80.8,69.8 80.8,68.2C80.8,67.9 80.8,67.6 80.7,67.3L78.8,61.5C78.8,61.4 79,61.3 79.1,61.1M77.7,89.3C84,89.3 90,89.7 95.3,90.5C96.8,84.1 98.7,80.5 100.6,77.9L97,76.7C97.4,78.5 97.4,79.4 97,80.5C96.4,79.9 95.8,78.9 95.4,77.2L93.7,83C94.8,82.3 95.6,81.8 96.5,81.8C94.8,85.4 92.8,86.3 91.5,86C89.9,85.7 89.1,84.2 89.4,83C89.8,81.3 91.6,80.8 92.4,82.8C94,79.5 91.3,78.5 89.5,79.5C92.2,76.8 92.5,74.4 90.3,71.6C87.3,73.9 87.2,76.2 88.6,79.4C86.8,77.4 84.1,78.5 85.1,81.7C86.4,79.7 88.1,81 87.8,82.8C87.6,84.4 85.4,85.7 82.7,85.5C78.9,85.2 78.6,82.5 78.5,80.3C79.4,80.1 81.1,81 82.6,83L83.1,76.9C81.5,78.5 80.1,78.9 78.5,78.9C79,77.2 81.5,74.5 81.5,74.5L73.9,74.5C73.9,74.5 76.3,77.2 76.9,78.9C75.3,78.8 73.9,78.5 72.3,76.9L72.8,83C74.3,81 76,80.1 76.9,80.3C76.8,82.5 76.6,85.1 72.7,85.5C70,85.7 67.9,84.4 67.6,82.8C67.3,80.9 69,79.7 70.3,81.7C71.3,78.4 68.5,77.4 66.8,79.4C68.2,76.2 68.1,73.9 65.1,71.6C62.9,74.5 63.2,76.9 65.9,79.5C64.1,78.5 61.4,79.6 63,82.8C63.8,80.8 65.6,81.2 66,83C66.3,84.2 65.5,85.7 63.9,86C62.6,86.2 60.5,85.3 58.9,81.8C59.8,81.8 60.6,82.3 61.7,83L60,77.2C59.6,78.8 59,79.9 58.4,80.5C58,79.3 58.1,78.5 58.4,76.7L54.8,78C56.7,80.6 58.5,84.2 60.1,90.6C65.4,89.8 71.3,89.3 77.7,89.3" style="fill:#fff;fill-rule:nonzero;"/>
            <rect x="0" y="636" width="960" height="4" style="fill:#dadada;fill-rule:nonzero;"/>
            <path d="M4,640L4,40L956,40L956,640L960,640L960,36L0,36L0,640L4,640Z" style="fill:#dadada;fill-rule:nonzero;"/>
            <rect x="1" y="40" width="958" height="598" style="fill:#0b0b0b;fill-rule:nonzero;"/>
            <rect x="1" y="40" width="149.5" height="596" style="fill:#1e1e1e;fill-rule:nonzero;"/>
            <path d="M53.2,100.6L53.2,100.1C53.2,98 55.5,91.7 62.4,91.7C68.6,91.7 71.8,97.2 71.8,100.1L71.8,100.2C71.8,102.9 71.4,106.8 65.4,110.5C61.7,112.7 59.2,114.4 57.6,116.1C56.9,116.8 56.4,117.6 56.1,118.5L56.1,120.1L73,120.1L73,122.5L52.9,122.5L52.9,122.2C52.9,118.5 53.9,116.4 55.7,114.5C57.5,112.5 60.6,110.5 64.2,108.2C69,105.1 69.1,102.7 69.1,100.9L69.1,100.6C69.1,98.4 66.8,94.2 62.5,94.2C57.5,94.2 55.9,99 55.9,100.6L53.2,100.6ZM99.3,96.2C101.1,99 101.9,102.8 101.9,107.1C101.9,111.5 101,115.3 99.3,118.2C97.6,121 95.2,122.7 92.1,122.7C88.9,122.7 86.5,121 84.8,118.2C83,115.3 82.2,111.5 82.2,107.1C82.2,102.8 83.1,99 84.8,96.2C86.5,93.4 88.9,91.7 92.1,91.7C95.2,91.7 97.6,93.4 99.3,96.2ZM86.7,98C85.5,100.3 84.8,103.5 84.8,107.2C84.8,110.9 85.5,114.2 86.7,116.5C88,118.9 89.8,120.4 92.1,120.4C94.4,120.4 96.1,118.9 97.4,116.5C98.6,114.2 99.3,110.9 99.3,107.2C99.3,103.6 98.6,100.3 97.4,98C96.1,95.6 94.4,94.2 92.1,94.2C89.8,94.1 88,95.6 86.7,98ZM53.2,175L53.2,174.6C53.2,172.5 55.5,166.2 62.4,166.2C68.6,166.2 71.8,171.7 71.8,174.6L71.8,174.7C71.8,177.4 71.4,181.3 65.4,185C61.7,187.2 59.2,188.9 57.6,190.6C56.9,191.3 56.4,192.1 56.1,193L56.1,194.6L73,194.6L73,197L52.9,197L52.9,196.7C52.9,193 53.9,190.9 55.7,189C57.5,187 60.6,185 64.2,182.7C69,179.6 69.1,177.2 69.1,175.4L69.1,175C69.1,172.8 66.8,168.6 62.5,168.6C57.5,168.6 55.9,173.4 55.9,175L53.2,175ZM96.7,166.5L96.7,196.9L94.1,196.9L94.1,171.2L93.8,171.2C91.5,172.9 89,173.1 86.3,173.1L86.3,170.7C89.9,170.7 94.1,169.8 94.1,166.5L96.7,166.5ZM53.2,249.6L53.2,249.1C53.2,247 55.5,240.7 62.4,240.7C68.6,240.7 71.8,246.2 71.8,249.1L71.8,249.2C71.8,251.9 71.4,255.8 65.4,259.5C61.7,261.7 59.2,263.4 57.6,265.1C56.9,265.8 56.4,266.6 56.1,267.5L56.1,269.1L73,269.1L73,271.5L52.9,271.5L52.9,271.2C52.9,267.5 53.9,265.4 55.7,263.5C57.5,261.5 60.6,259.5 64.2,257.2C69,254.1 69.1,251.7 69.1,249.9L69.1,249.6C69.1,247.4 66.8,243.2 62.5,243.2C57.5,243.2 55.9,248 55.9,249.6L53.2,249.6ZM81.4,249.6L81.4,249.1C81.4,247 83.7,240.7 90.6,240.7C96.8,240.7 100,246.2 100,249.1L100,249.2C100,251.9 99.6,255.8 93.6,259.5C89.9,261.7 87.4,263.4 85.8,265.1C85.1,265.8 84.6,266.6 84.3,267.5L84.3,269.1L101.2,269.1L101.2,271.5L81.1,271.5L81.1,271.2C81.1,267.5 82.1,265.4 83.9,263.5C85.7,261.5 88.8,259.5 92.4,257.2C97.2,254.1 97.3,251.7 97.3,249.9L97.3,249.6C97.3,247.4 95,243.2 90.7,243.2C85.7,243.2 84.1,248 84.1,249.6L81.4,249.6ZM53.2,324L53.2,323.6C53.2,321.5 55.5,315.2 62.4,315.2C68.6,315.2 71.8,320.7 71.8,323.6L71.8,323.7C71.8,326.4 71.4,330.3 65.4,334C61.7,336.2 59.2,337.9 57.6,339.6C56.9,340.3 56.4,341.1 56.1,342L56.1,343.6L73,343.6L73,346L52.9,346L52.9,345.7C52.9,342 53.9,339.9 55.7,338C57.5,336 60.6,334 64.2,331.7C69,328.6 69.1,326.2 69.1,324.4L69.1,324C69.1,321.8 66.8,317.6 62.5,317.6C57.5,317.6 55.9,322.4 55.9,324L53.2,324ZM82.1,338.4L84.8,338.4C85.3,341.5 88.2,343.8 91.7,343.8C95.6,343.8 98.7,340.9 98.7,337.3C98.7,333.8 95.7,330.8 92,330.8L89,330.8L89,328.4L91.7,328.4C95.1,328.4 97.9,326 97.9,323C97.9,320 95.1,317.5 91.7,317.5C88.3,317.5 85.6,319.9 85.5,322.9L82.9,322.1C83.4,318.1 87.2,315.1 91.7,315.1C96.6,315.1 100.6,318.6 100.6,322.9C100.6,325.5 98.5,327.9 96.2,329.3L96.2,329.7C99.1,331.3 101.5,334.1 101.5,337.3C101.5,342.2 97.1,346.2 91.8,346.2C86.7,346.2 82.6,342.9 82.1,338.4ZM53.2,398.6L53.2,398.1C53.2,396 55.5,389.7 62.4,389.7C68.6,389.7 71.8,395.2 71.8,398.1L71.8,398.2C71.8,400.9 71.4,404.8 65.4,408.5C61.7,410.7 59.2,412.4 57.6,414.1C56.9,414.8 56.4,415.6 56.1,416.5L56.1,418.1L73,418.1L73,420.5L52.9,420.5L52.9,420.2C52.9,416.5 53.9,414.4 55.7,412.5C57.5,410.5 60.6,408.5 64.2,406.2C69,403.1 69.1,400.7 69.1,398.9L69.1,398.6C69.1,396.4 66.8,392.2 62.5,392.2C57.5,392.2 55.9,397 55.9,398.6L53.2,398.6ZM80.3,410.1L94.9,390L98.2,390L98.2,409.5L103.7,409.5L103.7,411.9L98.2,411.9L98.2,420.4L95.6,420.4L95.6,411.9L80.3,411.9L80.3,410.1ZM83.5,409.5L95.6,409.5L95.6,393.3L95.5,393.3C90.9,399.8 88.1,403.1 83.5,409.5ZM53.2,473L53.2,472.6C53.2,470.5 55.5,464.2 62.4,464.2C68.6,464.2 71.8,469.7 71.8,472.6L71.8,472.7C71.8,475.4 71.4,479.3 65.4,483C61.7,485.2 59.2,486.9 57.6,488.6C56.9,489.3 56.4,490.1 56.1,491L56.1,492.6L73,492.6L73,495L52.9,495L52.9,494.7C52.9,491 53.9,488.9 55.7,487C57.5,485 60.6,483 64.2,480.7C69,477.6 69.1,475.2 69.1,473.4L69.1,473C69.1,470.8 66.8,466.6 62.5,466.6C57.5,466.6 55.9,471.4 55.9,473L53.2,473ZM86,486.2C86,486.2 86.5,492.8 92.8,492.8C99.2,492.8 99.7,486.2 99.7,484.2C99.7,481.7 98.6,476.6 93.8,476.6C90.2,476.6 87.8,480.4 87.7,480.9L84.6,480.5L86.1,464.4L101.1,464.4L101.1,466.8L88.5,466.8C88.1,470.1 87.7,473.7 87.4,477.1L87.5,477.1C88.8,475.6 91,473.9 93.8,473.9C100.8,473.9 102.3,480.6 102.3,484C102.3,486.6 101.5,495.2 92.7,495.2C84.9,495.2 83.4,487.9 83.2,486.5L86,486.2ZM53.2,547.6L53.2,547.1C53.2,545 55.5,538.7 62.4,538.7C68.6,538.7 71.8,544.2 71.8,547.1L71.8,547.2C71.8,549.9 71.4,553.8 65.4,557.5C61.7,559.7 59.2,561.4 57.6,563.1C56.9,563.8 56.4,564.6 56.1,565.5L56.1,567.1L73,567.1L73,569.5L52.9,569.5L52.9,569.2C52.9,565.5 53.9,563.4 55.7,561.5C57.5,559.5 60.6,557.5 64.2,555.2C69,552.1 69.1,549.7 69.1,547.9L69.1,547.6C69.1,545.4 66.8,541.2 62.5,541.2C57.5,541.2 55.9,546 55.9,547.6L53.2,547.6ZM99.6,546.3C98.5,543.3 96.5,541.2 92.7,541.2C87.7,541.2 84.7,546.9 84.7,554.7L84.9,554.7C86.4,551.6 89.2,549.2 92.4,549.2C98,549.2 102.3,553.9 102.3,559.7C102.3,565.3 98,569.9 92.6,569.9C88.2,569.9 85,567.3 83.3,562.9C82.4,560.5 82,557.7 82,554.4C82,545.9 86,538.8 92.6,538.8C97.6,538.8 100.4,541.5 101.9,545.6L99.6,546.3ZM85.6,559.5C85.6,563.9 88.7,567.3 92.6,567.3C96.5,567.3 99.6,563.8 99.6,559.5C99.6,555.1 96.5,551.6 92.6,551.6C88.7,551.6 85.6,555.1 85.6,559.5ZM62.5,615.7C66.9,615.7 69.1,619.8 69.1,622.1L69.1,622.4C69.1,624.1 69,626.5 64.2,629.7C60.6,632 57.6,634.1 55.7,636C55.1,636.6 54.6,637.3 54.2,638L57.3,638C57.4,637.9 57.5,637.8 57.5,637.7C59.1,636 61.6,634.3 65.3,632.1C71.3,628.5 71.7,624.5 71.7,621.8L71.7,621.7C71.7,618.8 68.5,613.3 62.3,613.3C55.4,613.3 53.1,619.6 53.1,621.7L53.1,622.1L55.8,622.1C55.9,620.4 57.6,615.7 62.5,615.7ZM83.5,613.5L83.5,615.9L97.8,615.9L97.8,616.6C94.9,620 90,627.1 88.7,637.9L91.4,637.9C93.3,623.2 101.8,616 101.8,616L101.8,613.5L83.5,613.5Z" style="fill:#6e6e6e;fill-rule:nonzero;"/>
            <g transform="matrix(1.26252,0,0,1.26252,-29.1761,-950.714)">
                <g transform="matrix(32.6715,0,0,32.6715,177.051,846.555)">
                    <path d="M0.523,-0L0.523,-0.088L0.199,-0.088L0.513,-0.42L0.513,-0.516L0.088,-0.516L0.088,-0.428L0.391,-0.428L0.077,-0.096L0.077,-0L0.523,-0Z" style="fill:#fff;fill-rule:nonzero;"/>
                </g>
                <g transform="matrix(32.6715,0,0,32.6715,196.654,846.555)">
                    <path d="M0.3,0.012C0.452,0.012 0.545,-0.093 0.545,-0.258C0.545,-0.423 0.452,-0.528 0.3,-0.528C0.148,-0.528 0.055,-0.423 0.055,-0.258C0.055,-0.093 0.148,0.012 0.3,0.012ZM0.3,-0.074C0.221,-0.074 0.169,-0.123 0.169,-0.219L0.169,-0.297C0.169,-0.393 0.221,-0.442 0.3,-0.442C0.379,-0.442 0.431,-0.393 0.431,-0.297L0.431,-0.219C0.431,-0.123 0.379,-0.074 0.3,-0.074Z" style="fill:#fff;fill-rule:nonzero;"/>
                </g>
                <g transform="matrix(32.6715,0,0,32.6715,216.256,846.555)">
                    <path d="M0.193,-0L0.193,-0.35C0.193,-0.41 0.249,-0.439 0.305,-0.439C0.375,-0.439 0.412,-0.398 0.412,-0.316L0.412,-0L0.521,-0L0.521,-0.332C0.521,-0.457 0.451,-0.528 0.347,-0.528C0.262,-0.528 0.22,-0.482 0.198,-0.428L0.193,-0.428L0.193,-0.516L0.084,-0.516L0.084,-0L0.193,-0Z" style="fill:#fff;fill-rule:nonzero;"/>
                </g>
                <g transform="matrix(32.6715,0,0,32.6715,235.859,846.555)">
                    <path d="M0.311,0.012C0.417,0.012 0.489,-0.035 0.524,-0.095L0.456,-0.155C0.427,-0.107 0.379,-0.076 0.313,-0.076C0.224,-0.076 0.17,-0.133 0.17,-0.214L0.17,-0.231L0.54,-0.231L0.54,-0.272C0.54,-0.424 0.448,-0.528 0.303,-0.528C0.156,-0.528 0.06,-0.423 0.06,-0.257C0.06,-0.093 0.153,0.012 0.311,0.012ZM0.303,-0.445C0.379,-0.445 0.429,-0.392 0.429,-0.311L0.429,-0.301L0.17,-0.301L0.17,-0.308C0.17,-0.388 0.225,-0.445 0.303,-0.445Z" style="fill:#fff;fill-rule:nonzero;"/>
                </g>
                <g transform="matrix(32.6715,0,0,32.6715,275.065,846.555)">
                    <path d="M0.538,-0.367L0.538,-0.456L0.062,-0.456L0.062,-0.367L0.538,-0.367ZM0.538,-0.155L0.538,-0.244L0.062,-0.244L0.062,-0.155L0.538,-0.155Z" style="fill:#d18df0;fill-rule:nonzero;"/>
                </g>
                <g transform="matrix(32.6715,0,0,32.6715,177.051,906.205)">
                    <path d="M0.57,0.056C0.57,-0.029 0.513,-0.087 0.374,-0.087L0.258,-0.087C0.213,-0.087 0.178,-0.091 0.178,-0.123C0.178,-0.151 0.208,-0.167 0.232,-0.173C0.252,-0.169 0.273,-0.167 0.296,-0.167C0.423,-0.167 0.506,-0.237 0.506,-0.347C0.506,-0.409 0.481,-0.457 0.436,-0.488L0.436,-0.512L0.556,-0.512L0.556,-0.598L0.462,-0.598C0.416,-0.598 0.393,-0.568 0.393,-0.528L0.393,-0.511C0.365,-0.522 0.332,-0.528 0.296,-0.528C0.169,-0.528 0.086,-0.457 0.086,-0.347C0.086,-0.273 0.123,-0.218 0.185,-0.189L0.185,-0.184C0.131,-0.171 0.092,-0.148 0.092,-0.097C0.092,-0.058 0.114,-0.035 0.149,-0.022L0.149,-0.012C0.092,0.003 0.059,0.032 0.059,0.088C0.059,0.165 0.121,0.212 0.299,0.212C0.481,0.212 0.57,0.162 0.57,0.056ZM0.468,0.063C0.468,0.11 0.423,0.135 0.341,0.135L0.26,0.135C0.184,0.135 0.154,0.103 0.154,0.064C0.154,0.037 0.167,0.018 0.192,0.006L0.371,0.006C0.444,0.006 0.468,0.028 0.468,0.063ZM0.296,-0.242C0.226,-0.242 0.193,-0.279 0.193,-0.334L0.193,-0.361C0.193,-0.416 0.226,-0.453 0.296,-0.453C0.366,-0.453 0.399,-0.416 0.399,-0.361L0.399,-0.334C0.399,-0.279 0.366,-0.242 0.296,-0.242Z" style="fill:#fff;fill-rule:nonzero;"/>
                </g>
                <g transform="matrix(32.6715,0,0,32.6715,196.654,906.205)">
                    <path d="M0.311,0.012C0.417,0.012 0.489,-0.035 0.524,-0.095L0.456,-0.155C0.427,-0.107 0.379,-0.076 0.313,-0.076C0.224,-0.076 0.17,-0.133 0.17,-0.214L0.17,-0.231L0.54,-0.231L0.54,-0.272C0.54,-0.424 0.448,-0.528 0.303,-0.528C0.156,-0.528 0.06,-0.423 0.06,-0.257C0.06,-0.093 0.153,0.012 0.311,0.012ZM0.303,-0.445C0.379,-0.445 0.429,-0.392 0.429,-0.311L0.429,-0.301L0.17,-0.301L0.17,-0.308C0.17,-0.388 0.225,-0.445 0.303,-0.445Z" style="fill:#fff;fill-rule:nonzero;"/>
                </g>
                <g transform="matrix(32.6715,0,0,32.6715,216.256,906.205)">
                    <path d="M0.3,0.012C0.452,0.012 0.545,-0.093 0.545,-0.258C0.545,-0.423 0.452,-0.528 0.3,-0.528C0.148,-0.528 0.055,-0.423 0.055,-0.258C0.055,-0.093 0.148,0.012 0.3,0.012ZM0.3,-0.074C0.221,-0.074 0.169,-0.123 0.169,-0.219L0.169,-0.297C0.169,-0.393 0.221,-0.442 0.3,-0.442C0.379,-0.442 0.431,-0.393 0.431,-0.297L0.431,-0.219C0.431,-0.123 0.379,-0.074 0.3,-0.074Z" style="fill:#fff;fill-rule:nonzero;"/>
                </g>
                <g transform="matrix(32.6715,0,0,32.6715,235.859,906.205)">
                    <path d="M0.079,0.2L0.188,0.2L0.188,-0.088L0.194,-0.088C0.224,-0.026 0.274,0.012 0.35,0.012C0.471,0.012 0.549,-0.081 0.549,-0.258C0.549,-0.435 0.471,-0.528 0.35,-0.528C0.274,-0.528 0.224,-0.49 0.194,-0.428L0.188,-0.428L0.188,-0.516L0.079,-0.516L0.079,0.2ZM0.305,-0.077C0.242,-0.077 0.188,-0.109 0.188,-0.172L0.188,-0.344C0.188,-0.407 0.242,-0.439 0.305,-0.439C0.387,-0.439 0.434,-0.384 0.434,-0.3L0.434,-0.216C0.434,-0.132 0.387,-0.077 0.305,-0.077Z" style="fill:#fff;fill-rule:nonzero;"/>
                </g>
                <g transform="matrix(32.6715,0,0,32.6715,255.462,906.205)">
                    <path d="M0.559,-0L0.559,-0.086L0.494,-0.086L0.494,-0.345C0.494,-0.463 0.414,-0.528 0.284,-0.528C0.175,-0.528 0.105,-0.481 0.076,-0.425L0.141,-0.372C0.169,-0.415 0.208,-0.443 0.274,-0.443C0.348,-0.443 0.385,-0.407 0.385,-0.338L0.385,-0.298L0.286,-0.298C0.133,-0.298 0.06,-0.244 0.06,-0.144C0.06,-0.047 0.128,0.012 0.233,0.012C0.314,0.012 0.368,-0.025 0.388,-0.087L0.393,-0.087C0.399,-0.035 0.43,-0 0.492,-0L0.559,-0ZM0.264,-0.068C0.206,-0.068 0.17,-0.092 0.17,-0.138L0.17,-0.158C0.17,-0.204 0.208,-0.229 0.288,-0.229L0.385,-0.229L0.385,-0.154C0.385,-0.103 0.334,-0.068 0.264,-0.068Z" style="fill:#fff;fill-rule:nonzero;"/>
                </g>
                <g transform="matrix(32.6715,0,0,32.6715,275.065,906.205)">
                    <path d="M0.193,-0L0.193,-0.35C0.193,-0.41 0.249,-0.439 0.305,-0.439C0.375,-0.439 0.412,-0.398 0.412,-0.316L0.412,-0L0.521,-0L0.521,-0.332C0.521,-0.457 0.451,-0.528 0.347,-0.528C0.262,-0.528 0.22,-0.482 0.198,-0.428L0.193,-0.428L0.193,-0.516L0.084,-0.516L0.084,-0L0.193,-0Z" style="fill:#fff;fill-rule:nonzero;"/>
                </g>
                <g transform="matrix(32.6715,0,0,32.6715,294.668,906.205)">
                    <path d="M0.412,-0L0.521,-0L0.521,-0.74L0.412,-0.74L0.412,-0.428L0.406,-0.428C0.376,-0.49 0.326,-0.528 0.25,-0.528C0.129,-0.528 0.051,-0.435 0.051,-0.258C0.051,-0.081 0.129,0.012 0.25,0.012C0.326,0.012 0.376,-0.026 0.406,-0.088L0.412,-0.088L0.412,-0ZM0.295,-0.077C0.213,-0.077 0.166,-0.132 0.166,-0.216L0.166,-0.3C0.166,-0.384 0.213,-0.439 0.295,-0.439C0.358,-0.439 0.412,-0.407 0.412,-0.344L0.412,-0.172C0.412,-0.109 0.358,-0.077 0.295,-0.077Z" style="fill:#fff;fill-rule:nonzero;"/>
                </g>
                <g transform="matrix(32.6715,0,0,32.6715,314.271,906.205)">
                    <path d="M0.559,-0L0.559,-0.086L0.494,-0.086L0.494,-0.345C0.494,-0.463 0.414,-0.528 0.284,-0.528C0.175,-0.528 0.105,-0.481 0.076,-0.425L0.141,-0.372C0.169,-0.415 0.208,-0.443 0.274,-0.443C0.348,-0.443 0.385,-0.407 0.385,-0.338L0.385,-0.298L0.286,-0.298C0.133,-0.298 0.06,-0.244 0.06,-0.144C0.06,-0.047 0.128,0.012 0.233,0.012C0.314,0.012 0.368,-0.025 0.388,-0.087L0.393,-0.087C0.399,-0.035 0.43,-0 0.492,-0L0.559,-0ZM0.264,-0.068C0.206,-0.068 0.17,-0.092 0.17,-0.138L0.17,-0.158C0.17,-0.204 0.208,-0.229 0.288,-0.229L0.385,-0.229L0.385,-0.154C0.385,-0.103 0.334,-0.068 0.264,-0.068Z" style="fill:#fff;fill-rule:nonzero;"/>
                </g>
                <g transform="matrix(32.6715,0,0,32.6715,333.874,906.205)">
                    <path d="M0.301,0.012C0.442,0.012 0.528,-0.051 0.528,-0.155C0.528,-0.261 0.438,-0.289 0.356,-0.301L0.274,-0.314C0.231,-0.32 0.195,-0.332 0.195,-0.376C0.195,-0.421 0.233,-0.445 0.304,-0.445C0.385,-0.445 0.432,-0.414 0.459,-0.383L0.52,-0.447C0.473,-0.498 0.404,-0.528 0.308,-0.528C0.176,-0.528 0.088,-0.472 0.088,-0.367C0.088,-0.261 0.179,-0.232 0.26,-0.22L0.342,-0.207C0.386,-0.201 0.421,-0.189 0.421,-0.145C0.421,-0.094 0.373,-0.071 0.303,-0.071C0.226,-0.071 0.171,-0.098 0.126,-0.147L0.059,-0.087C0.108,-0.027 0.19,0.012 0.301,0.012Z" style="fill:#fff;fill-rule:nonzero;"/>
                </g>
                <g transform="matrix(32.6715,0,0,32.6715,353.477,906.205)">
                    <path d="M0.3,0.01C0.363,0.01 0.387,-0.021 0.387,-0.059L0.387,-0.085C0.387,-0.123 0.363,-0.154 0.3,-0.154C0.237,-0.154 0.213,-0.123 0.213,-0.085L0.213,-0.059C0.213,-0.021 0.237,0.01 0.3,0.01Z" style="fill:#fff;fill-rule:nonzero;"/>
                </g>
                <g transform="matrix(32.6715,0,0,32.6715,373.08,906.205)">
                    <path d="M0.076,-0L0.469,-0L0.469,-0.088L0.322,-0.088L0.322,-0.281C0.322,-0.353 0.369,-0.412 0.458,-0.412L0.56,-0.412L0.56,-0.516L0.498,-0.516C0.393,-0.516 0.348,-0.451 0.328,-0.379L0.322,-0.379L0.322,-0.516L0.076,-0.516L0.076,-0.428L0.213,-0.428L0.213,-0.088L0.076,-0.088L0.076,-0Z" style="fill:#4db3a0;fill-rule:nonzero;"/>
                </g>
                <g transform="matrix(32.6715,0,0,32.6715,392.682,906.205)">
                    <path d="M0.311,0.012C0.417,0.012 0.489,-0.035 0.524,-0.095L0.456,-0.155C0.427,-0.107 0.379,-0.076 0.313,-0.076C0.224,-0.076 0.17,-0.133 0.17,-0.214L0.17,-0.231L0.54,-0.231L0.54,-0.272C0.54,-0.424 0.448,-0.528 0.303,-0.528C0.156,-0.528 0.06,-0.423 0.06,-0.257C0.06,-0.093 0.153,0.012 0.311,0.012ZM0.303,-0.445C0.379,-0.445 0.429,-0.392 0.429,-0.311L0.429,-0.301L0.17,-0.301L0.17,-0.308C0.17,-0.388 0.225,-0.445 0.303,-0.445Z" style="fill:#4db3a0;fill-rule:nonzero;"/>
                </g>
                <g transform="matrix(32.6715,0,0,32.6715,412.285,906.205)">
                    <path d="M0.559,-0L0.559,-0.086L0.494,-0.086L0.494,-0.345C0.494,-0.463 0.414,-0.528 0.284,-0.528C0.175,-0.528 0.105,-0.481 0.076,-0.425L0.141,-0.372C0.169,-0.415 0.208,-0.443 0.274,-0.443C0.348,-0.443 0.385,-0.407 0.385,-0.338L0.385,-0.298L0.286,-0.298C0.133,-0.298 0.06,-0.244 0.06,-0.144C0.06,-0.047 0.128,0.012 0.233,0.012C0.314,0.012 0.368,-0.025 0.388,-0.087L0.393,-0.087C0.399,-0.035 0.43,-0 0.492,-0L0.559,-0ZM0.264,-0.068C0.206,-0.068 0.17,-0.092 0.17,-0.138L0.17,-0.158C0.17,-0.204 0.208,-0.229 0.288,-0.229L0.385,-0.229L0.385,-0.154C0.385,-0.103 0.334,-0.068 0.264,-0.068Z" style="fill:#4db3a0;fill-rule:nonzero;"/>
                </g>
                <g transform="matrix(32.6715,0,0,32.6715,431.888,906.205)">
                    <path d="M0.412,-0L0.521,-0L0.521,-0.74L0.412,-0.74L0.412,-0.428L0.406,-0.428C0.376,-0.49 0.326,-0.528 0.25,-0.528C0.129,-0.528 0.051,-0.435 0.051,-0.258C0.051,-0.081 0.129,0.012 0.25,0.012C0.326,0.012 0.376,-0.026 0.406,-0.088L0.412,-0.088L0.412,-0ZM0.295,-0.077C0.213,-0.077 0.166,-0.132 0.166,-0.216L0.166,-0.3C0.166,-0.384 0.213,-0.439 0.295,-0.439C0.358,-0.439 0.412,-0.407 0.412,-0.344L0.412,-0.172C0.412,-0.109 0.358,-0.077 0.295,-0.077Z" style="fill:#4db3a0;fill-rule:nonzero;"/>
                </g>
                <g transform="matrix(32.6715,0,0,32.6715,451.491,906.205)">
                    <rect x="0.06" y="0.085" width="0.48" height="0.094" style="fill:#4db3a0;fill-rule:nonzero;"/>
                </g>
                <g transform="matrix(32.6715,0,0,32.6715,471.094,906.205)">
                    <path d="M0.094,-0L0.203,-0L0.203,-0.428L0.407,-0.428L0.407,-0L0.516,-0L0.516,-0.516L0.203,-0.516L0.203,-0.652L0.332,-0.652L0.332,-0.74L0.226,-0.74C0.136,-0.74 0.094,-0.686 0.094,-0.609L0.094,-0.516L0.035,-0.516L0.035,-0.428L0.094,-0.428L0.094,-0ZM0.462,-0.61C0.516,-0.61 0.536,-0.636 0.536,-0.669L0.536,-0.69C0.536,-0.723 0.516,-0.749 0.462,-0.749C0.408,-0.749 0.388,-0.723 0.388,-0.69L0.388,-0.669C0.388,-0.636 0.408,-0.61 0.462,-0.61Z" style="fill:#4db3a0;fill-rule:nonzero;"/>
                </g>
                <g transform="matrix(32.6715,0,0,32.6715,490.697,906.205)">
                    <path d="M0.075,-0L0.526,-0L0.526,-0.088L0.355,-0.088L0.355,-0.74L0.075,-0.74L0.075,-0.652L0.246,-0.652L0.246,-0.088L0.075,-0.088L0.075,-0Z" style="fill:#4db3a0;fill-rule:nonzero;"/>
                </g>
                <g transform="matrix(32.6715,0,0,32.6715,510.3,906.205)">
                    <path d="M0.311,0.012C0.417,0.012 0.489,-0.035 0.524,-0.095L0.456,-0.155C0.427,-0.107 0.379,-0.076 0.313,-0.076C0.224,-0.076 0.17,-0.133 0.17,-0.214L0.17,-0.231L0.54,-0.231L0.54,-0.272C0.54,-0.424 0.448,-0.528 0.303,-0.528C0.156,-0.528 0.06,-0.423 0.06,-0.257C0.06,-0.093 0.153,0.012 0.311,0.012ZM0.303,-0.445C0.379,-0.445 0.429,-0.392 0.429,-0.311L0.429,-0.301L0.17,-0.301L0.17,-0.308C0.17,-0.388 0.225,-0.445 0.303,-0.445Z" style="fill:#4db3a0;fill-rule:nonzero;"/>
                </g>
                <g transform="matrix(32.6715,0,0,32.6715,529.903,906.205)">
                    <path d="M0.192,-0.311C0.192,-0.116 0.287,0.054 0.4,0.138L0.509,0.138C0.39,0.052 0.288,-0.095 0.288,-0.265L0.288,-0.357C0.288,-0.527 0.39,-0.674 0.509,-0.76L0.4,-0.76C0.287,-0.676 0.192,-0.506 0.192,-0.311Z" style="fill:#e5ad00;fill-rule:nonzero;"/>
                </g>
                <g transform="matrix(32.6715,0,0,32.6715,549.505,906.205)">
                    <path d="M0.251,-0.442L0.251,-0.74L0.151,-0.74L0.151,-0.442L0.251,-0.442ZM0.449,-0.442L0.449,-0.74L0.349,-0.74L0.349,-0.442L0.449,-0.442Z" style="fill:#fff;fill-rule:nonzero;"/>
                </g>
                <g transform="matrix(32.6715,0,0,32.6715,569.108,906.205)">
                    <path d="M0.084,-0L0.193,-0L0.193,-0.35C0.193,-0.41 0.249,-0.439 0.305,-0.439C0.375,-0.439 0.412,-0.398 0.412,-0.316L0.412,-0L0.521,-0L0.521,-0.332C0.521,-0.457 0.451,-0.528 0.347,-0.528C0.262,-0.528 0.22,-0.482 0.198,-0.428L0.193,-0.428L0.193,-0.74L0.084,-0.74L0.084,-0Z" style="fill:#f3c384;fill-rule:nonzero;"/>
                </g>
                <g transform="matrix(32.6715,0,0,32.6715,588.711,906.205)">
                    <path d="M0.528,-0L0.528,-0.088L0.308,-0.088L0.308,-0.428L0.528,-0.428L0.528,-0.516L0.308,-0.516L0.308,-0.698L0.206,-0.698L0.206,-0.569C0.206,-0.529 0.191,-0.516 0.153,-0.516L0.04,-0.516L0.04,-0.428L0.199,-0.428L0.199,-0.131C0.199,-0.054 0.241,-0 0.331,-0L0.528,-0Z" style="fill:#f3c384;fill-rule:nonzero;"/>
                </g>
                <g transform="matrix(32.6715,0,0,32.6715,608.314,906.205)">
                    <path d="M0.528,-0L0.528,-0.088L0.308,-0.088L0.308,-0.428L0.528,-0.428L0.528,-0.516L0.308,-0.516L0.308,-0.698L0.206,-0.698L0.206,-0.569C0.206,-0.529 0.191,-0.516 0.153,-0.516L0.04,-0.516L0.04,-0.428L0.199,-0.428L0.199,-0.131C0.199,-0.054 0.241,-0 0.331,-0L0.528,-0Z" style="fill:#f3c384;fill-rule:nonzero;"/>
                </g>
                <g transform="matrix(32.6715,0,0,32.6715,627.917,906.205)">
                    <path d="M0.079,0.2L0.188,0.2L0.188,-0.088L0.194,-0.088C0.224,-0.026 0.274,0.012 0.35,0.012C0.471,0.012 0.549,-0.081 0.549,-0.258C0.549,-0.435 0.471,-0.528 0.35,-0.528C0.274,-0.528 0.224,-0.49 0.194,-0.428L0.188,-0.428L0.188,-0.516L0.079,-0.516L0.079,0.2ZM0.305,-0.077C0.242,-0.077 0.188,-0.109 0.188,-0.172L0.188,-0.344C0.188,-0.407 0.242,-0.439 0.305,-0.439C0.387,-0.439 0.434,-0.384 0.434,-0.3L0.434,-0.216C0.434,-0.132 0.387,-0.077 0.305,-0.077Z" style="fill:#f3c384;fill-rule:nonzero;"/>
                </g>
                <g transform="matrix(32.6715,0,0,32.6715,647.52,906.205)">
                    <path d="M0.301,0.012C0.442,0.012 0.528,-0.051 0.528,-0.155C0.528,-0.261 0.438,-0.289 0.356,-0.301L0.274,-0.314C0.231,-0.32 0.195,-0.332 0.195,-0.376C0.195,-0.421 0.233,-0.445 0.304,-0.445C0.385,-0.445 0.432,-0.414 0.459,-0.383L0.52,-0.447C0.473,-0.498 0.404,-0.528 0.308,-0.528C0.176,-0.528 0.088,-0.472 0.088,-0.367C0.088,-0.261 0.179,-0.232 0.26,-0.22L0.342,-0.207C0.386,-0.201 0.421,-0.189 0.421,-0.145C0.421,-0.094 0.373,-0.071 0.303,-0.071C0.226,-0.071 0.171,-0.098 0.126,-0.147L0.059,-0.087C0.108,-0.027 0.19,0.012 0.301,0.012Z" style="fill:#f3c384;fill-rule:nonzero;"/>
                </g>
                <g transform="matrix(32.6715,0,0,32.6715,667.123,906.205)">
                    <path d="M0.3,0.01C0.363,0.01 0.387,-0.021 0.387,-0.059L0.387,-0.085C0.387,-0.123 0.363,-0.154 0.3,-0.154C0.237,-0.154 0.213,-0.123 0.213,-0.085L0.213,-0.059C0.213,-0.021 0.237,0.01 0.3,0.01ZM0.3,-0.362C0.363,-0.362 0.387,-0.393 0.387,-0.431L0.387,-0.457C0.387,-0.495 0.363,-0.526 0.3,-0.526C0.237,-0.526 0.213,-0.495 0.213,-0.457L0.213,-0.431C0.213,-0.393 0.237,-0.362 0.3,-0.362Z" style="fill:#f3c384;fill-rule:nonzero;"/>
                </g>
                <g transform="matrix(32.6715,0,0,32.6715,686.726,906.205)">
                    <path d="M0.18,0.138L0.517,-0.76L0.42,-0.76L0.083,0.138L0.18,0.138Z" style="fill:#f3c384;fill-rule:nonzero;"/>
                </g>
                <g transform="matrix(32.6715,0,0,32.6715,706.329,906.205)">
                    <path d="M0.18,0.138L0.517,-0.76L0.42,-0.76L0.083,0.138L0.18,0.138Z" style="fill:#f3c384;fill-rule:nonzero;"/>
                </g>
                <g transform="matrix(32.6715,0,0,32.6715,177.051,965.855)">
                    <path d="M0.079,0.2L0.188,0.2L0.188,-0.088L0.194,-0.088C0.224,-0.026 0.274,0.012 0.35,0.012C0.471,0.012 0.549,-0.081 0.549,-0.258C0.549,-0.435 0.471,-0.528 0.35,-0.528C0.274,-0.528 0.224,-0.49 0.194,-0.428L0.188,-0.428L0.188,-0.516L0.079,-0.516L0.079,0.2ZM0.305,-0.077C0.242,-0.077 0.188,-0.109 0.188,-0.172L0.188,-0.344C0.188,-0.407 0.242,-0.439 0.305,-0.439C0.387,-0.439 0.434,-0.384 0.434,-0.3L0.434,-0.216C0.434,-0.132 0.387,-0.077 0.305,-0.077Z" style="fill:#f3c384;fill-rule:nonzero;"/>
                </g>
                <g transform="matrix(32.6715,0,0,32.6715,196.654,965.855)">
                    <path d="M0.075,-0L0.526,-0L0.526,-0.088L0.355,-0.088L0.355,-0.74L0.075,-0.74L0.075,-0.652L0.246,-0.652L0.246,-0.088L0.075,-0.088L0.075,-0Z" style="fill:#f3c384;fill-rule:nonzero;"/>
                </g>
                <g transform="matrix(32.6715,0,0,32.6715,216.256,965.855)">
                    <path d="M0.559,-0L0.559,-0.086L0.494,-0.086L0.494,-0.345C0.494,-0.463 0.414,-0.528 0.284,-0.528C0.175,-0.528 0.105,-0.481 0.076,-0.425L0.141,-0.372C0.169,-0.415 0.208,-0.443 0.274,-0.443C0.348,-0.443 0.385,-0.407 0.385,-0.338L0.385,-0.298L0.286,-0.298C0.133,-0.298 0.06,-0.244 0.06,-0.144C0.06,-0.047 0.128,0.012 0.233,0.012C0.314,0.012 0.368,-0.025 0.388,-0.087L0.393,-0.087C0.399,-0.035 0.43,-0 0.492,-0L0.559,-0ZM0.264,-0.068C0.206,-0.068 0.17,-0.092 0.17,-0.138L0.17,-0.158C0.17,-0.204 0.208,-0.229 0.288,-0.229L0.385,-0.229L0.385,-0.154C0.385,-0.103 0.334,-0.068 0.264,-0.068Z" style="fill:#f3c384;fill-rule:nonzero;"/>
                </g>
                <g transform="matrix(32.6715,0,0,32.6715,235.859,965.855)">
                    <path d="M0.193,-0L0.193,-0.35C0.193,-0.41 0.249,-0.439 0.305,-0.439C0.375,-0.439 0.412,-0.398 0.412,-0.316L0.412,-0L0.521,-0L0.521,-0.332C0.521,-0.457 0.451,-0.528 0.347,-0.528C0.262,-0.528 0.22,-0.482 0.198,-0.428L0.193,-0.428L0.193,-0.516L0.084,-0.516L0.084,-0L0.193,-0Z" style="fill:#f3c384;fill-rule:nonzero;"/>
                </g>
                <g transform="matrix(32.6715,0,0,32.6715,255.462,965.855)">
                    <path d="M0.193,-0L0.193,-0.35C0.193,-0.41 0.249,-0.439 0.305,-0.439C0.375,-0.439 0.412,-0.398 0.412,-0.316L0.412,-0L0.521,-0L0.521,-0.332C0.521,-0.457 0.451,-0.528 0.347,-0.528C0.262,-0.528 0.22,-0.482 0.198,-0.428L0.193,-0.428L0.193,-0.516L0.084,-0.516L0.084,-0L0.193,-0Z" style="fill:#f3c384;fill-rule:nonzero;"/>
                </g>
                <g transform="matrix(32.6715,0,0,32.6715,275.065,965.855)">
                    <path d="M0.332,-0.61C0.386,-0.61 0.406,-0.636 0.406,-0.669L0.406,-0.69C0.406,-0.723 0.386,-0.749 0.331,-0.749C0.277,-0.749 0.257,-0.723 0.257,-0.69L0.257,-0.669C0.257,-0.636 0.277,-0.61 0.332,-0.61ZM0.101,-0L0.551,-0L0.551,-0.088L0.386,-0.088L0.386,-0.516L0.101,-0.516L0.101,-0.428L0.277,-0.428L0.277,-0.088L0.101,-0.088L0.101,-0Z" style="fill:#f3c384;fill-rule:nonzero;"/>
                </g>
                <g transform="matrix(32.6715,0,0,32.6715,294.668,965.855)">
                    <path d="M0.193,-0L0.193,-0.35C0.193,-0.41 0.249,-0.439 0.305,-0.439C0.375,-0.439 0.412,-0.398 0.412,-0.316L0.412,-0L0.521,-0L0.521,-0.332C0.521,-0.457 0.451,-0.528 0.347,-0.528C0.262,-0.528 0.22,-0.482 0.198,-0.428L0.193,-0.428L0.193,-0.516L0.084,-0.516L0.084,-0L0.193,-0Z" style="fill:#f3c384;fill-rule:nonzero;"/>
                </g>
                <g transform="matrix(32.6715,0,0,32.6715,314.271,965.855)">
                    <path d="M0.57,0.056C0.57,-0.029 0.513,-0.087 0.374,-0.087L0.258,-0.087C0.213,-0.087 0.178,-0.091 0.178,-0.123C0.178,-0.151 0.208,-0.167 0.232,-0.173C0.252,-0.169 0.273,-0.167 0.296,-0.167C0.423,-0.167 0.506,-0.237 0.506,-0.347C0.506,-0.409 0.481,-0.457 0.436,-0.488L0.436,-0.512L0.556,-0.512L0.556,-0.598L0.462,-0.598C0.416,-0.598 0.393,-0.568 0.393,-0.528L0.393,-0.511C0.365,-0.522 0.332,-0.528 0.296,-0.528C0.169,-0.528 0.086,-0.457 0.086,-0.347C0.086,-0.273 0.123,-0.218 0.185,-0.189L0.185,-0.184C0.131,-0.171 0.092,-0.148 0.092,-0.097C0.092,-0.058 0.114,-0.035 0.149,-0.022L0.149,-0.012C0.092,0.003 0.059,0.032 0.059,0.088C0.059,0.165 0.121,0.212 0.299,0.212C0.481,0.212 0.57,0.162 0.57,0.056ZM0.468,0.063C0.468,0.11 0.423,0.135 0.341,0.135L0.26,0.135C0.184,0.135 0.154,0.103 0.154,0.064C0.154,0.037 0.167,0.018 0.192,0.006L0.371,0.006C0.444,0.006 0.468,0.028 0.468,0.063ZM0.296,-0.242C0.226,-0.242 0.193,-0.279 0.193,-0.334L0.193,-0.361C0.193,-0.416 0.226,-0.453 0.296,-0.453C0.366,-0.453 0.399,-0.416 0.399,-0.361L0.399,-0.334C0.399,-0.279 0.366,-0.242 0.296,-0.242Z" style="fill:#f3c384;fill-rule:nonzero;"/>
                </g>
                <g transform="matrix(32.6715,0,0,32.6715,333.874,965.855)">
                    <path d="M0.3,0.01C0.363,0.01 0.387,-0.021 0.387,-0.059L0.387,-0.085C0.387,-0.123 0.363,-0.154 0.3,-0.154C0.237,-0.154 0.213,-0.123 0.213,-0.085L0.213,-0.059C0.213,-0.021 0.237,0.01 0.3,0.01Z" style="fill:#f3c384;fill-rule:nonzero;"/>
                </g>
                <g transform="matrix(32.6715,0,0,32.6715,353.477,965.855)">
                    <path d="M0.412,-0L0.521,-0L0.521,-0.74L0.412,-0.74L0.412,-0.428L0.406,-0.428C0.376,-0.49 0.326,-0.528 0.25,-0.528C0.129,-0.528 0.051,-0.435 0.051,-0.258C0.051,-0.081 0.129,0.012 0.25,0.012C0.326,0.012 0.376,-0.026 0.406,-0.088L0.412,-0.088L0.412,-0ZM0.295,-0.077C0.213,-0.077 0.166,-0.132 0.166,-0.216L0.166,-0.3C0.166,-0.384 0.213,-0.439 0.295,-0.439C0.358,-0.439 0.412,-0.407 0.412,-0.344L0.412,-0.172C0.412,-0.109 0.358,-0.077 0.295,-0.077Z" style="fill:#f3c384;fill-rule:nonzero;"/>
                </g>
                <g transform="matrix(32.6715,0,0,32.6715,373.08,965.855)">
                    <path d="M0.559,-0L0.559,-0.086L0.494,-0.086L0.494,-0.345C0.494,-0.463 0.414,-0.528 0.284,-0.528C0.175,-0.528 0.105,-0.481 0.076,-0.425L0.141,-0.372C0.169,-0.415 0.208,-0.443 0.274,-0.443C0.348,-0.443 0.385,-0.407 0.385,-0.338L0.385,-0.298L0.286,-0.298C0.133,-0.298 0.06,-0.244 0.06,-0.144C0.06,-0.047 0.128,0.012 0.233,0.012C0.314,0.012 0.368,-0.025 0.388,-0.087L0.393,-0.087C0.399,-0.035 0.43,-0 0.492,-0L0.559,-0ZM0.264,-0.068C0.206,-0.068 0.17,-0.092 0.17,-0.138L0.17,-0.158C0.17,-0.204 0.208,-0.229 0.288,-0.229L0.385,-0.229L0.385,-0.154C0.385,-0.103 0.334,-0.068 0.264,-0.068Z" style="fill:#f3c384;fill-rule:nonzero;"/>
                </g>
                <g transform="matrix(32.6715,0,0,32.6715,392.682,965.855)">
                    <path d="M0.528,-0L0.528,-0.088L0.308,-0.088L0.308,-0.428L0.528,-0.428L0.528,-0.516L0.308,-0.516L0.308,-0.698L0.206,-0.698L0.206,-0.569C0.206,-0.529 0.191,-0.516 0.153,-0.516L0.04,-0.516L0.04,-0.428L0.199,-0.428L0.199,-0.131C0.199,-0.054 0.241,-0 0.331,-0L0.528,-0Z" style="fill:#f3c384;fill-rule:nonzero;"/>
                </g>
                <g transform="matrix(32.6715,0,0,32.6715,412.285,965.855)">
                    <path d="M0.559,-0L0.559,-0.086L0.494,-0.086L0.494,-0.345C0.494,-0.463 0.414,-0.528 0.284,-0.528C0.175,-0.528 0.105,-0.481 0.076,-0.425L0.141,-0.372C0.169,-0.415 0.208,-0.443 0.274,-0.443C0.348,-0.443 0.385,-0.407 0.385,-0.338L0.385,-0.298L0.286,-0.298C0.133,-0.298 0.06,-0.244 0.06,-0.144C0.06,-0.047 0.128,0.012 0.233,0.012C0.314,0.012 0.368,-0.025 0.388,-0.087L0.393,-0.087C0.399,-0.035 0.43,-0 0.492,-0L0.559,-0ZM0.264,-0.068C0.206,-0.068 0.17,-0.092 0.17,-0.138L0.17,-0.158C0.17,-0.204 0.208,-0.229 0.288,-0.229L0.385,-0.229L0.385,-0.154C0.385,-0.103 0.334,-0.068 0.264,-0.068Z" style="fill:#f3c384;fill-rule:nonzero;"/>
                </g>
                <g transform="matrix(32.6715,0,0,32.6715,431.888,965.855)">
                    <path d="M0.3,0.01C0.363,0.01 0.387,-0.021 0.387,-0.059L0.387,-0.085C0.387,-0.123 0.363,-0.154 0.3,-0.154C0.237,-0.154 0.213,-0.123 0.213,-0.085L0.213,-0.059C0.213,-0.021 0.237,0.01 0.3,0.01Z" style="fill:#f3c384;fill-rule:nonzero;"/>
                </g>
                <g transform="matrix(32.6715,0,0,32.6715,451.491,965.855)">
                    <path d="M0.57,0.056C0.57,-0.029 0.513,-0.087 0.374,-0.087L0.258,-0.087C0.213,-0.087 0.178,-0.091 0.178,-0.123C0.178,-0.151 0.208,-0.167 0.232,-0.173C0.252,-0.169 0.273,-0.167 0.296,-0.167C0.423,-0.167 0.506,-0.237 0.506,-0.347C0.506,-0.409 0.481,-0.457 0.436,-0.488L0.436,-0.512L0.556,-0.512L0.556,-0.598L0.462,-0.598C0.416,-0.598 0.393,-0.568 0.393,-0.528L0.393,-0.511C0.365,-0.522 0.332,-0.528 0.296,-0.528C0.169,-0.528 0.086,-0.457 0.086,-0.347C0.086,-0.273 0.123,-0.218 0.185,-0.189L0.185,-0.184C0.131,-0.171 0.092,-0.148 0.092,-0.097C0.092,-0.058 0.114,-0.035 0.149,-0.022L0.149,-0.012C0.092,0.003 0.059,0.032 0.059,0.088C0.059,0.165 0.121,0.212 0.299,0.212C0.481,0.212 0.57,0.162 0.57,0.056ZM0.468,0.063C0.468,0.11 0.423,0.135 0.341,0.135L0.26,0.135C0.184,0.135 0.154,0.103 0.154,0.064C0.154,0.037 0.167,0.018 0.192,0.006L0.371,0.006C0.444,0.006 0.468,0.028 0.468,0.063ZM0.296,-0.242C0.226,-0.242 0.193,-0.279 0.193,-0.334L0.193,-0.361C0.193,-0.416 0.226,-0.453 0.296,-0.453C0.366,-0.453 0.399,-0.416 0.399,-0.361L0.399,-0.334C0.399,-0.279 0.366,-0.242 0.296,-0.242Z" style="fill:#f3c384;fill-rule:nonzero;"/>
                </g>
                <g transform="matrix(32.6715,0,0,32.6715,471.094,965.855)">
                    <path d="M0.3,0.012C0.452,0.012 0.545,-0.093 0.545,-0.258C0.545,-0.423 0.452,-0.528 0.3,-0.528C0.148,-0.528 0.055,-0.423 0.055,-0.258C0.055,-0.093 0.148,0.012 0.3,0.012ZM0.3,-0.074C0.221,-0.074 0.169,-0.123 0.169,-0.219L0.169,-0.297C0.169,-0.393 0.221,-0.442 0.3,-0.442C0.379,-0.442 0.431,-0.393 0.431,-0.297L0.431,-0.219C0.431,-0.123 0.379,-0.074 0.3,-0.074Z" style="fill:#f3c384;fill-rule:nonzero;"/>
                </g>
                <g transform="matrix(32.6715,0,0,32.6715,490.697,965.855)">
                    <path d="M0.367,-0L0.552,-0.516L0.443,-0.516L0.372,-0.298L0.305,-0.091L0.299,-0.091L0.232,-0.298L0.161,-0.516L0.048,-0.516L0.233,-0L0.367,-0Z" style="fill:#f3c384;fill-rule:nonzero;"/>
                </g>
                <g transform="matrix(32.6715,0,0,32.6715,510.3,965.855)">
                    <path d="M0.3,0.01C0.363,0.01 0.387,-0.021 0.387,-0.059L0.387,-0.085C0.387,-0.123 0.363,-0.154 0.3,-0.154C0.237,-0.154 0.213,-0.123 0.213,-0.085L0.213,-0.059C0.213,-0.021 0.237,0.01 0.3,0.01Z" style="fill:#f3c384;fill-rule:nonzero;"/>
                </g>
                <g transform="matrix(32.6715,0,0,32.6715,529.903,965.855)">
                    <path d="M0.407,-0L0.516,-0L0.516,-0.516L0.407,-0.516L0.407,-0.166C0.407,-0.106 0.351,-0.077 0.295,-0.077C0.225,-0.077 0.188,-0.118 0.188,-0.2L0.188,-0.516L0.079,-0.516L0.079,-0.184C0.079,-0.059 0.149,0.012 0.253,0.012C0.338,0.012 0.38,-0.034 0.402,-0.088L0.407,-0.088L0.407,-0Z" style="fill:#f3c384;fill-rule:nonzero;"/>
                </g>
                <g transform="matrix(32.6715,0,0,32.6715,549.505,965.855)">
                    <path d="M0.088,-0L0.197,-0L0.197,-0.184L0.269,-0.251L0.449,-0L0.58,-0L0.348,-0.313L0.557,-0.516L0.428,-0.516L0.283,-0.376L0.202,-0.293L0.197,-0.293L0.197,-0.74L0.088,-0.74L0.088,-0Z" style="fill:#f3c384;fill-rule:nonzero;"/>
                </g>
                <g transform="matrix(32.6715,0,0,32.6715,569.108,965.855)">
                    <path d="M0.18,0.138L0.517,-0.76L0.42,-0.76L0.083,0.138L0.18,0.138Z" style="fill:#f3c384;fill-rule:nonzero;"/>
                </g>
                <g transform="matrix(32.6715,0,0,32.6715,588.711,965.855)">
                    <path d="M0.311,0.012C0.417,0.012 0.489,-0.035 0.524,-0.095L0.456,-0.155C0.427,-0.107 0.379,-0.076 0.313,-0.076C0.224,-0.076 0.17,-0.133 0.17,-0.214L0.17,-0.231L0.54,-0.231L0.54,-0.272C0.54,-0.424 0.448,-0.528 0.303,-0.528C0.156,-0.528 0.06,-0.423 0.06,-0.257C0.06,-0.093 0.153,0.012 0.311,0.012ZM0.303,-0.445C0.379,-0.445 0.429,-0.392 0.429,-0.311L0.429,-0.301L0.17,-0.301L0.17,-0.308C0.17,-0.388 0.225,-0.445 0.303,-0.445Z" style="fill:#f3c384;fill-rule:nonzero;"/>
                </g>
                <g transform="matrix(32.6715,0,0,32.6715,608.314,965.855)">
                    <path d="M0.193,-0L0.193,-0.35C0.193,-0.41 0.249,-0.439 0.305,-0.439C0.375,-0.439 0.412,-0.398 0.412,-0.316L0.412,-0L0.521,-0L0.521,-0.332C0.521,-0.457 0.451,-0.528 0.347,-0.528C0.262,-0.528 0.22,-0.482 0.198,-0.428L0.193,-0.428L0.193,-0.516L0.084,-0.516L0.084,-0L0.193,-0Z" style="fill:#f3c384;fill-rule:nonzero;"/>
                </g>
                <g transform="matrix(32.6715,0,0,32.6715,627.917,965.855)">
                    <path d="M0.528,-0L0.528,-0.088L0.308,-0.088L0.308,-0.428L0.528,-0.428L0.528,-0.516L0.308,-0.516L0.308,-0.698L0.206,-0.698L0.206,-0.569C0.206,-0.529 0.191,-0.516 0.153,-0.516L0.04,-0.516L0.04,-0.428L0.199,-0.428L0.199,-0.131C0.199,-0.054 0.241,-0 0.331,-0L0.528,-0Z" style="fill:#f3c384;fill-rule:nonzero;"/>
                </g>
                <g transform="matrix(32.6715,0,0,32.6715,647.52,965.855)">
                    <path d="M0.332,-0.61C0.386,-0.61 0.406,-0.636 0.406,-0.669L0.406,-0.69C0.406,-0.723 0.386,-0.749 0.331,-0.749C0.277,-0.749 0.257,-0.723 0.257,-0.69L0.257,-0.669C0.257,-0.636 0.277,-0.61 0.332,-0.61ZM0.101,-0L0.551,-0L0.551,-0.088L0.386,-0.088L0.386,-0.516L0.101,-0.516L0.101,-0.428L0.277,-0.428L0.277,-0.088L0.101,-0.088L0.101,-0Z" style="fill:#f3c384;fill-rule:nonzero;"/>
                </g>
                <g transform="matrix(32.6715,0,0,32.6715,667.123,965.855)">
                    <path d="M0.528,-0L0.528,-0.088L0.308,-0.088L0.308,-0.428L0.528,-0.428L0.528,-0.516L0.308,-0.516L0.308,-0.698L0.206,-0.698L0.206,-0.569C0.206,-0.529 0.191,-0.516 0.153,-0.516L0.04,-0.516L0.04,-0.428L0.199,-0.428L0.199,-0.131C0.199,-0.054 0.241,-0 0.331,-0L0.528,-0Z" style="fill:#f3c384;fill-rule:nonzero;"/>
                </g>
                <g transform="matrix(32.6715,0,0,32.6715,686.726,965.855)">
                    <path d="M0.369,-0.3L0.305,-0.123L0.299,-0.123L0.235,-0.3L0.153,-0.516L0.039,-0.516L0.247,-0.007L0.2,0.112L0.078,0.112L0.078,0.2L0.165,0.2C0.247,0.2 0.284,0.166 0.311,0.1L0.561,-0.516L0.451,-0.516L0.369,-0.3Z" style="fill:#f3c384;fill-rule:nonzero;"/>
                </g>
                <g transform="matrix(32.6715,0,0,32.6715,706.329,965.855)">
                    <path d="M0.18,0.138L0.517,-0.76L0.42,-0.76L0.083,0.138L0.18,0.138Z" style="fill:#f3c384;fill-rule:nonzero;"/>
                </g>
                <g transform="matrix(32.6715,0,0,32.6715,177.051,1025.51)">
                    <path d="M0.565,-0L0.565,-0.093L0.396,-0.093L0.396,-0.698L0.223,-0.698L0.045,-0.505L0.114,-0.443L0.276,-0.616L0.284,-0.616L0.284,-0.093L0.088,-0.093L0.088,-0L0.565,-0Z" style="fill:#f3c384;fill-rule:nonzero;"/>
                </g>
                <g transform="matrix(32.6715,0,0,32.6715,196.654,1025.51)">
                    <path d="M0.545,-0.095L0.184,-0.095L0.353,-0.237C0.451,-0.318 0.522,-0.394 0.522,-0.505C0.522,-0.624 0.44,-0.71 0.295,-0.71C0.153,-0.71 0.082,-0.628 0.054,-0.54L0.152,-0.503C0.171,-0.567 0.21,-0.613 0.287,-0.613C0.362,-0.613 0.404,-0.572 0.404,-0.499L0.404,-0.488C0.404,-0.425 0.362,-0.369 0.291,-0.306L0.063,-0.107L0.063,-0L0.545,-0L0.545,-0.095Z" style="fill:#f3c384;fill-rule:nonzero;"/>
                </g>
                <g transform="matrix(32.6715,0,0,32.6715,216.256,1025.51)">
                    <path d="M0.3,0.012C0.477,0.012 0.556,-0.121 0.556,-0.349C0.556,-0.577 0.477,-0.71 0.3,-0.71C0.123,-0.71 0.044,-0.577 0.044,-0.349C0.044,-0.121 0.123,0.012 0.3,0.012ZM0.3,-0.08C0.198,-0.08 0.159,-0.161 0.159,-0.289L0.159,-0.409C0.159,-0.537 0.198,-0.618 0.3,-0.618C0.402,-0.618 0.441,-0.537 0.441,-0.409L0.441,-0.289C0.441,-0.161 0.402,-0.08 0.3,-0.08ZM0.3,-0.29C0.346,-0.29 0.362,-0.311 0.362,-0.338L0.362,-0.36C0.362,-0.387 0.346,-0.408 0.3,-0.408C0.254,-0.408 0.238,-0.387 0.238,-0.36L0.238,-0.338C0.238,-0.311 0.254,-0.29 0.3,-0.29Z" style="fill:#f3c384;fill-rule:nonzero;"/>
                </g>
                <g transform="matrix(32.6715,0,0,32.6715,235.859,1025.51)">
                    <path d="M0.545,-0.095L0.184,-0.095L0.353,-0.237C0.451,-0.318 0.522,-0.394 0.522,-0.505C0.522,-0.624 0.44,-0.71 0.295,-0.71C0.153,-0.71 0.082,-0.628 0.054,-0.54L0.152,-0.503C0.171,-0.567 0.21,-0.613 0.287,-0.613C0.362,-0.613 0.404,-0.572 0.404,-0.499L0.404,-0.488C0.404,-0.425 0.362,-0.369 0.291,-0.306L0.063,-0.107L0.063,-0L0.545,-0L0.545,-0.095Z" style="fill:#f3c384;fill-rule:nonzero;"/>
                </g>
                <g transform="matrix(32.6715,0,0,32.6715,255.462,1025.51)">
                    <path d="M0.3,0.01C0.363,0.01 0.387,-0.021 0.387,-0.059L0.387,-0.085C0.387,-0.123 0.363,-0.154 0.3,-0.154C0.237,-0.154 0.213,-0.123 0.213,-0.085L0.213,-0.059C0.213,-0.021 0.237,0.01 0.3,0.01Z" style="fill:#f3c384;fill-rule:nonzero;"/>
                </g>
                <g transform="matrix(32.6715,0,0,32.6715,275.065,1025.51)">
                    <path d="M0.57,0.056C0.57,-0.029 0.513,-0.087 0.374,-0.087L0.258,-0.087C0.213,-0.087 0.178,-0.091 0.178,-0.123C0.178,-0.151 0.208,-0.167 0.232,-0.173C0.252,-0.169 0.273,-0.167 0.296,-0.167C0.423,-0.167 0.506,-0.237 0.506,-0.347C0.506,-0.409 0.481,-0.457 0.436,-0.488L0.436,-0.512L0.556,-0.512L0.556,-0.598L0.462,-0.598C0.416,-0.598 0.393,-0.568 0.393,-0.528L0.393,-0.511C0.365,-0.522 0.332,-0.528 0.296,-0.528C0.169,-0.528 0.086,-0.457 0.086,-0.347C0.086,-0.273 0.123,-0.218 0.185,-0.189L0.185,-0.184C0.131,-0.171 0.092,-0.148 0.092,-0.097C0.092,-0.058 0.114,-0.035 0.149,-0.022L0.149,-0.012C0.092,0.003 0.059,0.032 0.059,0.088C0.059,0.165 0.121,0.212 0.299,0.212C0.481,0.212 0.57,0.162 0.57,0.056ZM0.468,0.063C0.468,0.11 0.423,0.135 0.341,0.135L0.26,0.135C0.184,0.135 0.154,0.103 0.154,0.064C0.154,0.037 0.167,0.018 0.192,0.006L0.371,0.006C0.444,0.006 0.468,0.028 0.468,0.063ZM0.296,-0.242C0.226,-0.242 0.193,-0.279 0.193,-0.334L0.193,-0.361C0.193,-0.416 0.226,-0.453 0.296,-0.453C0.366,-0.453 0.399,-0.416 0.399,-0.361L0.399,-0.334C0.399,-0.279 0.366,-0.242 0.296,-0.242Z" style="fill:#f3c384;fill-rule:nonzero;"/>
                </g>
                <g transform="matrix(32.6715,0,0,32.6715,294.668,1025.51)">
                    <path d="M0.311,0.012C0.417,0.012 0.489,-0.035 0.524,-0.095L0.456,-0.155C0.427,-0.107 0.379,-0.076 0.313,-0.076C0.224,-0.076 0.17,-0.133 0.17,-0.214L0.17,-0.231L0.54,-0.231L0.54,-0.272C0.54,-0.424 0.448,-0.528 0.303,-0.528C0.156,-0.528 0.06,-0.423 0.06,-0.257C0.06,-0.093 0.153,0.012 0.311,0.012ZM0.303,-0.445C0.379,-0.445 0.429,-0.392 0.429,-0.311L0.429,-0.301L0.17,-0.301L0.17,-0.308C0.17,-0.388 0.225,-0.445 0.303,-0.445Z" style="fill:#f3c384;fill-rule:nonzero;"/>
                </g>
                <g transform="matrix(32.6715,0,0,32.6715,314.271,1025.51)">
                    <path d="M0.3,0.012C0.452,0.012 0.545,-0.093 0.545,-0.258C0.545,-0.423 0.452,-0.528 0.3,-0.528C0.148,-0.528 0.055,-0.423 0.055,-0.258C0.055,-0.093 0.148,0.012 0.3,0.012ZM0.3,-0.074C0.221,-0.074 0.169,-0.123 0.169,-0.219L0.169,-0.297C0.169,-0.393 0.221,-0.442 0.3,-0.442C0.379,-0.442 0.431,-0.393 0.431,-0.297L0.431,-0.219C0.431,-0.123 0.379,-0.074 0.3,-0.074Z" style="fill:#f3c384;fill-rule:nonzero;"/>
                </g>
                <g transform="matrix(32.6715,0,0,32.6715,333.874,1025.51)">
                    <path d="M0.098,0.2L0.302,0.2C0.392,0.2 0.435,0.146 0.435,0.069L0.435,-0.516L0.092,-0.516L0.092,-0.428L0.326,-0.428L0.326,0.112L0.098,0.112L0.098,0.2ZM0.381,-0.61C0.435,-0.61 0.455,-0.636 0.455,-0.669L0.455,-0.69C0.455,-0.723 0.435,-0.749 0.38,-0.749C0.326,-0.749 0.306,-0.723 0.306,-0.69L0.306,-0.669C0.306,-0.636 0.326,-0.61 0.381,-0.61Z" style="fill:#f3c384;fill-rule:nonzero;"/>
                </g>
                <g transform="matrix(32.6715,0,0,32.6715,353.477,1025.51)">
                    <path d="M0.301,0.012C0.442,0.012 0.528,-0.051 0.528,-0.155C0.528,-0.261 0.438,-0.289 0.356,-0.301L0.274,-0.314C0.231,-0.32 0.195,-0.332 0.195,-0.376C0.195,-0.421 0.233,-0.445 0.304,-0.445C0.385,-0.445 0.432,-0.414 0.459,-0.383L0.52,-0.447C0.473,-0.498 0.404,-0.528 0.308,-0.528C0.176,-0.528 0.088,-0.472 0.088,-0.367C0.088,-0.261 0.179,-0.232 0.26,-0.22L0.342,-0.207C0.386,-0.201 0.421,-0.189 0.421,-0.145C0.421,-0.094 0.373,-0.071 0.303,-0.071C0.226,-0.071 0.171,-0.098 0.126,-0.147L0.059,-0.087C0.108,-0.027 0.19,0.012 0.301,0.012Z" style="fill:#f3c384;fill-rule:nonzero;"/>
                </g>
                <g transform="matrix(32.6715,0,0,32.6715,373.08,1025.51)">
                    <path d="M0.3,0.012C0.452,0.012 0.545,-0.093 0.545,-0.258C0.545,-0.423 0.452,-0.528 0.3,-0.528C0.148,-0.528 0.055,-0.423 0.055,-0.258C0.055,-0.093 0.148,0.012 0.3,0.012ZM0.3,-0.074C0.221,-0.074 0.169,-0.123 0.169,-0.219L0.169,-0.297C0.169,-0.393 0.221,-0.442 0.3,-0.442C0.379,-0.442 0.431,-0.393 0.431,-0.297L0.431,-0.219C0.431,-0.123 0.379,-0.074 0.3,-0.074Z" style="fill:#f3c384;fill-rule:nonzero;"/>
                </g>
                <g transform="matrix(32.6715,0,0,32.6715,392.682,1025.51)">
                    <path d="M0.193,-0L0.193,-0.35C0.193,-0.41 0.249,-0.439 0.305,-0.439C0.375,-0.439 0.412,-0.398 0.412,-0.316L0.412,-0L0.521,-0L0.521,-0.332C0.521,-0.457 0.451,-0.528 0.347,-0.528C0.262,-0.528 0.22,-0.482 0.198,-0.428L0.193,-0.428L0.193,-0.516L0.084,-0.516L0.084,-0L0.193,-0Z" style="fill:#f3c384;fill-rule:nonzero;"/>
                </g>
                <g transform="matrix(32.6715,0,0,32.6715,412.285,1025.51)">
                    <path d="M0.251,-0.442L0.251,-0.74L0.151,-0.74L0.151,-0.442L0.251,-0.442ZM0.449,-0.442L0.449,-0.74L0.349,-0.74L0.349,-0.442L0.449,-0.442Z" style="fill:#fff;fill-rule:nonzero;"/>
                </g>
                <g transform="matrix(32.6715,0,0,32.6715,431.888,1025.51)">
                    <path d="M0.408,-0.311C0.408,-0.506 0.313,-0.676 0.2,-0.76L0.091,-0.76C0.21,-0.674 0.312,-0.527 0.312,-0.357L0.312,-0.265C0.312,-0.095 0.21,0.052 0.091,0.138L0.2,0.138C0.313,0.054 0.408,-0.116 0.408,-0.311Z" style="fill:#e5ad00;fill-rule:nonzero;"/>
                </g>
                <g transform="matrix(32.6715,0,0,32.6715,177.051,1085.16)">
                    <path d="M0.079,0.2L0.188,0.2L0.188,-0.088L0.194,-0.088C0.224,-0.026 0.274,0.012 0.35,0.012C0.471,0.012 0.549,-0.081 0.549,-0.258C0.549,-0.435 0.471,-0.528 0.35,-0.528C0.274,-0.528 0.224,-0.49 0.194,-0.428L0.188,-0.428L0.188,-0.516L0.079,-0.516L0.079,0.2ZM0.305,-0.077C0.242,-0.077 0.188,-0.109 0.188,-0.172L0.188,-0.344C0.188,-0.407 0.242,-0.439 0.305,-0.439C0.387,-0.439 0.434,-0.384 0.434,-0.3L0.434,-0.216C0.434,-0.132 0.387,-0.077 0.305,-0.077Z" style="fill:#bce766;fill-rule:nonzero;"/>
                </g>
                <g transform="matrix(32.6715,0,0,32.6715,196.654,1085.16)">
                    <path d="M0.076,-0L0.469,-0L0.469,-0.088L0.322,-0.088L0.322,-0.281C0.322,-0.353 0.369,-0.412 0.458,-0.412L0.56,-0.412L0.56,-0.516L0.498,-0.516C0.393,-0.516 0.348,-0.451 0.328,-0.379L0.322,-0.379L0.322,-0.516L0.076,-0.516L0.076,-0.428L0.213,-0.428L0.213,-0.088L0.076,-0.088L0.076,-0Z" style="fill:#bce766;fill-rule:nonzero;"/>
                </g>
                <g transform="matrix(32.6715,0,0,32.6715,216.256,1085.16)">
                    <path d="M0.332,-0.61C0.386,-0.61 0.406,-0.636 0.406,-0.669L0.406,-0.69C0.406,-0.723 0.386,-0.749 0.331,-0.749C0.277,-0.749 0.257,-0.723 0.257,-0.69L0.257,-0.669C0.257,-0.636 0.277,-0.61 0.332,-0.61ZM0.101,-0L0.551,-0L0.551,-0.088L0.386,-0.088L0.386,-0.516L0.101,-0.516L0.101,-0.428L0.277,-0.428L0.277,-0.088L0.101,-0.088L0.101,-0Z" style="fill:#bce766;fill-rule:nonzero;"/>
                </g>
                <g transform="matrix(32.6715,0,0,32.6715,235.859,1085.16)">
                    <path d="M0.193,-0L0.193,-0.35C0.193,-0.41 0.249,-0.439 0.305,-0.439C0.375,-0.439 0.412,-0.398 0.412,-0.316L0.412,-0L0.521,-0L0.521,-0.332C0.521,-0.457 0.451,-0.528 0.347,-0.528C0.262,-0.528 0.22,-0.482 0.198,-0.428L0.193,-0.428L0.193,-0.516L0.084,-0.516L0.084,-0L0.193,-0Z" style="fill:#bce766;fill-rule:nonzero;"/>
                </g>
                <g transform="matrix(32.6715,0,0,32.6715,255.462,1085.16)">
                    <path d="M0.528,-0L0.528,-0.088L0.308,-0.088L0.308,-0.428L0.528,-0.428L0.528,-0.516L0.308,-0.516L0.308,-0.698L0.206,-0.698L0.206,-0.569C0.206,-0.529 0.191,-0.516 0.153,-0.516L0.04,-0.516L0.04,-0.428L0.199,-0.428L0.199,-0.131C0.199,-0.054 0.241,-0 0.331,-0L0.528,-0Z" style="fill:#bce766;fill-rule:nonzero;"/>
                </g>
                <g transform="matrix(32.6715,0,0,32.6715,275.065,1085.16)">
                    <path d="M0.192,-0.311C0.192,-0.116 0.287,0.054 0.4,0.138L0.509,0.138C0.39,0.052 0.288,-0.095 0.288,-0.265L0.288,-0.357C0.288,-0.527 0.39,-0.674 0.509,-0.76L0.4,-0.76C0.287,-0.676 0.192,-0.506 0.192,-0.311Z" style="fill:#e5ad00;fill-rule:nonzero;"/>
                </g>
                <g transform="matrix(32.6715,0,0,32.6715,294.668,1085.16)">
                    <path d="M0.523,-0L0.523,-0.088L0.199,-0.088L0.513,-0.42L0.513,-0.516L0.088,-0.516L0.088,-0.428L0.391,-0.428L0.077,-0.096L0.077,-0L0.523,-0Z" style="fill:#76a5f9;fill-rule:nonzero;"/>
                </g>
                <g transform="matrix(32.6715,0,0,32.6715,314.271,1085.16)">
                    <path d="M0.3,0.012C0.452,0.012 0.545,-0.093 0.545,-0.258C0.545,-0.423 0.452,-0.528 0.3,-0.528C0.148,-0.528 0.055,-0.423 0.055,-0.258C0.055,-0.093 0.148,0.012 0.3,0.012ZM0.3,-0.074C0.221,-0.074 0.169,-0.123 0.169,-0.219L0.169,-0.297C0.169,-0.393 0.221,-0.442 0.3,-0.442C0.379,-0.442 0.431,-0.393 0.431,-0.297L0.431,-0.219C0.431,-0.123 0.379,-0.074 0.3,-0.074Z" style="fill:#76a5f9;fill-rule:nonzero;"/>
                </g>
                <g transform="matrix(32.6715,0,0,32.6715,333.874,1085.16)">
                    <path d="M0.193,-0L0.193,-0.35C0.193,-0.41 0.249,-0.439 0.305,-0.439C0.375,-0.439 0.412,-0.398 0.412,-0.316L0.412,-0L0.521,-0L0.521,-0.332C0.521,-0.457 0.451,-0.528 0.347,-0.528C0.262,-0.528 0.22,-0.482 0.198,-0.428L0.193,-0.428L0.193,-0.516L0.084,-0.516L0.084,-0L0.193,-0Z" style="fill:#76a5f9;fill-rule:nonzero;"/>
                </g>
                <g transform="matrix(32.6715,0,0,32.6715,353.477,1085.16)">
                    <path d="M0.311,0.012C0.417,0.012 0.489,-0.035 0.524,-0.095L0.456,-0.155C0.427,-0.107 0.379,-0.076 0.313,-0.076C0.224,-0.076 0.17,-0.133 0.17,-0.214L0.17,-0.231L0.54,-0.231L0.54,-0.272C0.54,-0.424 0.448,-0.528 0.303,-0.528C0.156,-0.528 0.06,-0.423 0.06,-0.257C0.06,-0.093 0.153,0.012 0.311,0.012ZM0.303,-0.445C0.379,-0.445 0.429,-0.392 0.429,-0.311L0.429,-0.301L0.17,-0.301L0.17,-0.308C0.17,-0.388 0.225,-0.445 0.303,-0.445Z" style="fill:#76a5f9;fill-rule:nonzero;"/>
                </g>
                <g transform="matrix(32.6715,0,0,32.6715,373.08,1085.16)">
                    <path d="M0.3,0.01C0.363,0.01 0.387,-0.021 0.387,-0.059L0.387,-0.085C0.387,-0.123 0.363,-0.154 0.3,-0.154C0.237,-0.154 0.213,-0.123 0.213,-0.085L0.213,-0.059C0.213,-0.021 0.237,0.01 0.3,0.01Z" style="fill:#76a5f9;fill-rule:nonzero;"/>
                </g>
                <g transform="matrix(32.6715,0,0,32.6715,392.682,1085.16)">
                    <path d="M0.084,-0L0.193,-0L0.193,-0.35C0.193,-0.41 0.249,-0.439 0.305,-0.439C0.375,-0.439 0.412,-0.398 0.412,-0.316L0.412,-0L0.521,-0L0.521,-0.332C0.521,-0.457 0.451,-0.528 0.347,-0.528C0.262,-0.528 0.22,-0.482 0.198,-0.428L0.193,-0.428L0.193,-0.74L0.084,-0.74L0.084,-0Z" style="fill:#9ebfca;fill-rule:nonzero;"/>
                </g>
                <g transform="matrix(32.6715,0,0,32.6715,412.285,1085.16)">
                    <path d="M0.311,0.012C0.417,0.012 0.489,-0.035 0.524,-0.095L0.456,-0.155C0.427,-0.107 0.379,-0.076 0.313,-0.076C0.224,-0.076 0.17,-0.133 0.17,-0.214L0.17,-0.231L0.54,-0.231L0.54,-0.272C0.54,-0.424 0.448,-0.528 0.303,-0.528C0.156,-0.528 0.06,-0.423 0.06,-0.257C0.06,-0.093 0.153,0.012 0.311,0.012ZM0.303,-0.445C0.379,-0.445 0.429,-0.392 0.429,-0.311L0.429,-0.301L0.17,-0.301L0.17,-0.308C0.17,-0.388 0.225,-0.445 0.303,-0.445Z" style="fill:#9ebfca;fill-rule:nonzero;"/>
                </g>
                <g transform="matrix(32.6715,0,0,32.6715,431.888,1085.16)">
                    <path d="M0.559,-0L0.559,-0.086L0.494,-0.086L0.494,-0.345C0.494,-0.463 0.414,-0.528 0.284,-0.528C0.175,-0.528 0.105,-0.481 0.076,-0.425L0.141,-0.372C0.169,-0.415 0.208,-0.443 0.274,-0.443C0.348,-0.443 0.385,-0.407 0.385,-0.338L0.385,-0.298L0.286,-0.298C0.133,-0.298 0.06,-0.244 0.06,-0.144C0.06,-0.047 0.128,0.012 0.233,0.012C0.314,0.012 0.368,-0.025 0.388,-0.087L0.393,-0.087C0.399,-0.035 0.43,-0 0.492,-0L0.559,-0ZM0.264,-0.068C0.206,-0.068 0.17,-0.092 0.17,-0.138L0.17,-0.158C0.17,-0.204 0.208,-0.229 0.288,-0.229L0.385,-0.229L0.385,-0.154C0.385,-0.103 0.334,-0.068 0.264,-0.068Z" style="fill:#9ebfca;fill-rule:nonzero;"/>
                </g>
                <g transform="matrix(32.6715,0,0,32.6715,451.491,1085.16)">
                    <path d="M0.412,-0L0.521,-0L0.521,-0.74L0.412,-0.74L0.412,-0.428L0.406,-0.428C0.376,-0.49 0.326,-0.528 0.25,-0.528C0.129,-0.528 0.051,-0.435 0.051,-0.258C0.051,-0.081 0.129,0.012 0.25,0.012C0.326,0.012 0.376,-0.026 0.406,-0.088L0.412,-0.088L0.412,-0ZM0.295,-0.077C0.213,-0.077 0.166,-0.132 0.166,-0.216L0.166,-0.3C0.166,-0.384 0.213,-0.439 0.295,-0.439C0.358,-0.439 0.412,-0.407 0.412,-0.344L0.412,-0.172C0.412,-0.109 0.358,-0.077 0.295,-0.077Z" style="fill:#9ebfca;fill-rule:nonzero;"/>
                </g>
                <g transform="matrix(32.6715,0,0,32.6715,471.094,1085.16)">
                    <path d="M0.192,-0.311C0.192,-0.116 0.287,0.054 0.4,0.138L0.509,0.138C0.39,0.052 0.288,-0.095 0.288,-0.265L0.288,-0.357C0.288,-0.527 0.39,-0.674 0.509,-0.76L0.4,-0.76C0.287,-0.676 0.192,-0.506 0.192,-0.311Z" style="fill:#d90068;fill-rule:nonzero;"/>
                </g>
                <g transform="matrix(32.6715,0,0,32.6715,490.697,1085.16)">
                    <path d="M0.408,-0.311C0.408,-0.506 0.313,-0.676 0.2,-0.76L0.091,-0.76C0.21,-0.674 0.312,-0.527 0.312,-0.357L0.312,-0.265C0.312,-0.095 0.21,0.052 0.091,0.138L0.2,0.138C0.313,0.054 0.408,-0.116 0.408,-0.311Z" style="fill:#d90068;fill-rule:nonzero;"/>
                </g>
                <g transform="matrix(32.6715,0,0,32.6715,510.3,1085.16)">
                    <path d="M0.506,0.138L0.506,0.06L0.297,0.06L0.297,-0.682L0.506,-0.682L0.506,-0.76L0.207,-0.76L0.207,0.138L0.506,0.138Z" style="fill:#00ceff;fill-rule:nonzero;"/>
                </g>
                <g transform="matrix(32.6715,0,0,32.6715,529.903,1085.16)">
                    <path d="M0.251,-0.442L0.251,-0.74L0.151,-0.74L0.151,-0.442L0.251,-0.442ZM0.449,-0.442L0.449,-0.74L0.349,-0.74L0.349,-0.442L0.449,-0.442Z" style="fill:#fff;fill-rule:nonzero;"/>
                </g>
                <g transform="matrix(32.6715,0,0,32.6715,549.505,1085.16)">
                    <path d="M0.193,-0L0.193,-0.35C0.193,-0.41 0.249,-0.439 0.305,-0.439C0.375,-0.439 0.412,-0.398 0.412,-0.316L0.412,-0L0.521,-0L0.521,-0.332C0.521,-0.457 0.451,-0.528 0.347,-0.528C0.262,-0.528 0.22,-0.482 0.198,-0.428L0.193,-0.428L0.193,-0.516L0.084,-0.516L0.084,-0L0.193,-0Z" style="fill:#f3c384;fill-rule:nonzero;"/>
                </g>
                <g transform="matrix(32.6715,0,0,32.6715,569.108,1085.16)">
                    <path d="M0.559,-0L0.559,-0.086L0.494,-0.086L0.494,-0.345C0.494,-0.463 0.414,-0.528 0.284,-0.528C0.175,-0.528 0.105,-0.481 0.076,-0.425L0.141,-0.372C0.169,-0.415 0.208,-0.443 0.274,-0.443C0.348,-0.443 0.385,-0.407 0.385,-0.338L0.385,-0.298L0.286,-0.298C0.133,-0.298 0.06,-0.244 0.06,-0.144C0.06,-0.047 0.128,0.012 0.233,0.012C0.314,0.012 0.368,-0.025 0.388,-0.087L0.393,-0.087C0.399,-0.035 0.43,-0 0.492,-0L0.559,-0ZM0.264,-0.068C0.206,-0.068 0.17,-0.092 0.17,-0.138L0.17,-0.158C0.17,-0.204 0.208,-0.229 0.288,-0.229L0.385,-0.229L0.385,-0.154C0.385,-0.103 0.334,-0.068 0.264,-0.068Z" style="fill:#f3c384;fill-rule:nonzero;"/>
                </g>
                <g transform="matrix(32.6715,0,0,32.6715,588.711,1085.16)">
                    <path d="M0.137,-0L0.137,-0.374C0.137,-0.421 0.163,-0.444 0.199,-0.444C0.238,-0.444 0.253,-0.42 0.253,-0.349L0.253,-0L0.346,-0L0.346,-0.374C0.346,-0.421 0.372,-0.444 0.407,-0.444C0.446,-0.444 0.462,-0.42 0.462,-0.349L0.462,-0L0.555,-0L0.555,-0.363C0.555,-0.47 0.527,-0.528 0.448,-0.528C0.386,-0.528 0.355,-0.491 0.337,-0.444L0.333,-0.444C0.325,-0.496 0.295,-0.528 0.241,-0.528C0.185,-0.528 0.158,-0.493 0.142,-0.449L0.137,-0.449L0.137,-0.516L0.044,-0.516L0.044,-0L0.137,-0Z" style="fill:#f3c384;fill-rule:nonzero;"/>
                </g>
                <g transform="matrix(32.6715,0,0,32.6715,608.314,1085.16)">
                    <path d="M0.311,0.012C0.417,0.012 0.489,-0.035 0.524,-0.095L0.456,-0.155C0.427,-0.107 0.379,-0.076 0.313,-0.076C0.224,-0.076 0.17,-0.133 0.17,-0.214L0.17,-0.231L0.54,-0.231L0.54,-0.272C0.54,-0.424 0.448,-0.528 0.303,-0.528C0.156,-0.528 0.06,-0.423 0.06,-0.257C0.06,-0.093 0.153,0.012 0.311,0.012ZM0.303,-0.445C0.379,-0.445 0.429,-0.392 0.429,-0.311L0.429,-0.301L0.17,-0.301L0.17,-0.308C0.17,-0.388 0.225,-0.445 0.303,-0.445Z" style="fill:#f3c384;fill-rule:nonzero;"/>
                </g>
                <g transform="matrix(32.6715,0,0,32.6715,627.917,1085.16)">
                    <path d="M0.251,-0.442L0.251,-0.74L0.151,-0.74L0.151,-0.442L0.251,-0.442ZM0.449,-0.442L0.449,-0.74L0.349,-0.74L0.349,-0.442L0.449,-0.442Z" style="fill:#fff;fill-rule:nonzero;"/>
                </g>
                <g transform="matrix(32.6715,0,0,32.6715,647.52,1085.16)">
                    <path d="M0.094,-0.76L0.094,-0.682L0.303,-0.682L0.303,0.06L0.094,0.06L0.094,0.138L0.393,0.138L0.393,-0.76L0.094,-0.76Z" style="fill:#00ceff;fill-rule:nonzero;"/>
                </g>
                <g transform="matrix(32.6715,0,0,32.6715,667.123,1085.16)">
                    <path d="M0.408,-0.311C0.408,-0.506 0.313,-0.676 0.2,-0.76L0.091,-0.76C0.21,-0.674 0.312,-0.527 0.312,-0.357L0.312,-0.265C0.312,-0.095 0.21,0.052 0.091,0.138L0.2,0.138C0.313,0.054 0.408,-0.116 0.408,-0.311Z" style="fill:#e5ad00;fill-rule:nonzero;"/>
                </g>
            </g>
        </g>
    </g>
</svg>
