<svg width="456" height="304" viewBox="0 0 456 304" fill="none" xmlns="http://www.w3.org/2000/svg">
<rect y="50" width="456" height="254" fill="white"/>
<rect width="456" height="37" rx="5" fill="#DADADA"/>
<rect y="19" width="456" height="31" fill="#0B0B0B"/>
<rect x="1" y="20" width="454" height="283" stroke="#DADADA" stroke-width="2"/>
<path d="M17.134 32.694H19.078V33.954H19.114C19.402 33.414 19.804 33.03 20.32 32.802C20.836 32.562 21.394 32.442 21.994 32.442C22.726 32.442 23.362 32.574 23.902 32.838C24.454 33.09 24.91 33.444 25.27 33.9C25.63 34.344 25.9 34.866 26.08 35.466C26.26 36.066 26.35 36.708 26.35 37.392C26.35 38.016 26.266 38.622 26.098 39.21C25.942 39.798 25.696 40.32 25.36 40.776C25.036 41.22 24.622 41.58 24.118 41.856C23.614 42.12 23.02 42.252 22.336 42.252C22.036 42.252 21.736 42.222 21.436 42.162C21.136 42.114 20.848 42.03 20.572 41.91C20.296 41.79 20.038 41.64 19.798 41.46C19.57 41.268 19.378 41.046 19.222 40.794H19.186V45.438H17.134V32.694ZM24.298 37.356C24.298 36.936 24.244 36.528 24.136 36.132C24.028 35.736 23.866 35.388 23.65 35.088C23.434 34.776 23.164 34.53 22.84 34.35C22.516 34.158 22.144 34.062 21.724 34.062C20.86 34.062 20.206 34.362 19.762 34.962C19.33 35.562 19.114 36.36 19.114 37.356C19.114 37.824 19.168 38.262 19.276 38.67C19.396 39.066 19.57 39.408 19.798 39.696C20.026 39.984 20.296 40.212 20.608 40.38C20.932 40.548 21.304 40.632 21.724 40.632C22.192 40.632 22.588 40.536 22.912 40.344C23.236 40.152 23.5 39.906 23.704 39.606C23.92 39.294 24.07 38.946 24.154 38.562C24.25 38.166 24.298 37.764 24.298 37.356ZM28.1379 29.148H30.1899V42H28.1379V29.148ZM40.2197 39.93C40.2197 40.182 40.2497 40.362 40.3097 40.47C40.3817 40.578 40.5137 40.632 40.7057 40.632C40.7657 40.632 40.8377 40.632 40.9217 40.632C41.0057 40.632 41.1017 40.62 41.2097 40.596V42.018C41.1377 42.042 41.0417 42.066 40.9217 42.09C40.8137 42.126 40.6997 42.156 40.5797 42.18C40.4597 42.204 40.3397 42.222 40.2197 42.234C40.0997 42.246 39.9977 42.252 39.9137 42.252C39.4937 42.252 39.1457 42.168 38.8697 42C38.5937 41.832 38.4137 41.538 38.3297 41.118C37.9217 41.514 37.4177 41.802 36.8177 41.982C36.2297 42.162 35.6597 42.252 35.1077 42.252C34.6877 42.252 34.2857 42.192 33.9017 42.072C33.5177 41.964 33.1757 41.802 32.8757 41.586C32.5877 41.358 32.3537 41.076 32.1737 40.74C32.0057 40.392 31.9217 39.99 31.9217 39.534C31.9217 38.958 32.0237 38.49 32.2277 38.13C32.4437 37.77 32.7197 37.488 33.0557 37.284C33.4037 37.08 33.7877 36.936 34.2077 36.852C34.6397 36.756 35.0717 36.684 35.5037 36.636C35.8757 36.564 36.2297 36.516 36.5657 36.492C36.9017 36.456 37.1957 36.402 37.4477 36.33C37.7117 36.258 37.9157 36.15 38.0597 36.006C38.2157 35.85 38.2937 35.622 38.2937 35.322C38.2937 35.058 38.2277 34.842 38.0957 34.674C37.9757 34.506 37.8197 34.38 37.6277 34.296C37.4477 34.2 37.2437 34.14 37.0157 34.116C36.7877 34.08 36.5717 34.062 36.3677 34.062C35.7917 34.062 35.3177 34.182 34.9457 34.422C34.5737 34.662 34.3637 35.034 34.3157 35.538H32.2637C32.2997 34.938 32.4437 34.44 32.6957 34.044C32.9477 33.648 33.2657 33.33 33.6497 33.09C34.0457 32.85 34.4897 32.682 34.9817 32.586C35.4737 32.49 35.9777 32.442 36.4937 32.442C36.9497 32.442 37.3997 32.49 37.8437 32.586C38.2877 32.682 38.6837 32.838 39.0317 33.054C39.3917 33.27 39.6797 33.552 39.8957 33.9C40.1117 34.236 40.2197 34.65 40.2197 35.142V39.93ZM38.1677 37.338C37.8557 37.542 37.4717 37.668 37.0157 37.716C36.5597 37.752 36.1037 37.812 35.6477 37.896C35.4317 37.932 35.2217 37.986 35.0177 38.058C34.8137 38.118 34.6337 38.208 34.4777 38.328C34.3217 38.436 34.1957 38.586 34.0997 38.778C34.0157 38.958 33.9737 39.18 33.9737 39.444C33.9737 39.672 34.0397 39.864 34.1717 40.02C34.3037 40.176 34.4597 40.302 34.6397 40.398C34.8317 40.482 35.0357 40.542 35.2517 40.578C35.4797 40.614 35.6837 40.632 35.8637 40.632C36.0917 40.632 36.3377 40.602 36.6017 40.542C36.8657 40.482 37.1117 40.38 37.3397 40.236C37.5797 40.092 37.7777 39.912 37.9337 39.696C38.0897 39.468 38.1677 39.192 38.1677 38.868V37.338ZM42.4277 32.694H44.3717V34.062L44.4077 34.098C44.7197 33.582 45.1277 33.18 45.6317 32.892C46.1357 32.592 46.6937 32.442 47.3057 32.442C48.3257 32.442 49.1297 32.706 49.7177 33.234C50.3057 33.762 50.5997 34.554 50.5997 35.61V42H48.5477V36.15C48.5237 35.418 48.3677 34.89 48.0797 34.566C47.7917 34.23 47.3417 34.062 46.7297 34.062C46.3817 34.062 46.0697 34.128 45.7937 34.26C45.5177 34.38 45.2837 34.554 45.0917 34.782C44.8997 34.998 44.7497 35.256 44.6417 35.556C44.5337 35.856 44.4797 36.174 44.4797 36.51V42H42.4277V32.694ZM52.7636 32.694H54.7076V34.062L54.7436 34.098C55.0556 33.582 55.4636 33.18 55.9676 32.892C56.4716 32.592 57.0296 32.442 57.6416 32.442C58.6616 32.442 59.4656 32.706 60.0536 33.234C60.6416 33.762 60.9356 34.554 60.9356 35.61V42H58.8836V36.15C58.8596 35.418 58.7036 34.89 58.4156 34.566C58.1276 34.23 57.6776 34.062 57.0656 34.062C56.7176 34.062 56.4056 34.128 56.1296 34.26C55.8536 34.38 55.6196 34.554 55.4276 34.782C55.2356 34.998 55.0856 35.256 54.9776 35.556C54.8696 35.856 54.8156 36.174 54.8156 36.51V42H52.7636V32.694ZM63.1535 29.148H65.2055V31.092H63.1535V29.148ZM63.1535 32.694H65.2055V42H63.1535V32.694ZM67.4413 32.694H69.3853V34.062L69.4213 34.098C69.7333 33.582 70.1413 33.18 70.6453 32.892C71.1493 32.592 71.7073 32.442 72.3193 32.442C73.3393 32.442 74.1433 32.706 74.7313 33.234C75.3193 33.762 75.6133 34.554 75.6133 35.61V42H73.5613V36.15C73.5373 35.418 73.3813 34.89 73.0933 34.566C72.8053 34.23 72.3553 34.062 71.7433 34.062C71.3953 34.062 71.0833 34.128 70.8073 34.26C70.5313 34.38 70.2973 34.554 70.1053 34.782C69.9133 34.998 69.7633 35.256 69.6553 35.556C69.5473 35.856 69.4933 36.174 69.4933 36.51V42H67.4413V32.694ZM86.3813 41.514C86.3813 42.918 85.9853 43.962 85.1933 44.646C84.4133 45.342 83.2853 45.69 81.8093 45.69C81.3413 45.69 80.8673 45.642 80.3873 45.546C79.9193 45.45 79.4873 45.288 79.0913 45.06C78.7073 44.832 78.3833 44.532 78.1193 44.16C77.8553 43.788 77.6993 43.332 77.6513 42.792H79.7033C79.7633 43.08 79.8653 43.314 80.0093 43.494C80.1533 43.674 80.3213 43.812 80.5133 43.908C80.7173 44.016 80.9393 44.082 81.1793 44.106C81.4193 44.142 81.6713 44.16 81.9353 44.16C82.7633 44.16 83.3693 43.956 83.7533 43.548C84.1373 43.14 84.3293 42.552 84.3293 41.784V40.362H84.2933C84.0053 40.878 83.6093 41.28 83.1053 41.568C82.6133 41.856 82.0793 42 81.5033 42C80.7593 42 80.1233 41.874 79.5953 41.622C79.0793 41.358 78.6473 41.004 78.2993 40.56C77.9633 40.104 77.7173 39.582 77.5613 38.994C77.4053 38.406 77.3273 37.776 77.3273 37.104C77.3273 36.48 77.4233 35.886 77.6153 35.322C77.8073 34.758 78.0833 34.266 78.4433 33.846C78.8033 33.414 79.2413 33.072 79.7573 32.82C80.2853 32.568 80.8793 32.442 81.5393 32.442C82.1273 32.442 82.6673 32.568 83.1593 32.82C83.6513 33.06 84.0293 33.444 84.2933 33.972H84.3293V32.694H86.3813V41.514ZM81.8273 40.38C82.2833 40.38 82.6673 40.29 82.9793 40.11C83.3033 39.918 83.5613 39.672 83.7533 39.372C83.9573 39.06 84.1013 38.712 84.1853 38.328C84.2813 37.932 84.3293 37.536 84.3293 37.14C84.3293 36.744 84.2813 36.36 84.1853 35.988C84.0893 35.616 83.9393 35.286 83.7353 34.998C83.5433 34.71 83.2853 34.482 82.9613 34.314C82.6493 34.146 82.2713 34.062 81.8273 34.062C81.3713 34.062 80.9873 34.158 80.6753 34.35C80.3633 34.542 80.1113 34.794 79.9193 35.106C79.7273 35.406 79.5893 35.754 79.5053 36.15C79.4213 36.534 79.3793 36.918 79.3793 37.302C79.3793 37.686 79.4273 38.064 79.5233 38.436C79.6193 38.796 79.7633 39.12 79.9553 39.408C80.1593 39.696 80.4113 39.93 80.7113 40.11C81.0233 40.29 81.3953 40.38 81.8273 40.38ZM88.6092 39.57H91.1112V42H88.6092V39.57ZM102.223 42H100.279V40.74H100.243C99.967 41.28 99.565 41.67 99.037 41.91C98.509 42.138 97.951 42.252 97.363 42.252C96.631 42.252 95.989 42.126 95.437 41.874C94.897 41.61 94.447 41.256 94.087 40.812C93.727 40.368 93.457 39.846 93.277 39.246C93.097 38.634 93.007 37.98 93.007 37.284C93.007 36.444 93.121 35.718 93.349 35.106C93.577 34.494 93.877 33.99 94.249 33.594C94.633 33.198 95.065 32.91 95.545 32.73C96.037 32.538 96.535 32.442 97.039 32.442C97.327 32.442 97.621 32.472 97.921 32.532C98.221 32.58 98.509 32.664 98.785 32.784C99.061 32.904 99.313 33.06 99.541 33.252C99.781 33.432 99.979 33.648 100.135 33.9H100.171V29.148H102.223V42ZM95.059 37.446C95.059 37.842 95.107 38.232 95.203 38.616C95.311 39 95.467 39.342 95.671 39.642C95.887 39.942 96.157 40.182 96.481 40.362C96.805 40.542 97.189 40.632 97.633 40.632C98.089 40.632 98.479 40.536 98.803 40.344C99.139 40.152 99.409 39.9 99.613 39.588C99.829 39.276 99.985 38.928 100.081 38.544C100.189 38.148 100.243 37.746 100.243 37.338C100.243 36.306 100.009 35.502 99.541 34.926C99.085 34.35 98.461 34.062 97.669 34.062C97.189 34.062 96.781 34.164 96.445 34.368C96.121 34.56 95.851 34.818 95.635 35.142C95.431 35.454 95.281 35.814 95.185 36.222C95.101 36.618 95.059 37.026 95.059 37.446ZM112.255 39.93C112.255 40.182 112.285 40.362 112.345 40.47C112.417 40.578 112.549 40.632 112.741 40.632C112.801 40.632 112.873 40.632 112.957 40.632C113.041 40.632 113.137 40.62 113.245 40.596V42.018C113.173 42.042 113.077 42.066 112.957 42.09C112.849 42.126 112.735 42.156 112.615 42.18C112.495 42.204 112.375 42.222 112.255 42.234C112.135 42.246 112.033 42.252 111.949 42.252C111.529 42.252 111.181 42.168 110.905 42C110.629 41.832 110.449 41.538 110.365 41.118C109.957 41.514 109.453 41.802 108.853 41.982C108.265 42.162 107.695 42.252 107.143 42.252C106.723 42.252 106.321 42.192 105.937 42.072C105.553 41.964 105.211 41.802 104.911 41.586C104.623 41.358 104.389 41.076 104.209 40.74C104.041 40.392 103.957 39.99 103.957 39.534C103.957 38.958 104.059 38.49 104.263 38.13C104.479 37.77 104.755 37.488 105.091 37.284C105.439 37.08 105.823 36.936 106.243 36.852C106.675 36.756 107.107 36.684 107.539 36.636C107.911 36.564 108.265 36.516 108.601 36.492C108.937 36.456 109.231 36.402 109.483 36.33C109.747 36.258 109.951 36.15 110.095 36.006C110.251 35.85 110.329 35.622 110.329 35.322C110.329 35.058 110.263 34.842 110.131 34.674C110.011 34.506 109.855 34.38 109.663 34.296C109.483 34.2 109.279 34.14 109.051 34.116C108.823 34.08 108.607 34.062 108.403 34.062C107.827 34.062 107.353 34.182 106.981 34.422C106.609 34.662 106.399 35.034 106.351 35.538H104.299C104.335 34.938 104.479 34.44 104.731 34.044C104.983 33.648 105.301 33.33 105.685 33.09C106.081 32.85 106.525 32.682 107.017 32.586C107.509 32.49 108.013 32.442 108.529 32.442C108.985 32.442 109.435 32.49 109.879 32.586C110.323 32.682 110.719 32.838 111.067 33.054C111.427 33.27 111.715 33.552 111.931 33.9C112.147 34.236 112.255 34.65 112.255 35.142V39.93ZM110.203 37.338C109.891 37.542 109.507 37.668 109.051 37.716C108.595 37.752 108.139 37.812 107.683 37.896C107.467 37.932 107.257 37.986 107.053 38.058C106.849 38.118 106.669 38.208 106.513 38.328C106.357 38.436 106.231 38.586 106.135 38.778C106.051 38.958 106.009 39.18 106.009 39.444C106.009 39.672 106.075 39.864 106.207 40.02C106.339 40.176 106.495 40.302 106.675 40.398C106.867 40.482 107.071 40.542 107.287 40.578C107.515 40.614 107.719 40.632 107.899 40.632C108.127 40.632 108.373 40.602 108.637 40.542C108.901 40.482 109.147 40.38 109.375 40.236C109.615 40.092 109.813 39.912 109.969 39.696C110.125 39.468 110.203 39.192 110.203 38.868V37.338ZM113.527 32.694H115.075V29.904H117.127V32.694H118.981V34.224H117.127V39.192C117.127 39.408 117.133 39.594 117.145 39.75C117.169 39.906 117.211 40.038 117.271 40.146C117.343 40.254 117.445 40.338 117.577 40.398C117.709 40.446 117.889 40.47 118.117 40.47C118.261 40.47 118.405 40.47 118.549 40.47C118.693 40.458 118.837 40.434 118.981 40.398V41.982C118.753 42.006 118.531 42.03 118.315 42.054C118.099 42.078 117.877 42.09 117.649 42.09C117.109 42.09 116.671 42.042 116.335 41.946C116.011 41.838 115.753 41.688 115.561 41.496C115.381 41.292 115.255 41.04 115.183 40.74C115.123 40.44 115.087 40.098 115.075 39.714V34.224H113.527V32.694ZM128.251 39.93C128.251 40.182 128.281 40.362 128.341 40.47C128.413 40.578 128.545 40.632 128.737 40.632C128.797 40.632 128.869 40.632 128.953 40.632C129.037 40.632 129.133 40.62 129.241 40.596V42.018C129.169 42.042 129.073 42.066 128.953 42.09C128.845 42.126 128.731 42.156 128.611 42.18C128.491 42.204 128.371 42.222 128.251 42.234C128.131 42.246 128.029 42.252 127.945 42.252C127.525 42.252 127.177 42.168 126.901 42C126.625 41.832 126.445 41.538 126.361 41.118C125.953 41.514 125.449 41.802 124.849 41.982C124.261 42.162 123.691 42.252 123.139 42.252C122.719 42.252 122.317 42.192 121.933 42.072C121.549 41.964 121.207 41.802 120.907 41.586C120.619 41.358 120.385 41.076 120.205 40.74C120.037 40.392 119.953 39.99 119.953 39.534C119.953 38.958 120.055 38.49 120.259 38.13C120.475 37.77 120.751 37.488 121.087 37.284C121.435 37.08 121.819 36.936 122.239 36.852C122.671 36.756 123.103 36.684 123.535 36.636C123.907 36.564 124.261 36.516 124.597 36.492C124.933 36.456 125.227 36.402 125.479 36.33C125.743 36.258 125.947 36.15 126.091 36.006C126.247 35.85 126.325 35.622 126.325 35.322C126.325 35.058 126.259 34.842 126.127 34.674C126.007 34.506 125.851 34.38 125.659 34.296C125.479 34.2 125.275 34.14 125.047 34.116C124.819 34.08 124.603 34.062 124.399 34.062C123.823 34.062 123.349 34.182 122.977 34.422C122.605 34.662 122.395 35.034 122.347 35.538H120.295C120.331 34.938 120.475 34.44 120.727 34.044C120.979 33.648 121.297 33.33 121.681 33.09C122.077 32.85 122.521 32.682 123.013 32.586C123.505 32.49 124.009 32.442 124.525 32.442C124.981 32.442 125.431 32.49 125.875 32.586C126.319 32.682 126.715 32.838 127.063 33.054C127.423 33.27 127.711 33.552 127.927 33.9C128.143 34.236 128.251 34.65 128.251 35.142V39.93ZM126.199 37.338C125.887 37.542 125.503 37.668 125.047 37.716C124.591 37.752 124.135 37.812 123.679 37.896C123.463 37.932 123.253 37.986 123.049 38.058C122.845 38.118 122.665 38.208 122.509 38.328C122.353 38.436 122.227 38.586 122.131 38.778C122.047 38.958 122.005 39.18 122.005 39.444C122.005 39.672 122.071 39.864 122.203 40.02C122.335 40.176 122.491 40.302 122.671 40.398C122.863 40.482 123.067 40.542 123.283 40.578C123.511 40.614 123.715 40.632 123.895 40.632C124.123 40.632 124.369 40.602 124.633 40.542C124.897 40.482 125.143 40.38 125.371 40.236C125.611 40.092 125.809 39.912 125.965 39.696C126.121 39.468 126.199 39.192 126.199 38.868V37.338ZM130.621 39.57H133.123V42H130.621V39.57ZM144.073 41.514C144.073 42.918 143.677 43.962 142.885 44.646C142.105 45.342 140.977 45.69 139.501 45.69C139.033 45.69 138.559 45.642 138.079 45.546C137.611 45.45 137.179 45.288 136.783 45.06C136.399 44.832 136.075 44.532 135.811 44.16C135.547 43.788 135.391 43.332 135.343 42.792H137.395C137.455 43.08 137.557 43.314 137.701 43.494C137.845 43.674 138.013 43.812 138.205 43.908C138.409 44.016 138.631 44.082 138.871 44.106C139.111 44.142 139.363 44.16 139.627 44.16C140.455 44.16 141.061 43.956 141.445 43.548C141.829 43.14 142.021 42.552 142.021 41.784V40.362H141.985C141.697 40.878 141.301 41.28 140.797 41.568C140.305 41.856 139.771 42 139.195 42C138.451 42 137.815 41.874 137.287 41.622C136.771 41.358 136.339 41.004 135.991 40.56C135.655 40.104 135.409 39.582 135.253 38.994C135.097 38.406 135.019 37.776 135.019 37.104C135.019 36.48 135.115 35.886 135.307 35.322C135.499 34.758 135.775 34.266 136.135 33.846C136.495 33.414 136.933 33.072 137.449 32.82C137.977 32.568 138.571 32.442 139.231 32.442C139.819 32.442 140.359 32.568 140.851 32.82C141.343 33.06 141.721 33.444 141.985 33.972H142.021V32.694H144.073V41.514ZM139.519 40.38C139.975 40.38 140.359 40.29 140.671 40.11C140.995 39.918 141.253 39.672 141.445 39.372C141.649 39.06 141.793 38.712 141.877 38.328C141.973 37.932 142.021 37.536 142.021 37.14C142.021 36.744 141.973 36.36 141.877 35.988C141.781 35.616 141.631 35.286 141.427 34.998C141.235 34.71 140.977 34.482 140.653 34.314C140.341 34.146 139.963 34.062 139.519 34.062C139.063 34.062 138.679 34.158 138.367 34.35C138.055 34.542 137.803 34.794 137.611 35.106C137.419 35.406 137.281 35.754 137.197 36.15C137.113 36.534 137.071 36.918 137.071 37.302C137.071 37.686 137.119 38.064 137.215 38.436C137.311 38.796 137.455 39.12 137.647 39.408C137.851 39.696 138.103 39.93 138.403 40.11C138.715 40.29 139.087 40.38 139.519 40.38ZM150.405 42.252C149.661 42.252 148.995 42.132 148.407 41.892C147.831 41.64 147.339 41.298 146.931 40.866C146.535 40.434 146.229 39.918 146.013 39.318C145.809 38.718 145.707 38.058 145.707 37.338C145.707 36.63 145.809 35.976 146.013 35.376C146.229 34.776 146.535 34.26 146.931 33.828C147.339 33.396 147.831 33.06 148.407 32.82C148.995 32.568 149.661 32.442 150.405 32.442C151.149 32.442 151.809 32.568 152.385 32.82C152.973 33.06 153.465 33.396 153.861 33.828C154.269 34.26 154.575 34.776 154.779 35.376C154.995 35.976 155.103 36.63 155.103 37.338C155.103 38.058 154.995 38.718 154.779 39.318C154.575 39.918 154.269 40.434 153.861 40.866C153.465 41.298 152.973 41.64 152.385 41.892C151.809 42.132 151.149 42.252 150.405 42.252ZM150.405 40.632C150.861 40.632 151.257 40.536 151.593 40.344C151.929 40.152 152.205 39.9 152.421 39.588C152.637 39.276 152.793 38.928 152.889 38.544C152.997 38.148 153.051 37.746 153.051 37.338C153.051 36.942 152.997 36.546 152.889 36.15C152.793 35.754 152.637 35.406 152.421 35.106C152.205 34.794 151.929 34.542 151.593 34.35C151.257 34.158 150.861 34.062 150.405 34.062C149.949 34.062 149.553 34.158 149.217 34.35C148.881 34.542 148.605 34.794 148.389 35.106C148.173 35.406 148.011 35.754 147.903 36.15C147.807 36.546 147.759 36.942 147.759 37.338C147.759 37.746 147.807 38.148 147.903 38.544C148.011 38.928 148.173 39.276 148.389 39.588C148.605 39.9 148.881 40.152 149.217 40.344C149.553 40.536 149.949 40.632 150.405 40.632ZM155.891 32.694H158.123L160.481 39.84H160.517L162.785 32.694H164.909L161.579 42H159.275L155.891 32.694ZM164.969 39.57H167.471V42H164.969V39.57ZM177.988 42H175.972V40.704H175.936C175.684 41.172 175.306 41.55 174.802 41.838C174.31 42.114 173.806 42.252 173.29 42.252C172.066 42.252 171.178 41.952 170.626 41.352C170.086 40.74 169.816 39.822 169.816 38.598V32.694H171.868V38.4C171.868 39.216 172.024 39.792 172.336 40.128C172.648 40.464 173.086 40.632 173.65 40.632C174.082 40.632 174.442 40.566 174.73 40.434C175.018 40.302 175.252 40.128 175.432 39.912C175.612 39.684 175.738 39.414 175.81 39.102C175.894 38.79 175.936 38.454 175.936 38.094V32.694H177.988V42ZM180.206 29.148H182.258V36.456L185.966 32.694H188.486L184.922 36.114L188.828 42H186.326L183.482 37.482L182.258 38.67V42H180.206V29.148Z" fill="white"/>
<circle cx="12" cy="10" r="4" fill="white"/>
<circle cx="23" cy="10" r="4" fill="white"/>
<circle cx="34" cy="10" r="4" fill="white"/>
<path d="M20.068 70.196H22.264C22.588 70.196 22.9 70.172 23.2 70.124C23.5 70.076 23.764 69.986 23.992 69.854C24.22 69.71 24.4 69.512 24.532 69.26C24.676 69.008 24.748 68.678 24.748 68.27C24.748 67.862 24.676 67.532 24.532 67.28C24.4 67.028 24.22 66.836 23.992 66.704C23.764 66.56 23.5 66.464 23.2 66.416C22.9 66.368 22.588 66.344 22.264 66.344H20.068V70.196ZM17.242 64.148H23.038C23.842 64.148 24.526 64.268 25.09 64.508C25.654 64.736 26.11 65.042 26.458 65.426C26.818 65.81 27.076 66.248 27.232 66.74C27.4 67.232 27.484 67.742 27.484 68.27C27.484 68.786 27.4 69.296 27.232 69.8C27.076 70.292 26.818 70.73 26.458 71.114C26.11 71.498 25.654 71.81 25.09 72.05C24.526 72.278 23.842 72.392 23.038 72.392H20.068V77H17.242V64.148ZM29.0499 64.148H31.6059V77H29.0499V64.148ZM33.5105 70.556C33.5465 69.956 33.6965 69.458 33.9605 69.062C34.2245 68.666 34.5605 68.348 34.9685 68.108C35.3765 67.868 35.8325 67.7 36.3365 67.604C36.8525 67.496 37.3685 67.442 37.8845 67.442C38.3525 67.442 38.8265 67.478 39.3065 67.55C39.7865 67.61 40.2245 67.736 40.6205 67.928C41.0165 68.12 41.3405 68.39 41.5925 68.738C41.8445 69.074 41.9705 69.524 41.9705 70.088V74.93C41.9705 75.35 41.9945 75.752 42.0425 76.136C42.0905 76.52 42.1745 76.808 42.2945 77H39.7025C39.6545 76.856 39.6125 76.712 39.5765 76.568C39.5525 76.412 39.5345 76.256 39.5225 76.1C39.1145 76.52 38.6345 76.814 38.0825 76.982C37.5305 77.15 36.9665 77.234 36.3905 77.234C35.9465 77.234 35.5325 77.18 35.1485 77.072C34.7645 76.964 34.4285 76.796 34.1405 76.568C33.8525 76.34 33.6245 76.052 33.4565 75.704C33.3005 75.356 33.2225 74.942 33.2225 74.462C33.2225 73.934 33.3125 73.502 33.4925 73.166C33.6845 72.818 33.9245 72.542 34.2125 72.338C34.5125 72.134 34.8485 71.984 35.2205 71.888C35.6045 71.78 35.9885 71.696 36.3725 71.636C36.7565 71.576 37.1345 71.528 37.5065 71.492C37.8785 71.456 38.2085 71.402 38.4965 71.33C38.7845 71.258 39.0125 71.156 39.1805 71.024C39.3485 70.88 39.4265 70.676 39.4145 70.412C39.4145 70.136 39.3665 69.92 39.2705 69.764C39.1865 69.596 39.0665 69.47 38.9105 69.386C38.7665 69.29 38.5925 69.23 38.3885 69.206C38.1965 69.17 37.9865 69.152 37.7585 69.152C37.2545 69.152 36.8585 69.26 36.5705 69.476C36.2825 69.692 36.1145 70.052 36.0665 70.556H33.5105ZM39.4145 72.446C39.3065 72.542 39.1685 72.62 39.0005 72.68C38.8445 72.728 38.6705 72.77 38.4785 72.806C38.2985 72.842 38.1065 72.872 37.9025 72.896C37.6985 72.92 37.4945 72.95 37.2905 72.986C37.0985 73.022 36.9065 73.07 36.7145 73.13C36.5345 73.19 36.3725 73.274 36.2285 73.382C36.0965 73.478 35.9885 73.604 35.9045 73.76C35.8205 73.916 35.7785 74.114 35.7785 74.354C35.7785 74.582 35.8205 74.774 35.9045 74.93C35.9885 75.086 36.1025 75.212 36.2465 75.308C36.3905 75.392 36.5585 75.452 36.7505 75.488C36.9425 75.524 37.1405 75.542 37.3445 75.542C37.8485 75.542 38.2385 75.458 38.5145 75.29C38.7905 75.122 38.9945 74.924 39.1265 74.696C39.2585 74.456 39.3365 74.216 39.3605 73.976C39.3965 73.736 39.4145 73.544 39.4145 73.4V72.446ZM43.9544 67.694H46.3844V68.99H46.4384C46.7624 68.45 47.1824 68.06 47.6984 67.82C48.2144 67.568 48.7424 67.442 49.2824 67.442C49.9664 67.442 50.5244 67.538 50.9564 67.73C51.4004 67.91 51.7484 68.168 52.0004 68.504C52.2524 68.828 52.4264 69.23 52.5224 69.71C52.6304 70.178 52.6844 70.7 52.6844 71.276V77H50.1284V71.744C50.1284 70.976 50.0084 70.406 49.7684 70.034C49.5284 69.65 49.1024 69.458 48.4904 69.458C47.7944 69.458 47.2904 69.668 46.9784 70.088C46.6664 70.496 46.5104 71.174 46.5104 72.122V77H43.9544V67.694ZM54.6243 67.694H57.0543V68.99H57.1083C57.4323 68.45 57.8523 68.06 58.3683 67.82C58.8843 67.568 59.4123 67.442 59.9523 67.442C60.6363 67.442 61.1943 67.538 61.6263 67.73C62.0703 67.91 62.4183 68.168 62.6703 68.504C62.9223 68.828 63.0963 69.23 63.1923 69.71C63.3003 70.178 63.3543 70.7 63.3543 71.276V77H60.7983V71.744C60.7983 70.976 60.6783 70.406 60.4383 70.034C60.1983 69.65 59.7723 69.458 59.1603 69.458C58.4643 69.458 57.9603 69.668 57.6483 70.088C57.3363 70.496 57.1803 71.174 57.1803 72.122V77H54.6243V67.694ZM67.9223 66.254H65.3663V64.148H67.9223V66.254ZM65.3663 67.694H67.9223V77H65.3663V67.694ZM69.9349 67.694H72.3649V68.99H72.4189C72.7429 68.45 73.1629 68.06 73.6789 67.82C74.1949 67.568 74.7229 67.442 75.2629 67.442C75.9469 67.442 76.5049 67.538 76.9369 67.73C77.3809 67.91 77.7289 68.168 77.9809 68.504C78.2329 68.828 78.4069 69.23 78.5029 69.71C78.6109 70.178 78.6649 70.7 78.6649 71.276V77H76.1089V71.744C76.1089 70.976 75.9889 70.406 75.7489 70.034C75.5089 69.65 75.0829 69.458 74.4709 69.458C73.7749 69.458 73.2709 69.668 72.9589 70.088C72.6469 70.496 72.4909 71.174 72.4909 72.122V77H69.9349V67.694ZM84.9428 74.804C85.3028 74.804 85.6208 74.732 85.8968 74.588C86.1728 74.444 86.4008 74.252 86.5808 74.012C86.7608 73.772 86.8928 73.502 86.9768 73.202C87.0728 72.89 87.1208 72.566 87.1208 72.23C87.1208 71.846 87.0848 71.486 87.0128 71.15C86.9408 70.802 86.8208 70.496 86.6528 70.232C86.4848 69.968 86.2628 69.758 85.9868 69.602C85.7108 69.446 85.3628 69.368 84.9428 69.368C84.5828 69.368 84.2708 69.44 84.0068 69.584C83.7548 69.728 83.5388 69.926 83.3588 70.178C83.1908 70.418 83.0648 70.7 82.9808 71.024C82.9088 71.336 82.8728 71.666 82.8728 72.014C82.8728 72.35 82.9028 72.686 82.9628 73.022C83.0348 73.346 83.1488 73.64 83.3048 73.904C83.4728 74.168 83.6888 74.384 83.9528 74.552C84.2168 74.72 84.5468 74.804 84.9428 74.804ZM89.5508 76.406C89.5508 76.778 89.4968 77.204 89.3888 77.684C89.2928 78.164 89.0768 78.608 88.7408 79.016C88.4048 79.436 87.9188 79.79 87.2828 80.078C86.6468 80.366 85.7948 80.51 84.7268 80.51C84.2708 80.51 83.8028 80.45 83.3228 80.33C82.8548 80.222 82.4228 80.048 82.0268 79.808C81.6428 79.568 81.3188 79.256 81.0548 78.872C80.8028 78.5 80.6588 78.05 80.6228 77.522H83.1608C83.2808 78.002 83.5148 78.332 83.8628 78.512C84.2108 78.704 84.6128 78.8 85.0688 78.8C85.7888 78.8 86.3108 78.584 86.6348 78.152C86.9708 77.72 87.1328 77.174 87.1208 76.514V75.29H87.0848C86.8088 75.782 86.4128 76.148 85.8968 76.388C85.3928 76.616 84.8588 76.73 84.2948 76.73C83.5988 76.73 82.9988 76.61 82.4948 76.37C81.9908 76.118 81.5768 75.782 81.2528 75.362C80.9288 74.93 80.6888 74.432 80.5328 73.868C80.3888 73.292 80.3168 72.686 80.3168 72.05C80.3168 71.45 80.4008 70.874 80.5688 70.322C80.7488 69.758 81.0068 69.266 81.3428 68.846C81.6788 68.414 82.0928 68.072 82.5848 67.82C83.0888 67.568 83.6648 67.442 84.3128 67.442C84.9248 67.442 85.4588 67.556 85.9148 67.784C86.3828 68.012 86.7728 68.396 87.0848 68.936H87.1208V67.694H89.5508V76.406ZM102.954 70.97C102.786 69.902 102.156 69.368 101.064 69.368C100.656 69.368 100.314 69.464 100.038 69.656C99.7625 69.836 99.5345 70.076 99.3545 70.376C99.1865 70.664 99.0665 70.988 98.9945 71.348C98.9225 71.696 98.8865 72.044 98.8865 72.392C98.8865 72.728 98.9225 73.07 98.9945 73.418C99.0665 73.766 99.1805 74.084 99.3365 74.372C99.5045 74.648 99.7265 74.876 100.002 75.056C100.278 75.236 100.614 75.326 101.01 75.326C101.622 75.326 102.09 75.158 102.414 74.822C102.75 74.474 102.96 74.012 103.044 73.436H105.51C105.342 74.672 104.862 75.614 104.07 76.262C103.278 76.91 102.264 77.234 101.028 77.234C100.332 77.234 99.6905 77.12 99.1025 76.892C98.5265 76.652 98.0345 76.322 97.6265 75.902C97.2185 75.482 96.9005 74.984 96.6725 74.408C96.4445 73.82 96.3305 73.178 96.3305 72.482C96.3305 71.762 96.4325 71.096 96.6365 70.484C96.8525 69.86 97.1645 69.326 97.5725 68.882C97.9805 68.426 98.4785 68.072 99.0665 67.82C99.6545 67.568 100.326 67.442 101.082 67.442C101.634 67.442 102.162 67.514 102.666 67.658C103.182 67.802 103.638 68.024 104.034 68.324C104.442 68.612 104.772 68.978 105.024 69.422C105.276 69.854 105.42 70.37 105.456 70.97H102.954ZM109.222 72.356C109.222 72.728 109.258 73.094 109.33 73.454C109.402 73.802 109.522 74.12 109.69 74.408C109.87 74.684 110.104 74.906 110.392 75.074C110.68 75.242 111.04 75.326 111.472 75.326C111.904 75.326 112.264 75.242 112.552 75.074C112.852 74.906 113.086 74.684 113.254 74.408C113.434 74.12 113.56 73.802 113.632 73.454C113.704 73.094 113.74 72.728 113.74 72.356C113.74 71.984 113.704 71.618 113.632 71.258C113.56 70.898 113.434 70.58 113.254 70.304C113.086 70.028 112.852 69.806 112.552 69.638C112.264 69.458 111.904 69.368 111.472 69.368C111.04 69.368 110.68 69.458 110.392 69.638C110.104 69.806 109.87 70.028 109.69 70.304C109.522 70.58 109.402 70.898 109.33 71.258C109.258 71.618 109.222 71.984 109.222 72.356ZM106.666 72.356C106.666 71.612 106.78 70.94 107.008 70.34C107.236 69.728 107.56 69.212 107.98 68.792C108.4 68.36 108.904 68.03 109.492 67.802C110.08 67.562 110.74 67.442 111.472 67.442C112.204 67.442 112.864 67.562 113.452 67.802C114.052 68.03 114.562 68.36 114.982 68.792C115.402 69.212 115.726 69.728 115.954 70.34C116.182 70.94 116.296 71.612 116.296 72.356C116.296 73.1 116.182 73.772 115.954 74.372C115.726 74.972 115.402 75.488 114.982 75.92C114.562 76.34 114.052 76.664 113.452 76.892C112.864 77.12 112.204 77.234 111.472 77.234C110.74 77.234 110.08 77.12 109.492 76.892C108.904 76.664 108.4 76.34 107.98 75.92C107.56 75.488 107.236 74.972 107.008 74.372C106.78 73.772 106.666 73.1 106.666 72.356ZM117.958 67.694H120.388V68.99H120.442C120.766 68.45 121.186 68.06 121.702 67.82C122.218 67.568 122.746 67.442 123.286 67.442C123.97 67.442 124.528 67.538 124.96 67.73C125.404 67.91 125.752 68.168 126.004 68.504C126.256 68.828 126.43 69.23 126.526 69.71C126.634 70.178 126.688 70.7 126.688 71.276V77H124.132V71.744C124.132 70.976 124.012 70.406 123.772 70.034C123.532 69.65 123.106 69.458 122.494 69.458C121.798 69.458 121.294 69.668 120.982 70.088C120.67 70.496 120.514 71.174 120.514 72.122V77H117.958V67.694ZM135.234 72.32C135.234 71.936 135.198 71.57 135.126 71.222C135.054 70.862 134.928 70.55 134.748 70.286C134.58 70.01 134.358 69.788 134.082 69.62C133.806 69.452 133.458 69.368 133.038 69.368C132.618 69.368 132.264 69.452 131.976 69.62C131.688 69.788 131.454 70.01 131.274 70.286C131.106 70.562 130.98 70.88 130.896 71.24C130.824 71.588 130.788 71.954 130.788 72.338C130.788 72.698 130.83 73.058 130.914 73.418C130.998 73.778 131.13 74.102 131.31 74.39C131.502 74.666 131.736 74.894 132.012 75.074C132.3 75.242 132.642 75.326 133.038 75.326C133.458 75.326 133.806 75.242 134.082 75.074C134.37 74.906 134.598 74.684 134.766 74.408C134.934 74.12 135.054 73.796 135.126 73.436C135.198 73.076 135.234 72.704 135.234 72.32ZM135.27 75.812H135.234C134.934 76.316 134.538 76.682 134.046 76.91C133.566 77.126 133.02 77.234 132.408 77.234C131.712 77.234 131.1 77.102 130.572 76.838C130.044 76.562 129.606 76.196 129.258 75.74C128.922 75.272 128.664 74.738 128.484 74.138C128.316 73.538 128.232 72.914 128.232 72.266C128.232 71.642 128.316 71.042 128.484 70.466C128.664 69.878 128.922 69.362 129.258 68.918C129.606 68.474 130.038 68.12 130.554 67.856C131.07 67.58 131.67 67.442 132.354 67.442C132.906 67.442 133.428 67.562 133.92 67.802C134.424 68.03 134.82 68.372 135.108 68.828H135.144V64.148H137.7V77H135.27V75.812ZM142.26 66.254H139.704V64.148H142.26V66.254ZM139.704 67.694H142.26V77H139.704V67.694ZM147.513 67.694H149.385V69.404H147.513V74.012C147.513 74.444 147.585 74.732 147.729 74.876C147.873 75.02 148.161 75.092 148.593 75.092C148.737 75.092 148.875 75.086 149.007 75.074C149.139 75.062 149.265 75.044 149.385 75.02V77C149.169 77.036 148.929 77.06 148.665 77.072C148.401 77.084 148.143 77.09 147.891 77.09C147.495 77.09 147.117 77.06 146.757 77C146.409 76.952 146.097 76.85 145.821 76.694C145.557 76.538 145.347 76.316 145.191 76.028C145.035 75.74 144.957 75.362 144.957 74.894V69.404H143.409V67.694H144.957V64.904H147.513V67.694ZM153.229 66.254H150.673V64.148H153.229V66.254ZM150.673 67.694H153.229V77H150.673V67.694ZM157.51 72.356C157.51 72.728 157.546 73.094 157.618 73.454C157.69 73.802 157.81 74.12 157.978 74.408C158.158 74.684 158.392 74.906 158.68 75.074C158.968 75.242 159.328 75.326 159.76 75.326C160.192 75.326 160.552 75.242 160.84 75.074C161.14 74.906 161.374 74.684 161.542 74.408C161.722 74.12 161.848 73.802 161.92 73.454C161.992 73.094 162.028 72.728 162.028 72.356C162.028 71.984 161.992 71.618 161.92 71.258C161.848 70.898 161.722 70.58 161.542 70.304C161.374 70.028 161.14 69.806 160.84 69.638C160.552 69.458 160.192 69.368 159.76 69.368C159.328 69.368 158.968 69.458 158.68 69.638C158.392 69.806 158.158 70.028 157.978 70.304C157.81 70.58 157.69 70.898 157.618 71.258C157.546 71.618 157.51 71.984 157.51 72.356ZM154.954 72.356C154.954 71.612 155.068 70.94 155.296 70.34C155.524 69.728 155.848 69.212 156.268 68.792C156.688 68.36 157.192 68.03 157.78 67.802C158.368 67.562 159.028 67.442 159.76 67.442C160.492 67.442 161.152 67.562 161.74 67.802C162.34 68.03 162.85 68.36 163.27 68.792C163.69 69.212 164.014 69.728 164.242 70.34C164.47 70.94 164.584 71.612 164.584 72.356C164.584 73.1 164.47 73.772 164.242 74.372C164.014 74.972 163.69 75.488 163.27 75.92C162.85 76.34 162.34 76.664 161.74 76.892C161.152 77.12 160.492 77.234 159.76 77.234C159.028 77.234 158.368 77.12 157.78 76.892C157.192 76.664 156.688 76.34 156.268 75.92C155.848 75.488 155.524 74.972 155.296 74.372C155.068 73.772 154.954 73.1 154.954 72.356ZM166.245 67.694H168.675V68.99H168.729C169.053 68.45 169.473 68.06 169.989 67.82C170.505 67.568 171.033 67.442 171.573 67.442C172.257 67.442 172.815 67.538 173.247 67.73C173.691 67.91 174.039 68.168 174.291 68.504C174.543 68.828 174.717 69.23 174.813 69.71C174.921 70.178 174.975 70.7 174.975 71.276V77H172.419V71.744C172.419 70.976 172.299 70.406 172.059 70.034C171.819 69.65 171.393 69.458 170.781 69.458C170.085 69.458 169.581 69.668 169.269 70.088C168.957 70.496 168.801 71.174 168.801 72.122V77H166.245V67.694ZM178.895 73.976C178.895 74.252 178.949 74.492 179.057 74.696C179.177 74.888 179.327 75.05 179.507 75.182C179.687 75.302 179.891 75.392 180.119 75.452C180.359 75.512 180.605 75.542 180.857 75.542C181.037 75.542 181.223 75.524 181.415 75.488C181.619 75.44 181.799 75.374 181.955 75.29C182.123 75.194 182.261 75.074 182.369 74.93C182.477 74.774 182.531 74.582 182.531 74.354C182.531 73.97 182.273 73.682 181.757 73.49C181.253 73.298 180.545 73.106 179.633 72.914C179.261 72.83 178.895 72.734 178.535 72.626C178.187 72.506 177.875 72.356 177.599 72.176C177.323 71.984 177.101 71.75 176.933 71.474C176.765 71.186 176.681 70.838 176.681 70.43C176.681 69.83 176.795 69.338 177.023 68.954C177.263 68.57 177.575 68.27 177.959 68.054C178.343 67.826 178.775 67.67 179.255 67.586C179.735 67.49 180.227 67.442 180.731 67.442C181.235 67.442 181.721 67.49 182.189 67.586C182.669 67.682 183.095 67.844 183.467 68.072C183.839 68.3 184.145 68.606 184.385 68.99C184.637 69.362 184.787 69.836 184.835 70.412H182.405C182.369 69.92 182.183 69.59 181.847 69.422C181.511 69.242 181.115 69.152 180.659 69.152C180.515 69.152 180.359 69.164 180.191 69.188C180.023 69.2 179.867 69.236 179.723 69.296C179.591 69.356 179.477 69.446 179.381 69.566C179.285 69.674 179.237 69.824 179.237 70.016C179.237 70.244 179.321 70.43 179.489 70.574C179.657 70.718 179.873 70.838 180.137 70.934C180.413 71.018 180.725 71.096 181.073 71.168C181.421 71.24 181.775 71.318 182.135 71.402C182.507 71.486 182.867 71.588 183.215 71.708C183.575 71.828 183.893 71.99 184.169 72.194C184.445 72.386 184.667 72.632 184.835 72.932C185.003 73.22 185.087 73.58 185.087 74.012C185.087 74.624 184.961 75.14 184.709 75.56C184.469 75.968 184.151 76.298 183.755 76.55C183.359 76.802 182.903 76.976 182.387 77.072C181.883 77.18 181.367 77.234 180.839 77.234C180.299 77.234 179.771 77.18 179.255 77.072C178.739 76.964 178.277 76.784 177.869 76.532C177.473 76.28 177.143 75.95 176.879 75.542C176.627 75.122 176.489 74.6 176.465 73.976H178.895Z" fill="black"/>
<path d="M18.712 166.416H20.392C20.664 166.416 20.928 166.372 21.184 166.284C21.44 166.196 21.668 166.052 21.868 165.852C22.068 165.644 22.228 165.376 22.348 165.048C22.468 164.72 22.528 164.32 22.528 163.848C22.528 163.416 22.484 163.028 22.396 162.684C22.316 162.332 22.18 162.032 21.988 161.784C21.796 161.536 21.54 161.348 21.22 161.22C20.908 161.084 20.52 161.016 20.056 161.016H18.712V166.416ZM16.828 159.432H20.524C21.076 159.432 21.588 159.52 22.06 159.696C22.54 159.872 22.952 160.136 23.296 160.488C23.648 160.84 23.92 161.28 24.112 161.808C24.312 162.336 24.412 162.956 24.412 163.668C24.412 164.292 24.332 164.868 24.172 165.396C24.012 165.924 23.768 166.38 23.44 166.764C23.12 167.148 22.716 167.452 22.228 167.676C21.748 167.892 21.18 168 20.524 168H16.828V159.432ZM29.7185 164.232C29.6385 163.8 29.4945 163.472 29.2865 163.248C29.0865 163.024 28.7785 162.912 28.3625 162.912C28.0905 162.912 27.8625 162.96 27.6785 163.056C27.5025 163.144 27.3585 163.256 27.2465 163.392C27.1425 163.528 27.0665 163.672 27.0185 163.824C26.9785 163.976 26.9545 164.112 26.9465 164.232H29.7185ZM26.9465 165.312C26.9705 165.864 27.1105 166.264 27.3665 166.512C27.6225 166.76 27.9905 166.884 28.4705 166.884C28.8145 166.884 29.1105 166.8 29.3585 166.632C29.6065 166.456 29.7585 166.272 29.8145 166.08H31.3145C31.0745 166.824 30.7065 167.356 30.2105 167.676C29.7145 167.996 29.1145 168.156 28.4105 168.156C27.9225 168.156 27.4825 168.08 27.0905 167.928C26.6985 167.768 26.3665 167.544 26.0945 167.256C25.8225 166.968 25.6105 166.624 25.4585 166.224C25.3145 165.824 25.2425 165.384 25.2425 164.904C25.2425 164.44 25.3185 164.008 25.4705 163.608C25.6225 163.208 25.8385 162.864 26.1185 162.576C26.3985 162.28 26.7305 162.048 27.1145 161.88C27.5065 161.712 27.9385 161.628 28.4105 161.628C28.9385 161.628 29.3985 161.732 29.7905 161.94C30.1825 162.14 30.5025 162.412 30.7505 162.756C31.0065 163.1 31.1905 163.492 31.3025 163.932C31.4145 164.372 31.4545 164.832 31.4225 165.312H26.9465ZM34.5932 161.796H35.8412V162.936H34.5932V166.008C34.5932 166.296 34.6412 166.488 34.7372 166.584C34.8332 166.68 35.0252 166.728 35.3132 166.728C35.4092 166.728 35.5012 166.724 35.5892 166.716C35.6772 166.708 35.7612 166.696 35.8412 166.68V168C35.6972 168.024 35.5372 168.04 35.3612 168.048C35.1852 168.056 35.0132 168.06 34.8452 168.06C34.5812 168.06 34.3292 168.04 34.0892 168C33.8572 167.968 33.6492 167.9 33.4652 167.796C33.2892 167.692 33.1492 167.544 33.0452 167.352C32.9412 167.16 32.8892 166.908 32.8892 166.596V162.936H31.8572V161.796H32.8892V159.936H34.5932V161.796ZM36.5799 163.704C36.6039 163.304 36.7039 162.972 36.8799 162.708C37.0559 162.444 37.2799 162.232 37.5519 162.072C37.8239 161.912 38.1279 161.8 38.4639 161.736C38.8079 161.664 39.1519 161.628 39.4959 161.628C39.8079 161.628 40.1239 161.652 40.4439 161.7C40.7639 161.74 41.0559 161.824 41.3199 161.952C41.5839 162.08 41.7999 162.26 41.9679 162.492C42.1359 162.716 42.2199 163.016 42.2199 163.392V166.62C42.2199 166.9 42.2359 167.168 42.2679 167.424C42.2999 167.68 42.3559 167.872 42.4359 168H40.7079C40.6759 167.904 40.6479 167.808 40.6239 167.712C40.6079 167.608 40.5959 167.504 40.5879 167.4C40.3159 167.68 39.9959 167.876 39.6279 167.988C39.2599 168.1 38.8839 168.156 38.4999 168.156C38.2039 168.156 37.9279 168.12 37.6719 168.048C37.4159 167.976 37.1919 167.864 36.9999 167.712C36.8079 167.56 36.6559 167.368 36.5439 167.136C36.4399 166.904 36.3879 166.628 36.3879 166.308C36.3879 165.956 36.4479 165.668 36.5679 165.444C36.6959 165.212 36.8559 165.028 37.0479 164.892C37.2479 164.756 37.4719 164.656 37.7199 164.592C37.9759 164.52 38.2319 164.464 38.4879 164.424C38.7439 164.384 38.9959 164.352 39.2439 164.328C39.4919 164.304 39.7119 164.268 39.9039 164.22C40.0959 164.172 40.2479 164.104 40.3599 164.016C40.4719 163.92 40.5239 163.784 40.5159 163.608C40.5159 163.424 40.4839 163.28 40.4199 163.176C40.3639 163.064 40.2839 162.98 40.1799 162.924C40.0839 162.86 39.9679 162.82 39.8319 162.804C39.7039 162.78 39.5639 162.768 39.4119 162.768C39.0759 162.768 38.8119 162.84 38.6199 162.984C38.4279 163.128 38.3159 163.368 38.2839 163.704H36.5799ZM40.5159 164.964C40.4439 165.028 40.3519 165.08 40.2399 165.12C40.1359 165.152 40.0199 165.18 39.8919 165.204C39.7719 165.228 39.6439 165.248 39.5079 165.264C39.3719 165.28 39.2359 165.3 39.0999 165.324C38.9719 165.348 38.8439 165.38 38.7159 165.42C38.5959 165.46 38.4879 165.516 38.3919 165.588C38.3039 165.652 38.2319 165.736 38.1759 165.84C38.1199 165.944 38.0919 166.076 38.0919 166.236C38.0919 166.388 38.1199 166.516 38.1759 166.62C38.2319 166.724 38.3079 166.808 38.4039 166.872C38.4999 166.928 38.6119 166.968 38.7399 166.992C38.8679 167.016 38.9999 167.028 39.1359 167.028C39.4719 167.028 39.7319 166.972 39.9159 166.86C40.0999 166.748 40.2359 166.616 40.3239 166.464C40.4119 166.304 40.4639 166.144 40.4799 165.984C40.5039 165.824 40.5159 165.696 40.5159 165.6V164.964ZM45.2945 160.836H43.5905V159.432H45.2945V160.836ZM43.5905 161.796H45.2945V168H43.5905V161.796ZM46.6843 159.432H48.3883V168H46.6843V159.432ZM51.05 165.984C51.05 166.168 51.086 166.328 51.158 166.464C51.238 166.592 51.338 166.7 51.458 166.788C51.578 166.868 51.714 166.928 51.866 166.968C52.026 167.008 52.19 167.028 52.358 167.028C52.478 167.028 52.602 167.016 52.73 166.992C52.866 166.96 52.986 166.916 53.09 166.86C53.202 166.796 53.294 166.716 53.366 166.62C53.438 166.516 53.474 166.388 53.474 166.236C53.474 165.98 53.302 165.788 52.958 165.66C52.622 165.532 52.15 165.404 51.542 165.276C51.294 165.22 51.05 165.156 50.81 165.084C50.578 165.004 50.37 164.904 50.186 164.784C50.002 164.656 49.854 164.5 49.742 164.316C49.63 164.124 49.574 163.892 49.574 163.62C49.574 163.22 49.65 162.892 49.802 162.636C49.962 162.38 50.17 162.18 50.426 162.036C50.682 161.884 50.97 161.78 51.29 161.724C51.61 161.66 51.938 161.628 52.274 161.628C52.61 161.628 52.934 161.66 53.246 161.724C53.566 161.788 53.85 161.896 54.098 162.048C54.346 162.2 54.55 162.404 54.71 162.66C54.878 162.908 54.978 163.224 55.01 163.608H53.39C53.366 163.28 53.242 163.06 53.018 162.948C52.794 162.828 52.53 162.768 52.226 162.768C52.13 162.768 52.026 162.776 51.914 162.792C51.802 162.8 51.698 162.824 51.602 162.864C51.514 162.904 51.438 162.964 51.374 163.044C51.31 163.116 51.278 163.216 51.278 163.344C51.278 163.496 51.334 163.62 51.446 163.716C51.558 163.812 51.702 163.892 51.878 163.956C52.062 164.012 52.27 164.064 52.502 164.112C52.734 164.16 52.97 164.212 53.21 164.268C53.458 164.324 53.698 164.392 53.93 164.472C54.17 164.552 54.382 164.66 54.566 164.796C54.75 164.924 54.898 165.088 55.01 165.288C55.122 165.48 55.178 165.72 55.178 166.008C55.178 166.416 55.094 166.76 54.926 167.04C54.766 167.312 54.554 167.532 54.29 167.7C54.026 167.868 53.722 167.984 53.378 168.048C53.042 168.12 52.698 168.156 52.346 168.156C51.986 168.156 51.634 168.12 51.29 168.048C50.946 167.976 50.638 167.856 50.366 167.688C50.102 167.52 49.882 167.3 49.706 167.028C49.538 166.748 49.446 166.4 49.43 165.984H51.05Z" fill="black"/>
<rect x="19" y="94" width="258" height="9" fill="#B0B0B0"/>
<rect x="19" y="114" width="319" height="9" fill="#B0B0B0"/>
<rect x="19" y="134" width="205" height="9" fill="#B0B0B0"/>
<rect x="16" y="183" width="258" height="9" fill="#B0B0B0"/>
<rect x="16" y="203" width="319" height="9" fill="#B0B0B0"/>
<rect x="16" y="223" width="205" height="9" fill="#B0B0B0"/>
<path d="M18.712 255.416H20.392C20.664 255.416 20.928 255.372 21.184 255.284C21.44 255.196 21.668 255.052 21.868 254.852C22.068 254.644 22.228 254.376 22.348 254.048C22.468 253.72 22.528 253.32 22.528 252.848C22.528 252.416 22.484 252.028 22.396 251.684C22.316 251.332 22.18 251.032 21.988 250.784C21.796 250.536 21.54 250.348 21.22 250.22C20.908 250.084 20.52 250.016 20.056 250.016H18.712V255.416ZM16.828 248.432H20.524C21.076 248.432 21.588 248.52 22.06 248.696C22.54 248.872 22.952 249.136 23.296 249.488C23.648 249.84 23.92 250.28 24.112 250.808C24.312 251.336 24.412 251.956 24.412 252.668C24.412 253.292 24.332 253.868 24.172 254.396C24.012 254.924 23.768 255.38 23.44 255.764C23.12 256.148 22.716 256.452 22.228 256.676C21.748 256.892 21.18 257 20.524 257H16.828V248.432ZM27.2945 249.836H25.5905V248.432H27.2945V249.836ZM25.5905 250.796H27.2945V257H25.5905V250.796ZM29.9563 254.984C29.9563 255.168 29.9923 255.328 30.0643 255.464C30.1443 255.592 30.2443 255.7 30.3643 255.788C30.4843 255.868 30.6203 255.928 30.7723 255.968C30.9323 256.008 31.0963 256.028 31.2643 256.028C31.3843 256.028 31.5083 256.016 31.6363 255.992C31.7723 255.96 31.8923 255.916 31.9963 255.86C32.1083 255.796 32.2003 255.716 32.2723 255.62C32.3443 255.516 32.3803 255.388 32.3803 255.236C32.3803 254.98 32.2083 254.788 31.8643 254.66C31.5283 254.532 31.0563 254.404 30.4483 254.276C30.2003 254.22 29.9563 254.156 29.7163 254.084C29.4843 254.004 29.2763 253.904 29.0923 253.784C28.9083 253.656 28.7603 253.5 28.6483 253.316C28.5363 253.124 28.4803 252.892 28.4803 252.62C28.4803 252.22 28.5563 251.892 28.7083 251.636C28.8683 251.38 29.0763 251.18 29.3323 251.036C29.5883 250.884 29.8763 250.78 30.1963 250.724C30.5163 250.66 30.8443 250.628 31.1803 250.628C31.5163 250.628 31.8403 250.66 32.1523 250.724C32.4723 250.788 32.7563 250.896 33.0043 251.048C33.2523 251.2 33.4563 251.404 33.6163 251.66C33.7843 251.908 33.8843 252.224 33.9163 252.608H32.2963C32.2723 252.28 32.1483 252.06 31.9243 251.948C31.7003 251.828 31.4363 251.768 31.1323 251.768C31.0363 251.768 30.9323 251.776 30.8203 251.792C30.7083 251.8 30.6043 251.824 30.5083 251.864C30.4203 251.904 30.3443 251.964 30.2803 252.044C30.2163 252.116 30.1843 252.216 30.1843 252.344C30.1843 252.496 30.2403 252.62 30.3523 252.716C30.4643 252.812 30.6083 252.892 30.7843 252.956C30.9683 253.012 31.1763 253.064 31.4083 253.112C31.6403 253.16 31.8763 253.212 32.1163 253.268C32.3643 253.324 32.6043 253.392 32.8363 253.472C33.0763 253.552 33.2883 253.66 33.4723 253.796C33.6563 253.924 33.8043 254.088 33.9163 254.288C34.0283 254.48 34.0843 254.72 34.0843 255.008C34.0843 255.416 34.0003 255.76 33.8323 256.04C33.6723 256.312 33.4603 256.532 33.1963 256.7C32.9323 256.868 32.6283 256.984 32.2843 257.048C31.9483 257.12 31.6043 257.156 31.2523 257.156C30.8923 257.156 30.5403 257.12 30.1963 257.048C29.8523 256.976 29.5443 256.856 29.2723 256.688C29.0083 256.52 28.7883 256.3 28.6123 256.028C28.4443 255.748 28.3523 255.4 28.3363 254.984H29.9563ZM39.3056 252.98C39.1936 252.268 38.7736 251.912 38.0456 251.912C37.7736 251.912 37.5456 251.976 37.3616 252.104C37.1776 252.224 37.0256 252.384 36.9056 252.584C36.7936 252.776 36.7136 252.992 36.6656 253.232C36.6176 253.464 36.5936 253.696 36.5936 253.928C36.5936 254.152 36.6176 254.38 36.6656 254.612C36.7136 254.844 36.7896 255.056 36.8936 255.248C37.0056 255.432 37.1536 255.584 37.3376 255.704C37.5216 255.824 37.7456 255.884 38.0096 255.884C38.4176 255.884 38.7296 255.772 38.9456 255.548C39.1696 255.316 39.3096 255.008 39.3656 254.624H41.0096C40.8976 255.448 40.5776 256.076 40.0496 256.508C39.5216 256.94 38.8456 257.156 38.0216 257.156C37.5576 257.156 37.1296 257.08 36.7376 256.928C36.3536 256.768 36.0256 256.548 35.7536 256.268C35.4816 255.988 35.2696 255.656 35.1176 255.272C34.9656 254.88 34.8896 254.452 34.8896 253.988C34.8896 253.508 34.9576 253.064 35.0936 252.656C35.2376 252.24 35.4456 251.884 35.7176 251.588C35.9896 251.284 36.3216 251.048 36.7136 250.88C37.1056 250.712 37.5536 250.628 38.0576 250.628C38.4256 250.628 38.7776 250.676 39.1136 250.772C39.4576 250.868 39.7616 251.016 40.0256 251.216C40.2976 251.408 40.5176 251.652 40.6856 251.948C40.8536 252.236 40.9496 252.58 40.9736 252.98H39.3056ZM47.7922 257H46.1722V256.136H46.1362C45.9202 256.496 45.6402 256.756 45.2962 256.916C44.9522 257.076 44.6002 257.156 44.2402 257.156C43.7842 257.156 43.4082 257.096 43.1122 256.976C42.8242 256.856 42.5962 256.688 42.4282 256.472C42.2602 256.248 42.1402 255.98 42.0682 255.668C42.0042 255.348 41.9722 254.996 41.9722 254.612V250.796H43.6762V254.3C43.6762 254.812 43.7562 255.196 43.9162 255.452C44.0762 255.7 44.3602 255.824 44.7682 255.824C45.2322 255.824 45.5682 255.688 45.7762 255.416C45.9842 255.136 46.0882 254.68 46.0882 254.048V250.796H47.7922V257ZM50.4055 254.984C50.4055 255.168 50.4415 255.328 50.5135 255.464C50.5935 255.592 50.6935 255.7 50.8135 255.788C50.9335 255.868 51.0695 255.928 51.2215 255.968C51.3815 256.008 51.5455 256.028 51.7135 256.028C51.8335 256.028 51.9575 256.016 52.0855 255.992C52.2215 255.96 52.3415 255.916 52.4455 255.86C52.5575 255.796 52.6495 255.716 52.7215 255.62C52.7935 255.516 52.8295 255.388 52.8295 255.236C52.8295 254.98 52.6575 254.788 52.3135 254.66C51.9775 254.532 51.5055 254.404 50.8975 254.276C50.6495 254.22 50.4055 254.156 50.1655 254.084C49.9335 254.004 49.7255 253.904 49.5415 253.784C49.3575 253.656 49.2095 253.5 49.0975 253.316C48.9855 253.124 48.9295 252.892 48.9295 252.62C48.9295 252.22 49.0055 251.892 49.1575 251.636C49.3175 251.38 49.5255 251.18 49.7815 251.036C50.0375 250.884 50.3255 250.78 50.6455 250.724C50.9655 250.66 51.2935 250.628 51.6295 250.628C51.9655 250.628 52.2895 250.66 52.6015 250.724C52.9215 250.788 53.2055 250.896 53.4535 251.048C53.7015 251.2 53.9055 251.404 54.0655 251.66C54.2335 251.908 54.3335 252.224 54.3655 252.608H52.7455C52.7215 252.28 52.5975 252.06 52.3735 251.948C52.1495 251.828 51.8855 251.768 51.5815 251.768C51.4855 251.768 51.3815 251.776 51.2695 251.792C51.1575 251.8 51.0535 251.824 50.9575 251.864C50.8695 251.904 50.7935 251.964 50.7295 252.044C50.6655 252.116 50.6335 252.216 50.6335 252.344C50.6335 252.496 50.6895 252.62 50.8015 252.716C50.9135 252.812 51.0575 252.892 51.2335 252.956C51.4175 253.012 51.6255 253.064 51.8575 253.112C52.0895 253.16 52.3255 253.212 52.5655 253.268C52.8135 253.324 53.0535 253.392 53.2855 253.472C53.5255 253.552 53.7375 253.66 53.9215 253.796C54.1055 253.924 54.2535 254.088 54.3655 254.288C54.4775 254.48 54.5335 254.72 54.5335 255.008C54.5335 255.416 54.4495 255.76 54.2815 256.04C54.1215 256.312 53.9095 256.532 53.6455 256.7C53.3815 256.868 53.0775 256.984 52.7335 257.048C52.3975 257.12 52.0535 257.156 51.7015 257.156C51.3415 257.156 50.9895 257.12 50.6455 257.048C50.3015 256.976 49.9935 256.856 49.7215 256.688C49.4575 256.52 49.2375 256.3 49.0615 256.028C48.8935 255.748 48.8015 255.4 48.7855 254.984H50.4055ZM56.8508 254.984C56.8508 255.168 56.8868 255.328 56.9588 255.464C57.0388 255.592 57.1388 255.7 57.2588 255.788C57.3788 255.868 57.5148 255.928 57.6668 255.968C57.8268 256.008 57.9908 256.028 58.1588 256.028C58.2788 256.028 58.4028 256.016 58.5308 255.992C58.6668 255.96 58.7868 255.916 58.8908 255.86C59.0028 255.796 59.0948 255.716 59.1668 255.62C59.2388 255.516 59.2748 255.388 59.2748 255.236C59.2748 254.98 59.1028 254.788 58.7588 254.66C58.4228 254.532 57.9508 254.404 57.3428 254.276C57.0948 254.22 56.8508 254.156 56.6108 254.084C56.3788 254.004 56.1708 253.904 55.9868 253.784C55.8028 253.656 55.6548 253.5 55.5428 253.316C55.4308 253.124 55.3748 252.892 55.3748 252.62C55.3748 252.22 55.4508 251.892 55.6028 251.636C55.7628 251.38 55.9708 251.18 56.2268 251.036C56.4828 250.884 56.7708 250.78 57.0908 250.724C57.4108 250.66 57.7388 250.628 58.0748 250.628C58.4108 250.628 58.7348 250.66 59.0468 250.724C59.3668 250.788 59.6508 250.896 59.8988 251.048C60.1468 251.2 60.3508 251.404 60.5108 251.66C60.6788 251.908 60.7788 252.224 60.8108 252.608H59.1908C59.1668 252.28 59.0428 252.06 58.8188 251.948C58.5948 251.828 58.3308 251.768 58.0268 251.768C57.9308 251.768 57.8268 251.776 57.7148 251.792C57.6028 251.8 57.4988 251.824 57.4028 251.864C57.3148 251.904 57.2388 251.964 57.1748 252.044C57.1108 252.116 57.0788 252.216 57.0788 252.344C57.0788 252.496 57.1348 252.62 57.2468 252.716C57.3588 252.812 57.5028 252.892 57.6788 252.956C57.8628 253.012 58.0708 253.064 58.3028 253.112C58.5348 253.16 58.7708 253.212 59.0108 253.268C59.2588 253.324 59.4988 253.392 59.7308 253.472C59.9708 253.552 60.1828 253.66 60.3668 253.796C60.5508 253.924 60.6988 254.088 60.8108 254.288C60.9228 254.48 60.9788 254.72 60.9788 255.008C60.9788 255.416 60.8948 255.76 60.7268 256.04C60.5668 256.312 60.3548 256.532 60.0908 256.7C59.8268 256.868 59.5228 256.984 59.1788 257.048C58.8428 257.12 58.4988 257.156 58.1468 257.156C57.7868 257.156 57.4348 257.12 57.0908 257.048C56.7468 256.976 56.4388 256.856 56.1668 256.688C55.9028 256.52 55.6828 256.3 55.5068 256.028C55.3388 255.748 55.2468 255.4 55.2308 254.984H56.8508ZM63.7281 249.836H62.0241V248.432H63.7281V249.836ZM62.0241 250.796H63.7281V257H62.0241V250.796ZM66.5819 253.904C66.5819 254.152 66.6059 254.396 66.6539 254.636C66.7019 254.868 66.7819 255.08 66.8939 255.272C67.0139 255.456 67.1699 255.604 67.3619 255.716C67.5539 255.828 67.7939 255.884 68.0819 255.884C68.3699 255.884 68.6099 255.828 68.8019 255.716C69.0019 255.604 69.1579 255.456 69.2699 255.272C69.3899 255.08 69.4739 254.868 69.5219 254.636C69.5699 254.396 69.5939 254.152 69.5939 253.904C69.5939 253.656 69.5699 253.412 69.5219 253.172C69.4739 252.932 69.3899 252.72 69.2699 252.536C69.1579 252.352 69.0019 252.204 68.8019 252.092C68.6099 251.972 68.3699 251.912 68.0819 251.912C67.7939 251.912 67.5539 251.972 67.3619 252.092C67.1699 252.204 67.0139 252.352 66.8939 252.536C66.7819 252.72 66.7019 252.932 66.6539 253.172C66.6059 253.412 66.5819 253.656 66.5819 253.904ZM64.8779 253.904C64.8779 253.408 64.9539 252.96 65.1059 252.56C65.2579 252.152 65.4739 251.808 65.7539 251.528C66.0339 251.24 66.3699 251.02 66.7619 250.868C67.1539 250.708 67.5939 250.628 68.0819 250.628C68.5699 250.628 69.0099 250.708 69.4019 250.868C69.8019 251.02 70.1419 251.24 70.4219 251.528C70.7019 251.808 70.9179 252.152 71.0699 252.56C71.2219 252.96 71.2979 253.408 71.2979 253.904C71.2979 254.4 71.2219 254.848 71.0699 255.248C70.9179 255.648 70.7019 255.992 70.4219 256.28C70.1419 256.56 69.8019 256.776 69.4019 256.928C69.0099 257.08 68.5699 257.156 68.0819 257.156C67.5939 257.156 67.1539 257.08 66.7619 256.928C66.3699 256.776 66.0339 256.56 65.7539 256.28C65.4739 255.992 65.2579 255.648 65.1059 255.248C64.9539 254.848 64.8779 254.4 64.8779 253.904ZM72.4058 250.796H74.0258V251.66H74.0618C74.2778 251.3 74.5578 251.04 74.9018 250.88C75.2458 250.712 75.5978 250.628 75.9578 250.628C76.4138 250.628 76.7858 250.692 77.0738 250.82C77.3698 250.94 77.6018 251.112 77.7698 251.336C77.9378 251.552 78.0538 251.82 78.1178 252.14C78.1898 252.452 78.2258 252.8 78.2258 253.184V257H76.5218V253.496C76.5218 252.984 76.4418 252.604 76.2818 252.356C76.1218 252.1 75.8378 251.972 75.4298 251.972C74.9658 251.972 74.6298 252.112 74.4218 252.392C74.2138 252.664 74.1098 253.116 74.1098 253.748V257H72.4058V250.796Z" fill="black"/>
<rect x="16" y="272" width="258" height="9" fill="#B0B0B0"/>
<rect x="16" y="292" width="319" height="9" fill="#B0B0B0"/>
</svg>
