<?xml version="1.0" encoding="UTF-8" standalone="no"?><!DOCTYPE svg PUBLIC "-//W3C//DTD SVG 1.1//EN" "http://www.w3.org/Graphics/SVG/1.1/DTD/svg11.dtd"><svg width="100%" height="100%" viewBox="0 0 2709 2709" version="1.1" xmlns="http://www.w3.org/2000/svg" xmlns:xlink="http://www.w3.org/1999/xlink" xml:space="preserve" xmlns:serif="http://www.serif.com/" style="fill-rule:evenodd;clip-rule:evenodd;stroke-linejoin:round;stroke-miterlimit:2;"><rect x="248.564" y="540.877" width="2190.37" height="1503.4" style="fill:#fff;"/><path d="M2708.33,0l-2708.33,0l0,2708.33l2708.33,0l0,-2708.33Zm-1220.28,778.307l0,1151.72l814.591,0l0,-212.923l-561.342,0l0,-938.796l-253.249,-0Zm-1082.36,-0l-0,1151.72l496.82,0c88.18,0 164.8,-14.786 229.86,-44.359c65.06,-29.572 119.366,-70.167 162.918,-121.785c43.553,-51.618 76.083,-112.914 97.59,-183.888c21.507,-70.974 32.261,-148.401 32.261,-232.28c-0,-95.707 -13.173,-179.048 -39.52,-250.023c-26.346,-70.974 -62.909,-130.119 -109.687,-177.435c-46.779,-47.317 -102.16,-82.804 -166.145,-106.462c-63.984,-23.658 -133.077,-35.487 -207.277,-35.487l-496.82,-0Zm253.249,938.796l0,-725.873l180.662,-0c62.371,-0 114.796,8.872 157.273,26.615c42.477,17.744 76.62,43.284 102.428,76.62c25.809,33.337 44.359,73.394 55.651,120.173c11.291,46.778 16.937,99.202 16.937,157.272c-0,63.447 -8.066,117.215 -24.196,161.305c-16.131,44.091 -37.638,79.847 -64.522,107.268c-26.884,27.422 -57.532,47.048 -91.944,58.877c-34.412,11.829 -69.899,17.743 -106.462,17.743l-225.827,0Z" style="fill:#062058;"/></svg>
