<svg width="456" height="304" viewBox="0 0 456 304" fill="none" xmlns="http://www.w3.org/2000/svg">
<rect y="50" width="456" height="254" fill="white"/>
<rect width="456" height="37" rx="5" fill="#DADADA"/>
<rect y="19" width="456" height="31" fill="#0B0B0B"/>
<rect x="1" y="20" width="454" height="283" stroke="#DADADA" stroke-width="2"/>
<path d="M17.134 32.694H19.078V33.954H19.114C19.402 33.414 19.804 33.03 20.32 32.802C20.836 32.562 21.394 32.442 21.994 32.442C22.726 32.442 23.362 32.574 23.902 32.838C24.454 33.09 24.91 33.444 25.27 33.9C25.63 34.344 25.9 34.866 26.08 35.466C26.26 36.066 26.35 36.708 26.35 37.392C26.35 38.016 26.266 38.622 26.098 39.21C25.942 39.798 25.696 40.32 25.36 40.776C25.036 41.22 24.622 41.58 24.118 41.856C23.614 42.12 23.02 42.252 22.336 42.252C22.036 42.252 21.736 42.222 21.436 42.162C21.136 42.114 20.848 42.03 20.572 41.91C20.296 41.79 20.038 41.64 19.798 41.46C19.57 41.268 19.378 41.046 19.222 40.794H19.186V45.438H17.134V32.694ZM24.298 37.356C24.298 36.936 24.244 36.528 24.136 36.132C24.028 35.736 23.866 35.388 23.65 35.088C23.434 34.776 23.164 34.53 22.84 34.35C22.516 34.158 22.144 34.062 21.724 34.062C20.86 34.062 20.206 34.362 19.762 34.962C19.33 35.562 19.114 36.36 19.114 37.356C19.114 37.824 19.168 38.262 19.276 38.67C19.396 39.066 19.57 39.408 19.798 39.696C20.026 39.984 20.296 40.212 20.608 40.38C20.932 40.548 21.304 40.632 21.724 40.632C22.192 40.632 22.588 40.536 22.912 40.344C23.236 40.152 23.5 39.906 23.704 39.606C23.92 39.294 24.07 38.946 24.154 38.562C24.25 38.166 24.298 37.764 24.298 37.356ZM28.1379 29.148H30.1899V42H28.1379V29.148ZM40.2197 39.93C40.2197 40.182 40.2497 40.362 40.3097 40.47C40.3817 40.578 40.5137 40.632 40.7057 40.632C40.7657 40.632 40.8377 40.632 40.9217 40.632C41.0057 40.632 41.1017 40.62 41.2097 40.596V42.018C41.1377 42.042 41.0417 42.066 40.9217 42.09C40.8137 42.126 40.6997 42.156 40.5797 42.18C40.4597 42.204 40.3397 42.222 40.2197 42.234C40.0997 42.246 39.9977 42.252 39.9137 42.252C39.4937 42.252 39.1457 42.168 38.8697 42C38.5937 41.832 38.4137 41.538 38.3297 41.118C37.9217 41.514 37.4177 41.802 36.8177 41.982C36.2297 42.162 35.6597 42.252 35.1077 42.252C34.6877 42.252 34.2857 42.192 33.9017 42.072C33.5177 41.964 33.1757 41.802 32.8757 41.586C32.5877 41.358 32.3537 41.076 32.1737 40.74C32.0057 40.392 31.9217 39.99 31.9217 39.534C31.9217 38.958 32.0237 38.49 32.2277 38.13C32.4437 37.77 32.7197 37.488 33.0557 37.284C33.4037 37.08 33.7877 36.936 34.2077 36.852C34.6397 36.756 35.0717 36.684 35.5037 36.636C35.8757 36.564 36.2297 36.516 36.5657 36.492C36.9017 36.456 37.1957 36.402 37.4477 36.33C37.7117 36.258 37.9157 36.15 38.0597 36.006C38.2157 35.85 38.2937 35.622 38.2937 35.322C38.2937 35.058 38.2277 34.842 38.0957 34.674C37.9757 34.506 37.8197 34.38 37.6277 34.296C37.4477 34.2 37.2437 34.14 37.0157 34.116C36.7877 34.08 36.5717 34.062 36.3677 34.062C35.7917 34.062 35.3177 34.182 34.9457 34.422C34.5737 34.662 34.3637 35.034 34.3157 35.538H32.2637C32.2997 34.938 32.4437 34.44 32.6957 34.044C32.9477 33.648 33.2657 33.33 33.6497 33.09C34.0457 32.85 34.4897 32.682 34.9817 32.586C35.4737 32.49 35.9777 32.442 36.4937 32.442C36.9497 32.442 37.3997 32.49 37.8437 32.586C38.2877 32.682 38.6837 32.838 39.0317 33.054C39.3917 33.27 39.6797 33.552 39.8957 33.9C40.1117 34.236 40.2197 34.65 40.2197 35.142V39.93ZM38.1677 37.338C37.8557 37.542 37.4717 37.668 37.0157 37.716C36.5597 37.752 36.1037 37.812 35.6477 37.896C35.4317 37.932 35.2217 37.986 35.0177 38.058C34.8137 38.118 34.6337 38.208 34.4777 38.328C34.3217 38.436 34.1957 38.586 34.0997 38.778C34.0157 38.958 33.9737 39.18 33.9737 39.444C33.9737 39.672 34.0397 39.864 34.1717 40.02C34.3037 40.176 34.4597 40.302 34.6397 40.398C34.8317 40.482 35.0357 40.542 35.2517 40.578C35.4797 40.614 35.6837 40.632 35.8637 40.632C36.0917 40.632 36.3377 40.602 36.6017 40.542C36.8657 40.482 37.1117 40.38 37.3397 40.236C37.5797 40.092 37.7777 39.912 37.9337 39.696C38.0897 39.468 38.1677 39.192 38.1677 38.868V37.338ZM42.4277 32.694H44.3717V34.062L44.4077 34.098C44.7197 33.582 45.1277 33.18 45.6317 32.892C46.1357 32.592 46.6937 32.442 47.3057 32.442C48.3257 32.442 49.1297 32.706 49.7177 33.234C50.3057 33.762 50.5997 34.554 50.5997 35.61V42H48.5477V36.15C48.5237 35.418 48.3677 34.89 48.0797 34.566C47.7917 34.23 47.3417 34.062 46.7297 34.062C46.3817 34.062 46.0697 34.128 45.7937 34.26C45.5177 34.38 45.2837 34.554 45.0917 34.782C44.8997 34.998 44.7497 35.256 44.6417 35.556C44.5337 35.856 44.4797 36.174 44.4797 36.51V42H42.4277V32.694ZM52.7636 32.694H54.7076V34.062L54.7436 34.098C55.0556 33.582 55.4636 33.18 55.9676 32.892C56.4716 32.592 57.0296 32.442 57.6416 32.442C58.6616 32.442 59.4656 32.706 60.0536 33.234C60.6416 33.762 60.9356 34.554 60.9356 35.61V42H58.8836V36.15C58.8596 35.418 58.7036 34.89 58.4156 34.566C58.1276 34.23 57.6776 34.062 57.0656 34.062C56.7176 34.062 56.4056 34.128 56.1296 34.26C55.8536 34.38 55.6196 34.554 55.4276 34.782C55.2356 34.998 55.0856 35.256 54.9776 35.556C54.8696 35.856 54.8156 36.174 54.8156 36.51V42H52.7636V32.694ZM63.1535 29.148H65.2055V31.092H63.1535V29.148ZM63.1535 32.694H65.2055V42H63.1535V32.694ZM67.4413 32.694H69.3853V34.062L69.4213 34.098C69.7333 33.582 70.1413 33.18 70.6453 32.892C71.1493 32.592 71.7073 32.442 72.3193 32.442C73.3393 32.442 74.1433 32.706 74.7313 33.234C75.3193 33.762 75.6133 34.554 75.6133 35.61V42H73.5613V36.15C73.5373 35.418 73.3813 34.89 73.0933 34.566C72.8053 34.23 72.3553 34.062 71.7433 34.062C71.3953 34.062 71.0833 34.128 70.8073 34.26C70.5313 34.38 70.2973 34.554 70.1053 34.782C69.9133 34.998 69.7633 35.256 69.6553 35.556C69.5473 35.856 69.4933 36.174 69.4933 36.51V42H67.4413V32.694ZM86.3813 41.514C86.3813 42.918 85.9853 43.962 85.1933 44.646C84.4133 45.342 83.2853 45.69 81.8093 45.69C81.3413 45.69 80.8673 45.642 80.3873 45.546C79.9193 45.45 79.4873 45.288 79.0913 45.06C78.7073 44.832 78.3833 44.532 78.1193 44.16C77.8553 43.788 77.6993 43.332 77.6513 42.792H79.7033C79.7633 43.08 79.8653 43.314 80.0093 43.494C80.1533 43.674 80.3213 43.812 80.5133 43.908C80.7173 44.016 80.9393 44.082 81.1793 44.106C81.4193 44.142 81.6713 44.16 81.9353 44.16C82.7633 44.16 83.3693 43.956 83.7533 43.548C84.1373 43.14 84.3293 42.552 84.3293 41.784V40.362H84.2933C84.0053 40.878 83.6093 41.28 83.1053 41.568C82.6133 41.856 82.0793 42 81.5033 42C80.7593 42 80.1233 41.874 79.5953 41.622C79.0793 41.358 78.6473 41.004 78.2993 40.56C77.9633 40.104 77.7173 39.582 77.5613 38.994C77.4053 38.406 77.3273 37.776 77.3273 37.104C77.3273 36.48 77.4233 35.886 77.6153 35.322C77.8073 34.758 78.0833 34.266 78.4433 33.846C78.8033 33.414 79.2413 33.072 79.7573 32.82C80.2853 32.568 80.8793 32.442 81.5393 32.442C82.1273 32.442 82.6673 32.568 83.1593 32.82C83.6513 33.06 84.0293 33.444 84.2933 33.972H84.3293V32.694H86.3813V41.514ZM81.8273 40.38C82.2833 40.38 82.6673 40.29 82.9793 40.11C83.3033 39.918 83.5613 39.672 83.7533 39.372C83.9573 39.06 84.1013 38.712 84.1853 38.328C84.2813 37.932 84.3293 37.536 84.3293 37.14C84.3293 36.744 84.2813 36.36 84.1853 35.988C84.0893 35.616 83.9393 35.286 83.7353 34.998C83.5433 34.71 83.2853 34.482 82.9613 34.314C82.6493 34.146 82.2713 34.062 81.8273 34.062C81.3713 34.062 80.9873 34.158 80.6753 34.35C80.3633 34.542 80.1113 34.794 79.9193 35.106C79.7273 35.406 79.5893 35.754 79.5053 36.15C79.4213 36.534 79.3793 36.918 79.3793 37.302C79.3793 37.686 79.4273 38.064 79.5233 38.436C79.6193 38.796 79.7633 39.12 79.9553 39.408C80.1593 39.696 80.4113 39.93 80.7113 40.11C81.0233 40.29 81.3953 40.38 81.8273 40.38ZM88.6092 39.57H91.1112V42H88.6092V39.57ZM102.223 42H100.279V40.74H100.243C99.967 41.28 99.565 41.67 99.037 41.91C98.509 42.138 97.951 42.252 97.363 42.252C96.631 42.252 95.989 42.126 95.437 41.874C94.897 41.61 94.447 41.256 94.087 40.812C93.727 40.368 93.457 39.846 93.277 39.246C93.097 38.634 93.007 37.98 93.007 37.284C93.007 36.444 93.121 35.718 93.349 35.106C93.577 34.494 93.877 33.99 94.249 33.594C94.633 33.198 95.065 32.91 95.545 32.73C96.037 32.538 96.535 32.442 97.039 32.442C97.327 32.442 97.621 32.472 97.921 32.532C98.221 32.58 98.509 32.664 98.785 32.784C99.061 32.904 99.313 33.06 99.541 33.252C99.781 33.432 99.979 33.648 100.135 33.9H100.171V29.148H102.223V42ZM95.059 37.446C95.059 37.842 95.107 38.232 95.203 38.616C95.311 39 95.467 39.342 95.671 39.642C95.887 39.942 96.157 40.182 96.481 40.362C96.805 40.542 97.189 40.632 97.633 40.632C98.089 40.632 98.479 40.536 98.803 40.344C99.139 40.152 99.409 39.9 99.613 39.588C99.829 39.276 99.985 38.928 100.081 38.544C100.189 38.148 100.243 37.746 100.243 37.338C100.243 36.306 100.009 35.502 99.541 34.926C99.085 34.35 98.461 34.062 97.669 34.062C97.189 34.062 96.781 34.164 96.445 34.368C96.121 34.56 95.851 34.818 95.635 35.142C95.431 35.454 95.281 35.814 95.185 36.222C95.101 36.618 95.059 37.026 95.059 37.446ZM112.255 39.93C112.255 40.182 112.285 40.362 112.345 40.47C112.417 40.578 112.549 40.632 112.741 40.632C112.801 40.632 112.873 40.632 112.957 40.632C113.041 40.632 113.137 40.62 113.245 40.596V42.018C113.173 42.042 113.077 42.066 112.957 42.09C112.849 42.126 112.735 42.156 112.615 42.18C112.495 42.204 112.375 42.222 112.255 42.234C112.135 42.246 112.033 42.252 111.949 42.252C111.529 42.252 111.181 42.168 110.905 42C110.629 41.832 110.449 41.538 110.365 41.118C109.957 41.514 109.453 41.802 108.853 41.982C108.265 42.162 107.695 42.252 107.143 42.252C106.723 42.252 106.321 42.192 105.937 42.072C105.553 41.964 105.211 41.802 104.911 41.586C104.623 41.358 104.389 41.076 104.209 40.74C104.041 40.392 103.957 39.99 103.957 39.534C103.957 38.958 104.059 38.49 104.263 38.13C104.479 37.77 104.755 37.488 105.091 37.284C105.439 37.08 105.823 36.936 106.243 36.852C106.675 36.756 107.107 36.684 107.539 36.636C107.911 36.564 108.265 36.516 108.601 36.492C108.937 36.456 109.231 36.402 109.483 36.33C109.747 36.258 109.951 36.15 110.095 36.006C110.251 35.85 110.329 35.622 110.329 35.322C110.329 35.058 110.263 34.842 110.131 34.674C110.011 34.506 109.855 34.38 109.663 34.296C109.483 34.2 109.279 34.14 109.051 34.116C108.823 34.08 108.607 34.062 108.403 34.062C107.827 34.062 107.353 34.182 106.981 34.422C106.609 34.662 106.399 35.034 106.351 35.538H104.299C104.335 34.938 104.479 34.44 104.731 34.044C104.983 33.648 105.301 33.33 105.685 33.09C106.081 32.85 106.525 32.682 107.017 32.586C107.509 32.49 108.013 32.442 108.529 32.442C108.985 32.442 109.435 32.49 109.879 32.586C110.323 32.682 110.719 32.838 111.067 33.054C111.427 33.27 111.715 33.552 111.931 33.9C112.147 34.236 112.255 34.65 112.255 35.142V39.93ZM110.203 37.338C109.891 37.542 109.507 37.668 109.051 37.716C108.595 37.752 108.139 37.812 107.683 37.896C107.467 37.932 107.257 37.986 107.053 38.058C106.849 38.118 106.669 38.208 106.513 38.328C106.357 38.436 106.231 38.586 106.135 38.778C106.051 38.958 106.009 39.18 106.009 39.444C106.009 39.672 106.075 39.864 106.207 40.02C106.339 40.176 106.495 40.302 106.675 40.398C106.867 40.482 107.071 40.542 107.287 40.578C107.515 40.614 107.719 40.632 107.899 40.632C108.127 40.632 108.373 40.602 108.637 40.542C108.901 40.482 109.147 40.38 109.375 40.236C109.615 40.092 109.813 39.912 109.969 39.696C110.125 39.468 110.203 39.192 110.203 38.868V37.338ZM113.527 32.694H115.075V29.904H117.127V32.694H118.981V34.224H117.127V39.192C117.127 39.408 117.133 39.594 117.145 39.75C117.169 39.906 117.211 40.038 117.271 40.146C117.343 40.254 117.445 40.338 117.577 40.398C117.709 40.446 117.889 40.47 118.117 40.47C118.261 40.47 118.405 40.47 118.549 40.47C118.693 40.458 118.837 40.434 118.981 40.398V41.982C118.753 42.006 118.531 42.03 118.315 42.054C118.099 42.078 117.877 42.09 117.649 42.09C117.109 42.09 116.671 42.042 116.335 41.946C116.011 41.838 115.753 41.688 115.561 41.496C115.381 41.292 115.255 41.04 115.183 40.74C115.123 40.44 115.087 40.098 115.075 39.714V34.224H113.527V32.694ZM128.251 39.93C128.251 40.182 128.281 40.362 128.341 40.47C128.413 40.578 128.545 40.632 128.737 40.632C128.797 40.632 128.869 40.632 128.953 40.632C129.037 40.632 129.133 40.62 129.241 40.596V42.018C129.169 42.042 129.073 42.066 128.953 42.09C128.845 42.126 128.731 42.156 128.611 42.18C128.491 42.204 128.371 42.222 128.251 42.234C128.131 42.246 128.029 42.252 127.945 42.252C127.525 42.252 127.177 42.168 126.901 42C126.625 41.832 126.445 41.538 126.361 41.118C125.953 41.514 125.449 41.802 124.849 41.982C124.261 42.162 123.691 42.252 123.139 42.252C122.719 42.252 122.317 42.192 121.933 42.072C121.549 41.964 121.207 41.802 120.907 41.586C120.619 41.358 120.385 41.076 120.205 40.74C120.037 40.392 119.953 39.99 119.953 39.534C119.953 38.958 120.055 38.49 120.259 38.13C120.475 37.77 120.751 37.488 121.087 37.284C121.435 37.08 121.819 36.936 122.239 36.852C122.671 36.756 123.103 36.684 123.535 36.636C123.907 36.564 124.261 36.516 124.597 36.492C124.933 36.456 125.227 36.402 125.479 36.33C125.743 36.258 125.947 36.15 126.091 36.006C126.247 35.85 126.325 35.622 126.325 35.322C126.325 35.058 126.259 34.842 126.127 34.674C126.007 34.506 125.851 34.38 125.659 34.296C125.479 34.2 125.275 34.14 125.047 34.116C124.819 34.08 124.603 34.062 124.399 34.062C123.823 34.062 123.349 34.182 122.977 34.422C122.605 34.662 122.395 35.034 122.347 35.538H120.295C120.331 34.938 120.475 34.44 120.727 34.044C120.979 33.648 121.297 33.33 121.681 33.09C122.077 32.85 122.521 32.682 123.013 32.586C123.505 32.49 124.009 32.442 124.525 32.442C124.981 32.442 125.431 32.49 125.875 32.586C126.319 32.682 126.715 32.838 127.063 33.054C127.423 33.27 127.711 33.552 127.927 33.9C128.143 34.236 128.251 34.65 128.251 35.142V39.93ZM126.199 37.338C125.887 37.542 125.503 37.668 125.047 37.716C124.591 37.752 124.135 37.812 123.679 37.896C123.463 37.932 123.253 37.986 123.049 38.058C122.845 38.118 122.665 38.208 122.509 38.328C122.353 38.436 122.227 38.586 122.131 38.778C122.047 38.958 122.005 39.18 122.005 39.444C122.005 39.672 122.071 39.864 122.203 40.02C122.335 40.176 122.491 40.302 122.671 40.398C122.863 40.482 123.067 40.542 123.283 40.578C123.511 40.614 123.715 40.632 123.895 40.632C124.123 40.632 124.369 40.602 124.633 40.542C124.897 40.482 125.143 40.38 125.371 40.236C125.611 40.092 125.809 39.912 125.965 39.696C126.121 39.468 126.199 39.192 126.199 38.868V37.338ZM130.621 39.57H133.123V42H130.621V39.57ZM144.073 41.514C144.073 42.918 143.677 43.962 142.885 44.646C142.105 45.342 140.977 45.69 139.501 45.69C139.033 45.69 138.559 45.642 138.079 45.546C137.611 45.45 137.179 45.288 136.783 45.06C136.399 44.832 136.075 44.532 135.811 44.16C135.547 43.788 135.391 43.332 135.343 42.792H137.395C137.455 43.08 137.557 43.314 137.701 43.494C137.845 43.674 138.013 43.812 138.205 43.908C138.409 44.016 138.631 44.082 138.871 44.106C139.111 44.142 139.363 44.16 139.627 44.16C140.455 44.16 141.061 43.956 141.445 43.548C141.829 43.14 142.021 42.552 142.021 41.784V40.362H141.985C141.697 40.878 141.301 41.28 140.797 41.568C140.305 41.856 139.771 42 139.195 42C138.451 42 137.815 41.874 137.287 41.622C136.771 41.358 136.339 41.004 135.991 40.56C135.655 40.104 135.409 39.582 135.253 38.994C135.097 38.406 135.019 37.776 135.019 37.104C135.019 36.48 135.115 35.886 135.307 35.322C135.499 34.758 135.775 34.266 136.135 33.846C136.495 33.414 136.933 33.072 137.449 32.82C137.977 32.568 138.571 32.442 139.231 32.442C139.819 32.442 140.359 32.568 140.851 32.82C141.343 33.06 141.721 33.444 141.985 33.972H142.021V32.694H144.073V41.514ZM139.519 40.38C139.975 40.38 140.359 40.29 140.671 40.11C140.995 39.918 141.253 39.672 141.445 39.372C141.649 39.06 141.793 38.712 141.877 38.328C141.973 37.932 142.021 37.536 142.021 37.14C142.021 36.744 141.973 36.36 141.877 35.988C141.781 35.616 141.631 35.286 141.427 34.998C141.235 34.71 140.977 34.482 140.653 34.314C140.341 34.146 139.963 34.062 139.519 34.062C139.063 34.062 138.679 34.158 138.367 34.35C138.055 34.542 137.803 34.794 137.611 35.106C137.419 35.406 137.281 35.754 137.197 36.15C137.113 36.534 137.071 36.918 137.071 37.302C137.071 37.686 137.119 38.064 137.215 38.436C137.311 38.796 137.455 39.12 137.647 39.408C137.851 39.696 138.103 39.93 138.403 40.11C138.715 40.29 139.087 40.38 139.519 40.38ZM150.405 42.252C149.661 42.252 148.995 42.132 148.407 41.892C147.831 41.64 147.339 41.298 146.931 40.866C146.535 40.434 146.229 39.918 146.013 39.318C145.809 38.718 145.707 38.058 145.707 37.338C145.707 36.63 145.809 35.976 146.013 35.376C146.229 34.776 146.535 34.26 146.931 33.828C147.339 33.396 147.831 33.06 148.407 32.82C148.995 32.568 149.661 32.442 150.405 32.442C151.149 32.442 151.809 32.568 152.385 32.82C152.973 33.06 153.465 33.396 153.861 33.828C154.269 34.26 154.575 34.776 154.779 35.376C154.995 35.976 155.103 36.63 155.103 37.338C155.103 38.058 154.995 38.718 154.779 39.318C154.575 39.918 154.269 40.434 153.861 40.866C153.465 41.298 152.973 41.64 152.385 41.892C151.809 42.132 151.149 42.252 150.405 42.252ZM150.405 40.632C150.861 40.632 151.257 40.536 151.593 40.344C151.929 40.152 152.205 39.9 152.421 39.588C152.637 39.276 152.793 38.928 152.889 38.544C152.997 38.148 153.051 37.746 153.051 37.338C153.051 36.942 152.997 36.546 152.889 36.15C152.793 35.754 152.637 35.406 152.421 35.106C152.205 34.794 151.929 34.542 151.593 34.35C151.257 34.158 150.861 34.062 150.405 34.062C149.949 34.062 149.553 34.158 149.217 34.35C148.881 34.542 148.605 34.794 148.389 35.106C148.173 35.406 148.011 35.754 147.903 36.15C147.807 36.546 147.759 36.942 147.759 37.338C147.759 37.746 147.807 38.148 147.903 38.544C148.011 38.928 148.173 39.276 148.389 39.588C148.605 39.9 148.881 40.152 149.217 40.344C149.553 40.536 149.949 40.632 150.405 40.632ZM155.891 32.694H158.123L160.481 39.84H160.517L162.785 32.694H164.909L161.579 42H159.275L155.891 32.694ZM164.969 39.57H167.471V42H164.969V39.57ZM177.988 42H175.972V40.704H175.936C175.684 41.172 175.306 41.55 174.802 41.838C174.31 42.114 173.806 42.252 173.29 42.252C172.066 42.252 171.178 41.952 170.626 41.352C170.086 40.74 169.816 39.822 169.816 38.598V32.694H171.868V38.4C171.868 39.216 172.024 39.792 172.336 40.128C172.648 40.464 173.086 40.632 173.65 40.632C174.082 40.632 174.442 40.566 174.73 40.434C175.018 40.302 175.252 40.128 175.432 39.912C175.612 39.684 175.738 39.414 175.81 39.102C175.894 38.79 175.936 38.454 175.936 38.094V32.694H177.988V42ZM180.206 29.148H182.258V36.456L185.966 32.694H188.486L184.922 36.114L188.828 42H186.326L183.482 37.482L182.258 38.67V42H180.206V29.148Z" fill="white"/>
<circle cx="12" cy="10" r="4" fill="white"/>
<circle cx="23" cy="10" r="4" fill="white"/>
<circle cx="34" cy="10" r="4" fill="white"/>
<path d="M20.068 74.624H22.588C22.996 74.624 23.392 74.558 23.776 74.426C24.16 74.294 24.502 74.078 24.802 73.778C25.102 73.466 25.342 73.064 25.522 72.572C25.702 72.08 25.792 71.48 25.792 70.772C25.792 70.124 25.726 69.542 25.594 69.026C25.474 68.498 25.27 68.048 24.982 67.676C24.694 67.304 24.31 67.022 23.83 66.83C23.362 66.626 22.78 66.524 22.084 66.524H20.068V74.624ZM17.242 64.148H22.786C23.614 64.148 24.382 64.28 25.09 64.544C25.81 64.808 26.428 65.204 26.944 65.732C27.472 66.26 27.88 66.92 28.168 67.712C28.468 68.504 28.618 69.434 28.618 70.502C28.618 71.438 28.498 72.302 28.258 73.094C28.018 73.886 27.652 74.57 27.16 75.146C26.68 75.722 26.074 76.178 25.342 76.514C24.622 76.838 23.77 77 22.786 77H17.242V64.148ZM30.2058 70.556C30.2418 69.956 30.3918 69.458 30.6558 69.062C30.9198 68.666 31.2558 68.348 31.6638 68.108C32.0718 67.868 32.5278 67.7 33.0318 67.604C33.5478 67.496 34.0638 67.442 34.5798 67.442C35.0478 67.442 35.5218 67.478 36.0018 67.55C36.4818 67.61 36.9198 67.736 37.3158 67.928C37.7118 68.12 38.0358 68.39 38.2878 68.738C38.5398 69.074 38.6658 69.524 38.6658 70.088V74.93C38.6658 75.35 38.6898 75.752 38.7378 76.136C38.7858 76.52 38.8698 76.808 38.9898 77H36.3978C36.3498 76.856 36.3078 76.712 36.2718 76.568C36.2478 76.412 36.2298 76.256 36.2178 76.1C35.8098 76.52 35.3298 76.814 34.7778 76.982C34.2258 77.15 33.6618 77.234 33.0858 77.234C32.6418 77.234 32.2278 77.18 31.8438 77.072C31.4598 76.964 31.1238 76.796 30.8358 76.568C30.5478 76.34 30.3198 76.052 30.1518 75.704C29.9958 75.356 29.9178 74.942 29.9178 74.462C29.9178 73.934 30.0078 73.502 30.1878 73.166C30.3798 72.818 30.6198 72.542 30.9078 72.338C31.2078 72.134 31.5438 71.984 31.9158 71.888C32.2998 71.78 32.6838 71.696 33.0678 71.636C33.4518 71.576 33.8298 71.528 34.2018 71.492C34.5738 71.456 34.9038 71.402 35.1918 71.33C35.4798 71.258 35.7078 71.156 35.8758 71.024C36.0438 70.88 36.1218 70.676 36.1098 70.412C36.1098 70.136 36.0618 69.92 35.9658 69.764C35.8818 69.596 35.7618 69.47 35.6058 69.386C35.4618 69.29 35.2878 69.23 35.0838 69.206C34.8918 69.17 34.6818 69.152 34.4538 69.152C33.9498 69.152 33.5538 69.26 33.2658 69.476C32.9778 69.692 32.8098 70.052 32.7618 70.556H30.2058ZM36.1098 72.446C36.0018 72.542 35.8638 72.62 35.6958 72.68C35.5398 72.728 35.3658 72.77 35.1738 72.806C34.9938 72.842 34.8018 72.872 34.5978 72.896C34.3938 72.92 34.1898 72.95 33.9858 72.986C33.7938 73.022 33.6018 73.07 33.4098 73.13C33.2298 73.19 33.0678 73.274 32.9238 73.382C32.7918 73.478 32.6838 73.604 32.5998 73.76C32.5158 73.916 32.4738 74.114 32.4738 74.354C32.4738 74.582 32.5158 74.774 32.5998 74.93C32.6838 75.086 32.7978 75.212 32.9418 75.308C33.0858 75.392 33.2538 75.452 33.4458 75.488C33.6378 75.524 33.8358 75.542 34.0398 75.542C34.5438 75.542 34.9338 75.458 35.2098 75.29C35.4858 75.122 35.6898 74.924 35.8218 74.696C35.9538 74.456 36.0318 74.216 36.0558 73.976C36.0918 73.736 36.1098 73.544 36.1098 73.4V72.446ZM43.8897 67.694H45.7617V69.404H43.8897V74.012C43.8897 74.444 43.9617 74.732 44.1057 74.876C44.2497 75.02 44.5377 75.092 44.9697 75.092C45.1137 75.092 45.2517 75.086 45.3837 75.074C45.5157 75.062 45.6417 75.044 45.7617 75.02V77C45.5457 77.036 45.3057 77.06 45.0417 77.072C44.7777 77.084 44.5197 77.09 44.2677 77.09C43.8717 77.09 43.4937 77.06 43.1337 77C42.7857 76.952 42.4737 76.85 42.1977 76.694C41.9337 76.538 41.7237 76.316 41.5677 76.028C41.4117 75.74 41.3337 75.362 41.3337 74.894V69.404H39.7857V67.694H41.3337V64.904H43.8897V67.694ZM46.8699 70.556C46.9059 69.956 47.0559 69.458 47.3199 69.062C47.5839 68.666 47.9199 68.348 48.3279 68.108C48.7359 67.868 49.1919 67.7 49.6959 67.604C50.2119 67.496 50.7279 67.442 51.2439 67.442C51.7119 67.442 52.1859 67.478 52.6659 67.55C53.1459 67.61 53.5839 67.736 53.9799 67.928C54.3759 68.12 54.6999 68.39 54.9519 68.738C55.2039 69.074 55.3299 69.524 55.3299 70.088V74.93C55.3299 75.35 55.3539 75.752 55.4019 76.136C55.4499 76.52 55.5339 76.808 55.6539 77H53.0619C53.0139 76.856 52.9719 76.712 52.9359 76.568C52.9119 76.412 52.8939 76.256 52.8819 76.1C52.4739 76.52 51.9939 76.814 51.4419 76.982C50.8899 77.15 50.3259 77.234 49.7499 77.234C49.3059 77.234 48.8919 77.18 48.5079 77.072C48.1239 76.964 47.7879 76.796 47.4999 76.568C47.2119 76.34 46.9839 76.052 46.8159 75.704C46.6599 75.356 46.5819 74.942 46.5819 74.462C46.5819 73.934 46.6719 73.502 46.8519 73.166C47.0439 72.818 47.2839 72.542 47.5719 72.338C47.8719 72.134 48.2079 71.984 48.5799 71.888C48.9639 71.78 49.3479 71.696 49.7319 71.636C50.1159 71.576 50.4939 71.528 50.8659 71.492C51.2379 71.456 51.5679 71.402 51.8559 71.33C52.1439 71.258 52.3719 71.156 52.5399 71.024C52.7079 70.88 52.7859 70.676 52.7739 70.412C52.7739 70.136 52.7259 69.92 52.6299 69.764C52.5459 69.596 52.4259 69.47 52.2699 69.386C52.1259 69.29 51.9519 69.23 51.7479 69.206C51.5559 69.17 51.3459 69.152 51.1179 69.152C50.6139 69.152 50.2179 69.26 49.9299 69.476C49.6419 69.692 49.4739 70.052 49.4259 70.556H46.8699ZM52.7739 72.446C52.6659 72.542 52.5279 72.62 52.3599 72.68C52.2039 72.728 52.0299 72.77 51.8379 72.806C51.6579 72.842 51.4659 72.872 51.2619 72.896C51.0579 72.92 50.8539 72.95 50.6499 72.986C50.4579 73.022 50.2659 73.07 50.0739 73.13C49.8939 73.19 49.7319 73.274 49.5879 73.382C49.4559 73.478 49.3479 73.604 49.2639 73.76C49.1799 73.916 49.1379 74.114 49.1379 74.354C49.1379 74.582 49.1799 74.774 49.2639 74.93C49.3479 75.086 49.4619 75.212 49.6059 75.308C49.7499 75.392 49.9179 75.452 50.1099 75.488C50.3019 75.524 50.4999 75.542 50.7039 75.542C51.2079 75.542 51.5979 75.458 51.8739 75.29C52.1499 75.122 52.3539 74.924 52.4859 74.696C52.6179 74.456 52.6959 74.216 52.7199 73.976C52.7559 73.736 52.7739 73.544 52.7739 73.4V72.446ZM59.2938 73.976C59.2938 74.252 59.3478 74.492 59.4558 74.696C59.5758 74.888 59.7258 75.05 59.9058 75.182C60.0858 75.302 60.2898 75.392 60.5178 75.452C60.7578 75.512 61.0038 75.542 61.2558 75.542C61.4358 75.542 61.6218 75.524 61.8138 75.488C62.0178 75.44 62.1978 75.374 62.3538 75.29C62.5218 75.194 62.6598 75.074 62.7678 74.93C62.8758 74.774 62.9298 74.582 62.9298 74.354C62.9298 73.97 62.6718 73.682 62.1558 73.49C61.6518 73.298 60.9438 73.106 60.0318 72.914C59.6598 72.83 59.2938 72.734 58.9338 72.626C58.5858 72.506 58.2738 72.356 57.9978 72.176C57.7218 71.984 57.4998 71.75 57.3318 71.474C57.1638 71.186 57.0798 70.838 57.0798 70.43C57.0798 69.83 57.1938 69.338 57.4218 68.954C57.6618 68.57 57.9738 68.27 58.3578 68.054C58.7418 67.826 59.1738 67.67 59.6538 67.586C60.1338 67.49 60.6258 67.442 61.1298 67.442C61.6338 67.442 62.1198 67.49 62.5878 67.586C63.0678 67.682 63.4938 67.844 63.8658 68.072C64.2378 68.3 64.5438 68.606 64.7838 68.99C65.0358 69.362 65.1858 69.836 65.2338 70.412H62.8038C62.7678 69.92 62.5818 69.59 62.2458 69.422C61.9098 69.242 61.5138 69.152 61.0578 69.152C60.9138 69.152 60.7578 69.164 60.5898 69.188C60.4218 69.2 60.2658 69.236 60.1218 69.296C59.9898 69.356 59.8758 69.446 59.7798 69.566C59.6838 69.674 59.6358 69.824 59.6358 70.016C59.6358 70.244 59.7198 70.43 59.8878 70.574C60.0558 70.718 60.2718 70.838 60.5358 70.934C60.8118 71.018 61.1238 71.096 61.4718 71.168C61.8198 71.24 62.1738 71.318 62.5338 71.402C62.9058 71.486 63.2658 71.588 63.6138 71.708C63.9738 71.828 64.2918 71.99 64.5678 72.194C64.8438 72.386 65.0658 72.632 65.2338 72.932C65.4018 73.22 65.4858 73.58 65.4858 74.012C65.4858 74.624 65.3598 75.14 65.1078 75.56C64.8678 75.968 64.5498 76.298 64.1538 76.55C63.7578 76.802 63.3018 76.976 62.7858 77.072C62.2818 77.18 61.7658 77.234 61.2378 77.234C60.6978 77.234 60.1698 77.18 59.6538 77.072C59.1378 76.964 58.6758 76.784 58.2678 76.532C57.8718 76.28 57.5418 75.95 57.2778 75.542C57.0258 75.122 56.8878 74.6 56.8638 73.976H59.2938ZM73.2458 71.348C73.1258 70.7 72.9098 70.208 72.5978 69.872C72.2978 69.536 71.8358 69.368 71.2118 69.368C70.8038 69.368 70.4618 69.44 70.1858 69.584C69.9218 69.716 69.7058 69.884 69.5378 70.088C69.3818 70.292 69.2678 70.508 69.1958 70.736C69.1358 70.964 69.0998 71.168 69.0878 71.348H73.2458ZM69.0878 72.968C69.1238 73.796 69.3338 74.396 69.7178 74.768C70.1018 75.14 70.6538 75.326 71.3738 75.326C71.8898 75.326 72.3338 75.2 72.7058 74.948C73.0778 74.684 73.3058 74.408 73.3898 74.12H75.6398C75.2798 75.236 74.7278 76.034 73.9838 76.514C73.2398 76.994 72.3398 77.234 71.2838 77.234C70.5518 77.234 69.8918 77.12 69.3038 76.892C68.7158 76.652 68.2178 76.316 67.8098 75.884C67.4018 75.452 67.0838 74.936 66.8558 74.336C66.6398 73.736 66.5318 73.076 66.5318 72.356C66.5318 71.66 66.6458 71.012 66.8738 70.412C67.1018 69.812 67.4258 69.296 67.8458 68.864C68.2658 68.42 68.7638 68.072 69.3398 67.82C69.9278 67.568 70.5758 67.442 71.2838 67.442C72.0758 67.442 72.7658 67.598 73.3538 67.91C73.9418 68.21 74.4218 68.618 74.7938 69.134C75.1778 69.65 75.4538 70.238 75.6218 70.898C75.7898 71.558 75.8498 72.248 75.8018 72.968H69.0878ZM80.5577 67.694H82.4297V69.404H80.5577V74.012C80.5577 74.444 80.6297 74.732 80.7737 74.876C80.9177 75.02 81.2057 75.092 81.6377 75.092C81.7817 75.092 81.9197 75.086 82.0517 75.074C82.1837 75.062 82.3097 75.044 82.4297 75.02V77C82.2137 77.036 81.9737 77.06 81.7097 77.072C81.4457 77.084 81.1877 77.09 80.9357 77.09C80.5397 77.09 80.1617 77.06 79.8017 77C79.4537 76.952 79.1417 76.85 78.8657 76.694C78.6017 76.538 78.3917 76.316 78.2357 76.028C78.0797 75.74 78.0017 75.362 78.0017 74.894V69.404H76.4537V67.694H78.0017V64.904H80.5577V67.694ZM95.2616 72.32C95.2616 71.936 95.2256 71.57 95.1536 71.222C95.0816 70.862 94.9556 70.55 94.7756 70.286C94.6076 70.01 94.3856 69.788 94.1096 69.62C93.8336 69.452 93.4856 69.368 93.0656 69.368C92.6456 69.368 92.2916 69.452 92.0036 69.62C91.7156 69.788 91.4816 70.01 91.3016 70.286C91.1336 70.562 91.0076 70.88 90.9236 71.24C90.8516 71.588 90.8156 71.954 90.8156 72.338C90.8156 72.698 90.8576 73.058 90.9416 73.418C91.0256 73.778 91.1576 74.102 91.3376 74.39C91.5296 74.666 91.7636 74.894 92.0396 75.074C92.3276 75.242 92.6696 75.326 93.0656 75.326C93.4856 75.326 93.8336 75.242 94.1096 75.074C94.3976 74.906 94.6256 74.684 94.7936 74.408C94.9616 74.12 95.0816 73.796 95.1536 73.436C95.2256 73.076 95.2616 72.704 95.2616 72.32ZM95.2976 75.812H95.2616C94.9616 76.316 94.5656 76.682 94.0736 76.91C93.5936 77.126 93.0476 77.234 92.4356 77.234C91.7396 77.234 91.1276 77.102 90.5996 76.838C90.0716 76.562 89.6336 76.196 89.2856 75.74C88.9496 75.272 88.6916 74.738 88.5116 74.138C88.3436 73.538 88.2596 72.914 88.2596 72.266C88.2596 71.642 88.3436 71.042 88.5116 70.466C88.6916 69.878 88.9496 69.362 89.2856 68.918C89.6336 68.474 90.0656 68.12 90.5816 67.856C91.0976 67.58 91.6976 67.442 92.3816 67.442C92.9336 67.442 93.4556 67.562 93.9476 67.802C94.4516 68.03 94.8476 68.372 95.1356 68.828H95.1716V64.148H97.7276V77H95.2976V75.812ZM99.5515 70.556C99.5875 69.956 99.7375 69.458 100.002 69.062C100.266 68.666 100.602 68.348 101.01 68.108C101.418 67.868 101.874 67.7 102.378 67.604C102.894 67.496 103.41 67.442 103.926 67.442C104.394 67.442 104.868 67.478 105.348 67.55C105.828 67.61 106.266 67.736 106.662 67.928C107.058 68.12 107.382 68.39 107.634 68.738C107.886 69.074 108.012 69.524 108.012 70.088V74.93C108.012 75.35 108.036 75.752 108.084 76.136C108.132 76.52 108.216 76.808 108.336 77H105.744C105.696 76.856 105.654 76.712 105.618 76.568C105.594 76.412 105.576 76.256 105.564 76.1C105.156 76.52 104.676 76.814 104.124 76.982C103.572 77.15 103.008 77.234 102.432 77.234C101.988 77.234 101.574 77.18 101.19 77.072C100.806 76.964 100.47 76.796 100.182 76.568C99.8935 76.34 99.6655 76.052 99.4975 75.704C99.3415 75.356 99.2635 74.942 99.2635 74.462C99.2635 73.934 99.3535 73.502 99.5335 73.166C99.7255 72.818 99.9655 72.542 100.254 72.338C100.554 72.134 100.89 71.984 101.262 71.888C101.646 71.78 102.03 71.696 102.414 71.636C102.798 71.576 103.176 71.528 103.548 71.492C103.92 71.456 104.25 71.402 104.538 71.33C104.826 71.258 105.054 71.156 105.222 71.024C105.39 70.88 105.468 70.676 105.456 70.412C105.456 70.136 105.408 69.92 105.312 69.764C105.228 69.596 105.108 69.47 104.952 69.386C104.808 69.29 104.634 69.23 104.43 69.206C104.238 69.17 104.028 69.152 103.8 69.152C103.296 69.152 102.9 69.26 102.612 69.476C102.324 69.692 102.156 70.052 102.108 70.556H99.5515ZM105.456 72.446C105.348 72.542 105.21 72.62 105.042 72.68C104.886 72.728 104.712 72.77 104.52 72.806C104.34 72.842 104.148 72.872 103.944 72.896C103.74 72.92 103.536 72.95 103.332 72.986C103.14 73.022 102.948 73.07 102.756 73.13C102.576 73.19 102.414 73.274 102.27 73.382C102.138 73.478 102.03 73.604 101.946 73.76C101.862 73.916 101.82 74.114 101.82 74.354C101.82 74.582 101.862 74.774 101.946 74.93C102.03 75.086 102.144 75.212 102.288 75.308C102.432 75.392 102.6 75.452 102.792 75.488C102.984 75.524 103.182 75.542 103.386 75.542C103.89 75.542 104.28 75.458 104.556 75.29C104.832 75.122 105.036 74.924 105.168 74.696C105.3 74.456 105.378 74.216 105.402 73.976C105.438 73.736 105.456 73.544 105.456 73.4V72.446ZM111.975 73.976C111.975 74.252 112.029 74.492 112.137 74.696C112.257 74.888 112.407 75.05 112.587 75.182C112.767 75.302 112.971 75.392 113.199 75.452C113.439 75.512 113.685 75.542 113.937 75.542C114.117 75.542 114.303 75.524 114.495 75.488C114.699 75.44 114.879 75.374 115.035 75.29C115.203 75.194 115.341 75.074 115.449 74.93C115.557 74.774 115.611 74.582 115.611 74.354C115.611 73.97 115.353 73.682 114.837 73.49C114.333 73.298 113.625 73.106 112.713 72.914C112.341 72.83 111.975 72.734 111.615 72.626C111.267 72.506 110.955 72.356 110.679 72.176C110.403 71.984 110.181 71.75 110.013 71.474C109.845 71.186 109.761 70.838 109.761 70.43C109.761 69.83 109.875 69.338 110.103 68.954C110.343 68.57 110.655 68.27 111.039 68.054C111.423 67.826 111.855 67.67 112.335 67.586C112.815 67.49 113.307 67.442 113.811 67.442C114.315 67.442 114.801 67.49 115.269 67.586C115.749 67.682 116.175 67.844 116.547 68.072C116.919 68.3 117.225 68.606 117.465 68.99C117.717 69.362 117.867 69.836 117.915 70.412H115.485C115.449 69.92 115.263 69.59 114.927 69.422C114.591 69.242 114.195 69.152 113.739 69.152C113.595 69.152 113.439 69.164 113.271 69.188C113.103 69.2 112.947 69.236 112.803 69.296C112.671 69.356 112.557 69.446 112.461 69.566C112.365 69.674 112.317 69.824 112.317 70.016C112.317 70.244 112.401 70.43 112.569 70.574C112.737 70.718 112.953 70.838 113.217 70.934C113.493 71.018 113.805 71.096 114.153 71.168C114.501 71.24 114.855 71.318 115.215 71.402C115.587 71.486 115.947 71.588 116.295 71.708C116.655 71.828 116.973 71.99 117.249 72.194C117.525 72.386 117.747 72.632 117.915 72.932C118.083 73.22 118.167 73.58 118.167 74.012C118.167 74.624 118.041 75.14 117.789 75.56C117.549 75.968 117.231 76.298 116.835 76.55C116.439 76.802 115.983 76.976 115.467 77.072C114.963 77.18 114.447 77.234 113.919 77.234C113.379 77.234 112.851 77.18 112.335 77.072C111.819 76.964 111.357 76.784 110.949 76.532C110.553 76.28 110.223 75.95 109.959 75.542C109.707 75.122 109.569 74.6 109.545 73.976H111.975ZM119.663 64.148H122.219V68.99H122.273C122.597 68.45 123.011 68.06 123.515 67.82C124.019 67.568 124.511 67.442 124.991 67.442C125.675 67.442 126.233 67.538 126.665 67.73C127.109 67.91 127.457 68.168 127.709 68.504C127.961 68.828 128.135 69.23 128.231 69.71C128.339 70.178 128.393 70.7 128.393 71.276V77H125.837V71.744C125.837 70.976 125.717 70.406 125.477 70.034C125.237 69.65 124.811 69.458 124.199 69.458C123.503 69.458 122.999 69.668 122.687 70.088C122.375 70.496 122.219 71.174 122.219 72.122V77H119.663V64.148ZM137.155 72.356C137.155 71.96 137.113 71.582 137.029 71.222C136.945 70.862 136.813 70.544 136.633 70.268C136.453 69.992 136.225 69.776 135.949 69.62C135.685 69.452 135.361 69.368 134.977 69.368C134.605 69.368 134.281 69.452 134.005 69.62C133.729 69.776 133.501 69.992 133.321 70.268C133.141 70.544 133.009 70.862 132.925 71.222C132.841 71.582 132.799 71.96 132.799 72.356C132.799 72.74 132.841 73.112 132.925 73.472C133.009 73.832 133.141 74.15 133.321 74.426C133.501 74.702 133.729 74.924 134.005 75.092C134.281 75.248 134.605 75.326 134.977 75.326C135.361 75.326 135.685 75.248 135.949 75.092C136.225 74.924 136.453 74.702 136.633 74.426C136.813 74.15 136.945 73.832 137.029 73.472C137.113 73.112 137.155 72.74 137.155 72.356ZM130.333 64.148H132.889V68.828H132.925C133.237 68.348 133.657 68 134.185 67.784C134.725 67.556 135.283 67.442 135.859 67.442C136.327 67.442 136.789 67.538 137.245 67.73C137.701 67.922 138.109 68.216 138.469 68.612C138.841 69.008 139.141 69.518 139.369 70.142C139.597 70.754 139.711 71.486 139.711 72.338C139.711 73.19 139.597 73.928 139.369 74.552C139.141 75.164 138.841 75.668 138.469 76.064C138.109 76.46 137.701 76.754 137.245 76.946C136.789 77.138 136.327 77.234 135.859 77.234C135.175 77.234 134.563 77.126 134.023 76.91C133.483 76.694 133.075 76.328 132.799 75.812H132.763V77H130.333V64.148ZM143.605 72.356C143.605 72.728 143.641 73.094 143.713 73.454C143.785 73.802 143.905 74.12 144.073 74.408C144.253 74.684 144.487 74.906 144.775 75.074C145.063 75.242 145.423 75.326 145.855 75.326C146.287 75.326 146.647 75.242 146.935 75.074C147.235 74.906 147.469 74.684 147.637 74.408C147.817 74.12 147.943 73.802 148.015 73.454C148.087 73.094 148.123 72.728 148.123 72.356C148.123 71.984 148.087 71.618 148.015 71.258C147.943 70.898 147.817 70.58 147.637 70.304C147.469 70.028 147.235 69.806 146.935 69.638C146.647 69.458 146.287 69.368 145.855 69.368C145.423 69.368 145.063 69.458 144.775 69.638C144.487 69.806 144.253 70.028 144.073 70.304C143.905 70.58 143.785 70.898 143.713 71.258C143.641 71.618 143.605 71.984 143.605 72.356ZM141.049 72.356C141.049 71.612 141.163 70.94 141.391 70.34C141.619 69.728 141.943 69.212 142.363 68.792C142.783 68.36 143.287 68.03 143.875 67.802C144.463 67.562 145.123 67.442 145.855 67.442C146.587 67.442 147.247 67.562 147.835 67.802C148.435 68.03 148.945 68.36 149.365 68.792C149.785 69.212 150.109 69.728 150.337 70.34C150.565 70.94 150.679 71.612 150.679 72.356C150.679 73.1 150.565 73.772 150.337 74.372C150.109 74.972 149.785 75.488 149.365 75.92C148.945 76.34 148.435 76.664 147.835 76.892C147.247 77.12 146.587 77.234 145.855 77.234C145.123 77.234 144.463 77.12 143.875 76.892C143.287 76.664 142.783 76.34 142.363 75.92C141.943 75.488 141.619 74.972 141.391 74.372C141.163 73.772 141.049 73.1 141.049 72.356ZM152.233 70.556C152.269 69.956 152.419 69.458 152.683 69.062C152.947 68.666 153.283 68.348 153.691 68.108C154.099 67.868 154.555 67.7 155.059 67.604C155.575 67.496 156.091 67.442 156.607 67.442C157.075 67.442 157.549 67.478 158.029 67.55C158.509 67.61 158.947 67.736 159.343 67.928C159.739 68.12 160.063 68.39 160.315 68.738C160.567 69.074 160.693 69.524 160.693 70.088V74.93C160.693 75.35 160.717 75.752 160.765 76.136C160.813 76.52 160.897 76.808 161.017 77H158.425C158.377 76.856 158.335 76.712 158.299 76.568C158.275 76.412 158.257 76.256 158.245 76.1C157.837 76.52 157.357 76.814 156.805 76.982C156.253 77.15 155.689 77.234 155.113 77.234C154.669 77.234 154.255 77.18 153.871 77.072C153.487 76.964 153.151 76.796 152.863 76.568C152.575 76.34 152.347 76.052 152.179 75.704C152.023 75.356 151.945 74.942 151.945 74.462C151.945 73.934 152.035 73.502 152.215 73.166C152.407 72.818 152.647 72.542 152.935 72.338C153.235 72.134 153.571 71.984 153.943 71.888C154.327 71.78 154.711 71.696 155.095 71.636C155.479 71.576 155.857 71.528 156.229 71.492C156.601 71.456 156.931 71.402 157.219 71.33C157.507 71.258 157.735 71.156 157.903 71.024C158.071 70.88 158.149 70.676 158.137 70.412C158.137 70.136 158.089 69.92 157.993 69.764C157.909 69.596 157.789 69.47 157.633 69.386C157.489 69.29 157.315 69.23 157.111 69.206C156.919 69.17 156.709 69.152 156.481 69.152C155.977 69.152 155.581 69.26 155.293 69.476C155.005 69.692 154.837 70.052 154.789 70.556H152.233ZM158.137 72.446C158.029 72.542 157.891 72.62 157.723 72.68C157.567 72.728 157.393 72.77 157.201 72.806C157.021 72.842 156.829 72.872 156.625 72.896C156.421 72.92 156.217 72.95 156.013 72.986C155.821 73.022 155.629 73.07 155.437 73.13C155.257 73.19 155.095 73.274 154.951 73.382C154.819 73.478 154.711 73.604 154.627 73.76C154.543 73.916 154.501 74.114 154.501 74.354C154.501 74.582 154.543 74.774 154.627 74.93C154.711 75.086 154.825 75.212 154.969 75.308C155.113 75.392 155.281 75.452 155.473 75.488C155.665 75.524 155.863 75.542 156.067 75.542C156.571 75.542 156.961 75.458 157.237 75.29C157.513 75.122 157.717 74.924 157.849 74.696C157.981 74.456 158.059 74.216 158.083 73.976C158.119 73.736 158.137 73.544 158.137 73.4V72.446ZM162.677 67.694H165.107V69.422H165.143C165.263 69.134 165.425 68.87 165.629 68.63C165.833 68.378 166.067 68.168 166.331 68C166.595 67.82 166.877 67.682 167.177 67.586C167.477 67.49 167.789 67.442 168.113 67.442C168.281 67.442 168.467 67.472 168.671 67.532V69.908C168.551 69.884 168.407 69.866 168.239 69.854C168.071 69.83 167.909 69.818 167.753 69.818C167.285 69.818 166.889 69.896 166.565 70.052C166.241 70.208 165.977 70.424 165.773 70.7C165.581 70.964 165.443 71.276 165.359 71.636C165.275 71.996 165.233 72.386 165.233 72.806V77H162.677V67.694ZM175.963 72.32C175.963 71.936 175.927 71.57 175.855 71.222C175.783 70.862 175.657 70.55 175.477 70.286C175.309 70.01 175.087 69.788 174.811 69.62C174.535 69.452 174.187 69.368 173.767 69.368C173.347 69.368 172.993 69.452 172.705 69.62C172.417 69.788 172.183 70.01 172.003 70.286C171.835 70.562 171.709 70.88 171.625 71.24C171.553 71.588 171.517 71.954 171.517 72.338C171.517 72.698 171.559 73.058 171.643 73.418C171.727 73.778 171.859 74.102 172.039 74.39C172.231 74.666 172.465 74.894 172.741 75.074C173.029 75.242 173.371 75.326 173.767 75.326C174.187 75.326 174.535 75.242 174.811 75.074C175.099 74.906 175.327 74.684 175.495 74.408C175.663 74.12 175.783 73.796 175.855 73.436C175.927 73.076 175.963 72.704 175.963 72.32ZM175.999 75.812H175.963C175.663 76.316 175.267 76.682 174.775 76.91C174.295 77.126 173.749 77.234 173.137 77.234C172.441 77.234 171.829 77.102 171.301 76.838C170.773 76.562 170.335 76.196 169.987 75.74C169.651 75.272 169.393 74.738 169.213 74.138C169.045 73.538 168.961 72.914 168.961 72.266C168.961 71.642 169.045 71.042 169.213 70.466C169.393 69.878 169.651 69.362 169.987 68.918C170.335 68.474 170.767 68.12 171.283 67.856C171.799 67.58 172.399 67.442 173.083 67.442C173.635 67.442 174.157 67.562 174.649 67.802C175.153 68.03 175.549 68.372 175.837 68.828H175.873V64.148H178.429V77H175.999V75.812Z" fill="black"/>
<rect x="16" y="94" width="72" height="39" fill="#1F70B8"/>
<path d="M21.592 104.104C21.5707 103.464 21.6453 102.872 21.816 102.328C21.9867 101.773 22.2427 101.293 22.584 100.888C22.9253 100.472 23.352 100.152 23.864 99.928C24.3867 99.6933 24.984 99.576 25.656 99.576C26.168 99.576 26.6533 99.656 27.112 99.816C27.5813 99.976 27.992 100.205 28.344 100.504C28.696 100.803 28.9733 101.171 29.176 101.608C29.3893 102.045 29.496 102.536 29.496 103.08C29.496 103.645 29.4053 104.131 29.224 104.536C29.0427 104.941 28.8027 105.304 28.504 105.624C28.2053 105.933 27.864 106.216 27.48 106.472C27.1067 106.728 26.728 106.984 26.344 107.24C25.96 107.485 25.5867 107.752 25.224 108.04C24.8613 108.328 24.5413 108.664 24.264 109.048H29.56V111H21.336C21.336 110.349 21.4267 109.784 21.608 109.304C21.8 108.824 22.056 108.397 22.376 108.024C22.696 107.64 23.0693 107.288 23.496 106.968C23.9333 106.648 24.392 106.323 24.872 105.992C25.1173 105.821 25.3787 105.651 25.656 105.48C25.9333 105.299 26.184 105.101 26.408 104.888C26.6427 104.675 26.8347 104.435 26.984 104.168C27.144 103.901 27.224 103.597 27.224 103.256C27.224 102.712 27.064 102.291 26.744 101.992C26.4347 101.683 26.0347 101.528 25.544 101.528C25.2133 101.528 24.9307 101.608 24.696 101.768C24.472 101.917 24.2907 102.12 24.152 102.376C24.0133 102.621 23.912 102.899 23.848 103.208C23.7947 103.507 23.768 103.805 23.768 104.104H21.592Z" fill="white"/>
<rect x="19" y="118" width="63" height="9" fill="white"/>
<rect x="98" y="94" width="72" height="39" fill="#1F70B8"/>
<path d="M111.272 101.752C110.685 102.264 110.163 102.893 109.704 103.64C109.256 104.387 108.877 105.181 108.568 106.024C108.269 106.867 108.035 107.72 107.864 108.584C107.704 109.448 107.619 110.253 107.608 111H105.176C105.304 109.325 105.693 107.715 106.344 106.168C107.005 104.621 107.869 103.203 108.936 101.912H103.624V99.8H111.272V101.752ZM120.632 99.304H122.456L117.992 111.256H116.184L120.632 99.304ZM129.486 102.84C129.486 103.32 129.657 103.688 129.998 103.944C130.34 104.189 130.74 104.312 131.198 104.312C131.678 104.312 132.078 104.189 132.398 103.944C132.718 103.688 132.878 103.32 132.878 102.84C132.878 102.691 132.857 102.531 132.814 102.36C132.772 102.179 132.686 102.008 132.558 101.848C132.441 101.688 132.27 101.555 132.046 101.448C131.833 101.341 131.55 101.288 131.198 101.288C130.974 101.288 130.756 101.325 130.542 101.4C130.34 101.464 130.158 101.56 129.998 101.688C129.838 101.816 129.71 101.976 129.614 102.168C129.529 102.36 129.486 102.584 129.486 102.84ZM127.422 102.632C127.422 102.131 127.534 101.688 127.758 101.304C127.982 100.92 128.27 100.6 128.622 100.344C128.985 100.088 129.39 99.896 129.838 99.768C130.286 99.64 130.74 99.576 131.198 99.576C131.892 99.576 132.478 99.6827 132.958 99.896C133.438 100.109 133.822 100.371 134.11 100.68C134.409 100.979 134.622 101.304 134.75 101.656C134.878 101.997 134.942 102.307 134.942 102.584C134.942 103.139 134.804 103.624 134.526 104.04C134.26 104.456 133.854 104.755 133.31 104.936V104.968C133.982 105.117 134.5 105.437 134.862 105.928C135.225 106.408 135.406 107 135.406 107.704C135.406 108.301 135.284 108.819 135.038 109.256C134.804 109.693 134.489 110.056 134.094 110.344C133.7 110.632 133.252 110.851 132.75 111C132.249 111.139 131.737 111.208 131.214 111.208C130.67 111.208 130.142 111.139 129.63 111C129.129 110.872 128.676 110.664 128.27 110.376C127.876 110.088 127.556 109.725 127.31 109.288C127.076 108.851 126.958 108.328 126.958 107.72C126.958 107.005 127.14 106.408 127.502 105.928C127.876 105.448 128.398 105.128 129.07 104.968V104.936C128.526 104.787 128.116 104.504 127.838 104.088C127.561 103.672 127.422 103.187 127.422 102.632ZM129.23 107.608C129.23 107.896 129.284 108.157 129.39 108.392C129.497 108.627 129.636 108.829 129.806 109C129.988 109.16 130.201 109.288 130.446 109.384C130.692 109.469 130.948 109.512 131.214 109.512C131.492 109.512 131.742 109.469 131.966 109.384C132.201 109.288 132.404 109.16 132.574 109C132.756 108.829 132.894 108.627 132.99 108.392C133.086 108.157 133.134 107.901 133.134 107.624C133.134 107.357 133.081 107.117 132.974 106.904C132.878 106.68 132.74 106.488 132.558 106.328C132.388 106.168 132.185 106.045 131.95 105.96C131.726 105.875 131.481 105.832 131.214 105.832C130.66 105.832 130.19 105.987 129.806 106.296C129.422 106.595 129.23 107.032 129.23 107.608Z" fill="white"/>
<rect x="101" y="118" width="63" height="9" fill="white"/>
<rect x="180" y="94" width="72" height="39" fill="#1F70B8"/>
<path d="M185.592 104.104C185.571 103.464 185.645 102.872 185.816 102.328C185.987 101.773 186.243 101.293 186.584 100.888C186.925 100.472 187.352 100.152 187.864 99.928C188.387 99.6933 188.984 99.576 189.656 99.576C190.168 99.576 190.653 99.656 191.112 99.816C191.581 99.976 191.992 100.205 192.344 100.504C192.696 100.803 192.973 101.171 193.176 101.608C193.389 102.045 193.496 102.536 193.496 103.08C193.496 103.645 193.405 104.131 193.224 104.536C193.043 104.941 192.803 105.304 192.504 105.624C192.205 105.933 191.864 106.216 191.48 106.472C191.107 106.728 190.728 106.984 190.344 107.24C189.96 107.485 189.587 107.752 189.224 108.04C188.861 108.328 188.541 108.664 188.264 109.048H193.56V111H185.336C185.336 110.349 185.427 109.784 185.608 109.304C185.8 108.824 186.056 108.397 186.376 108.024C186.696 107.64 187.069 107.288 187.496 106.968C187.933 106.648 188.392 106.323 188.872 105.992C189.117 105.821 189.379 105.651 189.656 105.48C189.933 105.299 190.184 105.101 190.408 104.888C190.643 104.675 190.835 104.435 190.984 104.168C191.144 103.901 191.224 103.597 191.224 103.256C191.224 102.712 191.064 102.291 190.744 101.992C190.435 101.683 190.035 101.528 189.544 101.528C189.213 101.528 188.931 101.608 188.696 101.768C188.472 101.917 188.291 102.12 188.152 102.376C188.013 102.621 187.912 102.899 187.848 103.208C187.795 103.507 187.768 103.805 187.768 104.104H185.592ZM198.883 102.648H198.835L195.939 106.536H198.883V102.648ZM198.883 108.408H194.147V106.328L199.011 99.8H201.043V106.536H202.531V108.408H201.043V111H198.883V108.408Z" fill="white"/>
<rect x="183" y="118" width="63" height="9" fill="white"/>
<path d="M16 167H389" stroke="black"/>
<path d="M18.712 156.416H20.392C20.664 156.416 20.928 156.372 21.184 156.284C21.44 156.196 21.668 156.052 21.868 155.852C22.068 155.644 22.228 155.376 22.348 155.048C22.468 154.72 22.528 154.32 22.528 153.848C22.528 153.416 22.484 153.028 22.396 152.684C22.316 152.332 22.18 152.032 21.988 151.784C21.796 151.536 21.54 151.348 21.22 151.22C20.908 151.084 20.52 151.016 20.056 151.016H18.712V156.416ZM16.828 149.432H20.524C21.076 149.432 21.588 149.52 22.06 149.696C22.54 149.872 22.952 150.136 23.296 150.488C23.648 150.84 23.92 151.28 24.112 151.808C24.312 152.336 24.412 152.956 24.412 153.668C24.412 154.292 24.332 154.868 24.172 155.396C24.012 155.924 23.768 156.38 23.44 156.764C23.12 157.148 22.716 157.452 22.228 157.676C21.748 157.892 21.18 158 20.524 158H16.828V149.432ZM25.4705 153.704C25.4945 153.304 25.5945 152.972 25.7705 152.708C25.9465 152.444 26.1705 152.232 26.4425 152.072C26.7145 151.912 27.0185 151.8 27.3545 151.736C27.6985 151.664 28.0425 151.628 28.3865 151.628C28.6985 151.628 29.0145 151.652 29.3345 151.7C29.6545 151.74 29.9465 151.824 30.2105 151.952C30.4745 152.08 30.6905 152.26 30.8585 152.492C31.0265 152.716 31.1105 153.016 31.1105 153.392V156.62C31.1105 156.9 31.1265 157.168 31.1585 157.424C31.1905 157.68 31.2465 157.872 31.3265 158H29.5985C29.5665 157.904 29.5385 157.808 29.5145 157.712C29.4985 157.608 29.4865 157.504 29.4785 157.4C29.2065 157.68 28.8865 157.876 28.5185 157.988C28.1505 158.1 27.7745 158.156 27.3905 158.156C27.0945 158.156 26.8185 158.12 26.5625 158.048C26.3065 157.976 26.0825 157.864 25.8905 157.712C25.6985 157.56 25.5465 157.368 25.4345 157.136C25.3305 156.904 25.2785 156.628 25.2785 156.308C25.2785 155.956 25.3385 155.668 25.4585 155.444C25.5865 155.212 25.7465 155.028 25.9385 154.892C26.1385 154.756 26.3625 154.656 26.6105 154.592C26.8665 154.52 27.1225 154.464 27.3785 154.424C27.6345 154.384 27.8865 154.352 28.1345 154.328C28.3825 154.304 28.6025 154.268 28.7945 154.22C28.9865 154.172 29.1385 154.104 29.2505 154.016C29.3625 153.92 29.4145 153.784 29.4065 153.608C29.4065 153.424 29.3745 153.28 29.3105 153.176C29.2545 153.064 29.1745 152.98 29.0705 152.924C28.9745 152.86 28.8585 152.82 28.7225 152.804C28.5945 152.78 28.4545 152.768 28.3025 152.768C27.9665 152.768 27.7025 152.84 27.5105 152.984C27.3185 153.128 27.2065 153.368 27.1745 153.704H25.4705ZM29.4065 154.964C29.3345 155.028 29.2425 155.08 29.1305 155.12C29.0265 155.152 28.9105 155.18 28.7825 155.204C28.6625 155.228 28.5345 155.248 28.3985 155.264C28.2625 155.28 28.1265 155.3 27.9905 155.324C27.8625 155.348 27.7345 155.38 27.6065 155.42C27.4865 155.46 27.3785 155.516 27.2825 155.588C27.1945 155.652 27.1225 155.736 27.0665 155.84C27.0105 155.944 26.9825 156.076 26.9825 156.236C26.9825 156.388 27.0105 156.516 27.0665 156.62C27.1225 156.724 27.1985 156.808 27.2945 156.872C27.3905 156.928 27.5025 156.968 27.6305 156.992C27.7585 157.016 27.8905 157.028 28.0265 157.028C28.3625 157.028 28.6225 156.972 28.8065 156.86C28.9905 156.748 29.1265 156.616 29.2145 156.464C29.3025 156.304 29.3545 156.144 29.3705 155.984C29.3945 155.824 29.4065 155.696 29.4065 155.6V154.964ZM34.5932 151.796H35.8412V152.936H34.5932V156.008C34.5932 156.296 34.6412 156.488 34.7372 156.584C34.8332 156.68 35.0252 156.728 35.3132 156.728C35.4092 156.728 35.5012 156.724 35.5892 156.716C35.6772 156.708 35.7612 156.696 35.8412 156.68V158C35.6972 158.024 35.5372 158.04 35.3612 158.048C35.1852 158.056 35.0132 158.06 34.8452 158.06C34.5812 158.06 34.3292 158.04 34.0892 158C33.8572 157.968 33.6492 157.9 33.4652 157.796C33.2892 157.692 33.1492 157.544 33.0452 157.352C32.9412 157.16 32.8892 156.908 32.8892 156.596V152.936H31.8572V151.796H32.8892V149.936H34.5932V151.796ZM36.5799 153.704C36.6039 153.304 36.7039 152.972 36.8799 152.708C37.0559 152.444 37.2799 152.232 37.5519 152.072C37.8239 151.912 38.1279 151.8 38.4639 151.736C38.8079 151.664 39.1519 151.628 39.4959 151.628C39.8079 151.628 40.1239 151.652 40.4439 151.7C40.7639 151.74 41.0559 151.824 41.3199 151.952C41.5839 152.08 41.7999 152.26 41.9679 152.492C42.1359 152.716 42.2199 153.016 42.2199 153.392V156.62C42.2199 156.9 42.2359 157.168 42.2679 157.424C42.2999 157.68 42.3559 157.872 42.4359 158H40.7079C40.6759 157.904 40.6479 157.808 40.6239 157.712C40.6079 157.608 40.5959 157.504 40.5879 157.4C40.3159 157.68 39.9959 157.876 39.6279 157.988C39.2599 158.1 38.8839 158.156 38.4999 158.156C38.2039 158.156 37.9279 158.12 37.6719 158.048C37.4159 157.976 37.1919 157.864 36.9999 157.712C36.8079 157.56 36.6559 157.368 36.5439 157.136C36.4399 156.904 36.3879 156.628 36.3879 156.308C36.3879 155.956 36.4479 155.668 36.5679 155.444C36.6959 155.212 36.8559 155.028 37.0479 154.892C37.2479 154.756 37.4719 154.656 37.7199 154.592C37.9759 154.52 38.2319 154.464 38.4879 154.424C38.7439 154.384 38.9959 154.352 39.2439 154.328C39.4919 154.304 39.7119 154.268 39.9039 154.22C40.0959 154.172 40.2479 154.104 40.3599 154.016C40.4719 153.92 40.5239 153.784 40.5159 153.608C40.5159 153.424 40.4839 153.28 40.4199 153.176C40.3639 153.064 40.2839 152.98 40.1799 152.924C40.0839 152.86 39.9679 152.82 39.8319 152.804C39.7039 152.78 39.5639 152.768 39.4119 152.768C39.0759 152.768 38.8119 152.84 38.6199 152.984C38.4279 153.128 38.3159 153.368 38.2839 153.704H36.5799ZM40.5159 154.964C40.4439 155.028 40.3519 155.08 40.2399 155.12C40.1359 155.152 40.0199 155.18 39.8919 155.204C39.7719 155.228 39.6439 155.248 39.5079 155.264C39.3719 155.28 39.2359 155.3 39.0999 155.324C38.9719 155.348 38.8439 155.38 38.7159 155.42C38.5959 155.46 38.4879 155.516 38.3919 155.588C38.3039 155.652 38.2319 155.736 38.1759 155.84C38.1199 155.944 38.0919 156.076 38.0919 156.236C38.0919 156.388 38.1199 156.516 38.1759 156.62C38.2319 156.724 38.3079 156.808 38.4039 156.872C38.4999 156.928 38.6119 156.968 38.7399 156.992C38.8679 157.016 38.9999 157.028 39.1359 157.028C39.4719 157.028 39.7319 156.972 39.9159 156.86C40.0999 156.748 40.2359 156.616 40.3239 156.464C40.4119 156.304 40.4639 156.144 40.4799 155.984C40.5039 155.824 40.5159 155.696 40.5159 155.6V154.964ZM44.8625 155.984C44.8625 156.168 44.8985 156.328 44.9705 156.464C45.0505 156.592 45.1505 156.7 45.2705 156.788C45.3905 156.868 45.5265 156.928 45.6785 156.968C45.8385 157.008 46.0025 157.028 46.1705 157.028C46.2905 157.028 46.4145 157.016 46.5425 156.992C46.6785 156.96 46.7985 156.916 46.9025 156.86C47.0145 156.796 47.1065 156.716 47.1785 156.62C47.2505 156.516 47.2865 156.388 47.2865 156.236C47.2865 155.98 47.1145 155.788 46.7705 155.66C46.4345 155.532 45.9625 155.404 45.3545 155.276C45.1065 155.22 44.8625 155.156 44.6225 155.084C44.3905 155.004 44.1825 154.904 43.9985 154.784C43.8145 154.656 43.6665 154.5 43.5545 154.316C43.4425 154.124 43.3865 153.892 43.3865 153.62C43.3865 153.22 43.4625 152.892 43.6145 152.636C43.7745 152.38 43.9825 152.18 44.2385 152.036C44.4945 151.884 44.7825 151.78 45.1025 151.724C45.4225 151.66 45.7505 151.628 46.0865 151.628C46.4225 151.628 46.7465 151.66 47.0585 151.724C47.3785 151.788 47.6625 151.896 47.9105 152.048C48.1585 152.2 48.3625 152.404 48.5225 152.66C48.6905 152.908 48.7905 153.224 48.8225 153.608H47.2025C47.1785 153.28 47.0545 153.06 46.8305 152.948C46.6065 152.828 46.3425 152.768 46.0385 152.768C45.9425 152.768 45.8385 152.776 45.7265 152.792C45.6145 152.8 45.5105 152.824 45.4145 152.864C45.3265 152.904 45.2505 152.964 45.1865 153.044C45.1225 153.116 45.0905 153.216 45.0905 153.344C45.0905 153.496 45.1465 153.62 45.2585 153.716C45.3705 153.812 45.5145 153.892 45.6905 153.956C45.8745 154.012 46.0825 154.064 46.3145 154.112C46.5465 154.16 46.7825 154.212 47.0225 154.268C47.2705 154.324 47.5105 154.392 47.7425 154.472C47.9825 154.552 48.1945 154.66 48.3785 154.796C48.5625 154.924 48.7105 155.088 48.8225 155.288C48.9345 155.48 48.9905 155.72 48.9905 156.008C48.9905 156.416 48.9065 156.76 48.7385 157.04C48.5785 157.312 48.3665 157.532 48.1025 157.7C47.8385 157.868 47.5345 157.984 47.1905 158.048C46.8545 158.12 46.5105 158.156 46.1585 158.156C45.7985 158.156 45.4465 158.12 45.1025 158.048C44.7585 157.976 44.4505 157.856 44.1785 157.688C43.9145 157.52 43.6945 157.3 43.5185 157.028C43.3505 156.748 43.2585 156.4 43.2425 155.984H44.8625ZM54.1638 154.232C54.0838 153.8 53.9398 153.472 53.7318 153.248C53.5318 153.024 53.2238 152.912 52.8078 152.912C52.5358 152.912 52.3078 152.96 52.1238 153.056C51.9478 153.144 51.8038 153.256 51.6918 153.392C51.5878 153.528 51.5118 153.672 51.4638 153.824C51.4238 153.976 51.3998 154.112 51.3918 154.232H54.1638ZM51.3918 155.312C51.4158 155.864 51.5558 156.264 51.8118 156.512C52.0678 156.76 52.4358 156.884 52.9158 156.884C53.2598 156.884 53.5558 156.8 53.8038 156.632C54.0518 156.456 54.2038 156.272 54.2598 156.08H55.7598C55.5198 156.824 55.1518 157.356 54.6558 157.676C54.1598 157.996 53.5598 158.156 52.8558 158.156C52.3678 158.156 51.9278 158.08 51.5358 157.928C51.1438 157.768 50.8118 157.544 50.5398 157.256C50.2678 156.968 50.0558 156.624 49.9038 156.224C49.7598 155.824 49.6878 155.384 49.6878 154.904C49.6878 154.44 49.7638 154.008 49.9158 153.608C50.0678 153.208 50.2838 152.864 50.5638 152.576C50.8438 152.28 51.1758 152.048 51.5598 151.88C51.9518 151.712 52.3838 151.628 52.8558 151.628C53.3838 151.628 53.8438 151.732 54.2358 151.94C54.6278 152.14 54.9478 152.412 55.1958 152.756C55.4518 153.1 55.6358 153.492 55.7478 153.932C55.8598 154.372 55.8998 154.832 55.8678 155.312H51.3918ZM59.0385 151.796H60.2865V152.936H59.0385V156.008C59.0385 156.296 59.0865 156.488 59.1825 156.584C59.2785 156.68 59.4705 156.728 59.7585 156.728C59.8545 156.728 59.9465 156.724 60.0345 156.716C60.1225 156.708 60.2065 156.696 60.2865 156.68V158C60.1425 158.024 59.9825 158.04 59.8065 158.048C59.6305 158.056 59.4585 158.06 59.2905 158.06C59.0265 158.06 58.7745 158.04 58.5345 158C58.3025 157.968 58.0945 157.9 57.9105 157.796C57.7345 157.692 57.5945 157.544 57.4905 157.352C57.3865 157.16 57.3345 156.908 57.3345 156.596V152.936H56.3025V151.796H57.3345V149.936H59.0385V151.796ZM62.4172 155.984C62.4172 156.168 62.4532 156.328 62.5252 156.464C62.6052 156.592 62.7052 156.7 62.8252 156.788C62.9452 156.868 63.0812 156.928 63.2332 156.968C63.3932 157.008 63.5572 157.028 63.7252 157.028C63.8452 157.028 63.9692 157.016 64.0972 156.992C64.2332 156.96 64.3532 156.916 64.4572 156.86C64.5692 156.796 64.6612 156.716 64.7332 156.62C64.8052 156.516 64.8412 156.388 64.8412 156.236C64.8412 155.98 64.6692 155.788 64.3252 155.66C63.9892 155.532 63.5172 155.404 62.9092 155.276C62.6612 155.22 62.4172 155.156 62.1772 155.084C61.9452 155.004 61.7372 154.904 61.5532 154.784C61.3692 154.656 61.2212 154.5 61.1092 154.316C60.9972 154.124 60.9412 153.892 60.9412 153.62C60.9412 153.22 61.0172 152.892 61.1692 152.636C61.3292 152.38 61.5372 152.18 61.7932 152.036C62.0492 151.884 62.3372 151.78 62.6572 151.724C62.9772 151.66 63.3052 151.628 63.6412 151.628C63.9772 151.628 64.3012 151.66 64.6132 151.724C64.9332 151.788 65.2172 151.896 65.4652 152.048C65.7132 152.2 65.9172 152.404 66.0772 152.66C66.2452 152.908 66.3452 153.224 66.3772 153.608H64.7572C64.7332 153.28 64.6092 153.06 64.3852 152.948C64.1612 152.828 63.8972 152.768 63.5932 152.768C63.4972 152.768 63.3932 152.776 63.2812 152.792C63.1692 152.8 63.0652 152.824 62.9692 152.864C62.8812 152.904 62.8052 152.964 62.7412 153.044C62.6772 153.116 62.6452 153.216 62.6452 153.344C62.6452 153.496 62.7012 153.62 62.8132 153.716C62.9252 153.812 63.0692 153.892 63.2452 153.956C63.4292 154.012 63.6372 154.064 63.8692 154.112C64.1012 154.16 64.3372 154.212 64.5772 154.268C64.8252 154.324 65.0652 154.392 65.2972 154.472C65.5372 154.552 65.7492 154.66 65.9332 154.796C66.1172 154.924 66.2652 155.088 66.3772 155.288C66.4892 155.48 66.5452 155.72 66.5452 156.008C66.5452 156.416 66.4612 156.76 66.2932 157.04C66.1332 157.312 65.9212 157.532 65.6572 157.7C65.3932 157.868 65.0892 157.984 64.7452 158.048C64.4092 158.12 64.0652 158.156 63.7132 158.156C63.3532 158.156 63.0012 158.12 62.6572 158.048C62.3132 157.976 62.0052 157.856 61.7332 157.688C61.4692 157.52 61.2492 157.3 61.0732 157.028C60.9052 156.748 60.8132 156.4 60.7972 155.984H62.4172Z" fill="black"/>
<rect x="16" y="177" width="236" height="9" fill="#B0B0B0"/>
<rect x="301" y="177" width="88" height="9" fill="#B0B0B0"/>
<path d="M16 196H389" stroke="black"/>
<rect x="16" y="206" width="236" height="9" fill="#B0B0B0"/>
<rect x="301" y="206" width="88" height="9" fill="#00823B"/>
<path d="M16 254H389" stroke="black"/>
<rect x="16" y="264" width="236" height="9" fill="#B0B0B0"/>
<rect x="301" y="264" width="88" height="9" fill="#00823B"/>
<path d="M16 225H389" stroke="black"/>
<rect x="16" y="235" width="236" height="9" fill="#B0B0B0"/>
<rect x="301" y="235" width="88" height="9" fill="#FFE8A3"/>
<path d="M16 283H389" stroke="black"/>
<rect x="16" y="293" width="236" height="9" fill="#B0B0B0"/>
<rect x="301" y="293" width="88" height="9" fill="#EC221F"/>
</svg>
