<?xml version="1.0" encoding="UTF-8" standalone="no"?>
<!DOCTYPE svg PUBLIC "-//W3C//DTD SVG 1.1//EN" "http://www.w3.org/Graphics/SVG/1.1/DTD/svg11.dtd">
<svg width="100%" height="100%" viewBox="0 0 960 641" version="1.1" xmlns="http://www.w3.org/2000/svg" xmlns:xlink="http://www.w3.org/1999/xlink" xml:space="preserve" xmlns:serif="http://www.serif.com/" style="fill-rule:evenodd;clip-rule:evenodd;stroke-linejoin:round;stroke-miterlimit:2;">
    <g transform="matrix(1,0,0,1,-1068,-752)">
        <g id="Provenance" transform="matrix(1,0,0,1,1068,752.918)">
            <rect x="0" y="0" width="960" height="640" style="fill:#1f70b8;"/>
            <g transform="matrix(1,0,0,1,1.25716,2.27374e-13)">
                <g transform="matrix(0.125296,0,0,0.125296,680.192,370.671)">
                    <path d="M366.933,42.667L149.333,262.4L59.733,172.8L0,232.533L149.333,384L426.667,104.533L366.933,42.667Z" style="fill-opacity:0.3;fill-rule:nonzero;"/>
                </g>
                <g transform="matrix(0.125296,0,0,0.125296,680.017,365.66)">
                    <path d="M366.933,42.667L149.333,262.4L59.733,172.8L0,232.533L149.333,384L426.667,104.533L366.933,42.667Z" style="fill:#47ee14;fill-rule:nonzero;"/>
                </g>
            </g>
            <g transform="matrix(1.45761,0,0,1,-1822.96,-518.604)">
                <path d="M1867.05,864.431C1867.05,852.85 1860.6,843.448 1852.66,843.448L1307.25,843.448C1299.31,843.448 1292.86,852.85 1292.86,864.431L1292.86,962.353C1292.86,973.934 1299.31,983.336 1307.25,983.336L1852.66,983.336C1860.6,983.336 1867.05,973.934 1867.05,962.353L1867.05,864.431ZM1858.9,864.431L1858.9,962.353C1858.9,967.38 1856.11,971.462 1852.66,971.462L1307.25,971.462C1303.8,971.462 1301,967.38 1301,962.353L1301,864.431C1301,859.404 1303.8,855.323 1307.25,855.323L1852.66,855.323C1856.11,855.323 1858.9,859.404 1858.9,864.431Z" style="fill:#fff;"/>
            </g>
            <g transform="matrix(1,0,0,1,-1085.18,-748.074)">
                <g transform="matrix(36,0,0,36,1421.1,1156.54)">
                    <path d="M0.211,-0.599L0.211,-0.13L0.25,-0.13C0.307,-0.13 0.347,-0.148 0.371,-0.183C0.395,-0.219 0.407,-0.28 0.407,-0.365C0.407,-0.45 0.395,-0.51 0.371,-0.546C0.347,-0.581 0.307,-0.599 0.25,-0.599L0.211,-0.599ZM0.067,-0.729L0.221,-0.729C0.34,-0.729 0.426,-0.701 0.479,-0.644C0.531,-0.587 0.557,-0.494 0.557,-0.365C0.557,-0.236 0.531,-0.143 0.479,-0.086C0.426,-0.029 0.34,-0 0.221,-0L0.067,-0L0.067,-0.729Z" style="fill:#ebebeb;fill-rule:nonzero;"/>
                </g>
                <g transform="matrix(36,0,0,36,1442.78,1156.54)">
                    <path d="M0.108,-0.547L0.391,-0.547L0.391,-0.11L0.569,-0.11L0.569,-0L0.07,-0L0.07,-0.11L0.248,-0.11L0.248,-0.437L0.108,-0.437L0.108,-0.547ZM0.248,-0.813L0.391,-0.813L0.391,-0.646L0.248,-0.646L0.248,-0.813Z" style="fill:#ebebeb;fill-rule:nonzero;"/>
                </g>
                <g transform="matrix(36,0,0,36,1464.45,1156.54)">
                    <path d="M0.392,-0.282C0.392,-0.331 0.383,-0.37 0.364,-0.4C0.346,-0.429 0.321,-0.444 0.291,-0.444C0.261,-0.444 0.237,-0.429 0.219,-0.4C0.2,-0.371 0.191,-0.331 0.191,-0.282C0.191,-0.233 0.2,-0.193 0.219,-0.164C0.237,-0.135 0.261,-0.12 0.291,-0.12C0.321,-0.12 0.346,-0.135 0.364,-0.164C0.383,-0.194 0.392,-0.233 0.392,-0.282ZM0.535,-0.041C0.535,0.047 0.515,0.11 0.476,0.149C0.436,0.188 0.372,0.207 0.283,0.207C0.253,0.207 0.224,0.205 0.194,0.2C0.165,0.196 0.135,0.189 0.105,0.18L0.105,0.049C0.132,0.064 0.16,0.075 0.188,0.082C0.215,0.089 0.244,0.093 0.274,0.093C0.314,0.093 0.344,0.083 0.363,0.064C0.382,0.045 0.392,0.015 0.392,-0.025L0.392,-0.084C0.378,-0.058 0.36,-0.039 0.336,-0.026C0.313,-0.013 0.285,-0.007 0.252,-0.007C0.189,-0.007 0.14,-0.031 0.103,-0.08C0.066,-0.129 0.048,-0.195 0.048,-0.279C0.048,-0.365 0.066,-0.434 0.103,-0.485C0.14,-0.536 0.189,-0.561 0.251,-0.561C0.282,-0.561 0.31,-0.554 0.334,-0.539C0.359,-0.524 0.378,-0.504 0.392,-0.477L0.392,-0.547L0.535,-0.547L0.535,-0.041Z" style="fill:#ebebeb;fill-rule:nonzero;"/>
                </g>
                <g transform="matrix(36,0,0,36,1486.12,1156.54)">
                    <path d="M0.108,-0.547L0.391,-0.547L0.391,-0.11L0.569,-0.11L0.569,-0L0.07,-0L0.07,-0.11L0.248,-0.11L0.248,-0.437L0.108,-0.437L0.108,-0.547ZM0.248,-0.813L0.391,-0.813L0.391,-0.646L0.248,-0.646L0.248,-0.813Z" style="fill:#ebebeb;fill-rule:nonzero;"/>
                </g>
                <g transform="matrix(36,0,0,36,1507.8,1156.54)">
                    <path d="M0.337,-0.702L0.337,-0.547L0.524,-0.547L0.524,-0.437L0.337,-0.437L0.337,-0.178C0.337,-0.154 0.343,-0.136 0.355,-0.126C0.367,-0.115 0.386,-0.11 0.414,-0.11L0.524,-0.11L0.524,-0L0.404,-0C0.322,-0 0.266,-0.013 0.237,-0.039C0.208,-0.066 0.194,-0.114 0.194,-0.185L0.194,-0.437L0.054,-0.437L0.054,-0.547L0.194,-0.547L0.194,-0.702L0.337,-0.702Z" style="fill:#ebebeb;fill-rule:nonzero;"/>
                </g>
                <g transform="matrix(36,0,0,36,1529.47,1156.54)">
                    <path d="M0.342,-0.257C0.288,-0.257 0.251,-0.25 0.23,-0.236C0.209,-0.223 0.198,-0.199 0.198,-0.166C0.198,-0.141 0.206,-0.122 0.22,-0.107C0.235,-0.092 0.255,-0.085 0.28,-0.085C0.318,-0.085 0.347,-0.099 0.368,-0.128C0.389,-0.156 0.399,-0.196 0.399,-0.247L0.399,-0.257L0.342,-0.257ZM0.541,-0.312L0.541,-0L0.399,-0L0.399,-0.061C0.382,-0.037 0.36,-0.018 0.333,-0.005C0.306,0.008 0.276,0.014 0.243,0.014C0.181,0.014 0.133,-0.002 0.098,-0.035C0.063,-0.068 0.046,-0.114 0.046,-0.173C0.046,-0.237 0.067,-0.284 0.108,-0.314C0.149,-0.345 0.213,-0.36 0.3,-0.36L0.399,-0.36L0.399,-0.384C0.399,-0.407 0.391,-0.424 0.374,-0.436C0.357,-0.448 0.332,-0.454 0.3,-0.454C0.266,-0.454 0.233,-0.45 0.2,-0.441C0.168,-0.433 0.135,-0.419 0.1,-0.4L0.1,-0.522C0.132,-0.535 0.164,-0.545 0.196,-0.551C0.229,-0.557 0.263,-0.56 0.3,-0.56C0.389,-0.56 0.451,-0.542 0.487,-0.506C0.523,-0.47 0.541,-0.405 0.541,-0.312Z" style="fill:#ebebeb;fill-rule:nonzero;"/>
                </g>
                <g transform="matrix(36,0,0,36,1551.14,1156.54)">
                    <path d="M0.189,-0.228L0.189,-0.65L0.044,-0.65L0.044,-0.76L0.332,-0.76L0.332,-0.228C0.332,-0.185 0.339,-0.155 0.352,-0.137C0.365,-0.119 0.388,-0.11 0.42,-0.11L0.534,-0.11L0.534,-0L0.38,-0C0.312,-0 0.263,-0.018 0.233,-0.053C0.204,-0.088 0.189,-0.146 0.189,-0.228Z" style="fill:#ebebeb;fill-rule:nonzero;"/>
                </g>
                <g transform="matrix(36,0,0,36,1594.49,1156.54)">
                    <path d="M0.11,-0L0.11,-0.729L0.254,-0.729L0.254,-0.127L0.562,-0.127L0.562,-0L0.11,-0Z" style="fill:#ebebeb;fill-rule:nonzero;"/>
                </g>
                <g transform="matrix(36,0,0,36,1616.17,1156.54)">
                    <path d="M0.342,-0.257C0.288,-0.257 0.251,-0.25 0.23,-0.236C0.209,-0.223 0.198,-0.199 0.198,-0.166C0.198,-0.141 0.206,-0.122 0.22,-0.107C0.235,-0.092 0.255,-0.085 0.28,-0.085C0.318,-0.085 0.347,-0.099 0.368,-0.128C0.389,-0.156 0.399,-0.196 0.399,-0.247L0.399,-0.257L0.342,-0.257ZM0.541,-0.312L0.541,-0L0.399,-0L0.399,-0.061C0.382,-0.037 0.36,-0.018 0.333,-0.005C0.306,0.008 0.276,0.014 0.243,0.014C0.181,0.014 0.133,-0.002 0.098,-0.035C0.063,-0.068 0.046,-0.114 0.046,-0.173C0.046,-0.237 0.067,-0.284 0.108,-0.314C0.149,-0.345 0.213,-0.36 0.3,-0.36L0.399,-0.36L0.399,-0.384C0.399,-0.407 0.391,-0.424 0.374,-0.436C0.357,-0.448 0.332,-0.454 0.3,-0.454C0.266,-0.454 0.233,-0.45 0.2,-0.441C0.168,-0.433 0.135,-0.419 0.1,-0.4L0.1,-0.522C0.132,-0.535 0.164,-0.545 0.196,-0.551C0.229,-0.557 0.263,-0.56 0.3,-0.56C0.389,-0.56 0.451,-0.542 0.487,-0.506C0.523,-0.47 0.541,-0.405 0.541,-0.312Z" style="fill:#ebebeb;fill-rule:nonzero;"/>
                </g>
                <g transform="matrix(36,0,0,36,1637.84,1156.54)">
                    <path d="M0.523,-0.355L0.523,-0L0.381,-0L0.381,-0.333C0.381,-0.373 0.375,-0.401 0.364,-0.418C0.353,-0.435 0.334,-0.444 0.309,-0.444C0.283,-0.444 0.263,-0.432 0.248,-0.409C0.233,-0.386 0.226,-0.354 0.226,-0.313L0.226,-0L0.084,-0L0.084,-0.547L0.226,-0.547L0.226,-0.465C0.236,-0.495 0.253,-0.519 0.278,-0.535C0.302,-0.552 0.332,-0.56 0.366,-0.56C0.418,-0.56 0.457,-0.543 0.483,-0.509C0.51,-0.474 0.523,-0.423 0.523,-0.355Z" style="fill:#ebebeb;fill-rule:nonzero;"/>
                </g>
                <g transform="matrix(36,0,0,36,1659.51,1156.54)">
                    <path d="M0.386,-0.469L0.386,-0.76L0.529,-0.76L0.529,-0L0.386,-0L0.386,-0.081C0.371,-0.049 0.351,-0.026 0.327,-0.01C0.303,0.006 0.274,0.014 0.241,0.014C0.179,0.014 0.13,-0.011 0.096,-0.061C0.061,-0.111 0.044,-0.182 0.044,-0.273C0.044,-0.365 0.061,-0.436 0.096,-0.486C0.131,-0.535 0.181,-0.56 0.246,-0.56C0.275,-0.56 0.302,-0.552 0.325,-0.537C0.348,-0.522 0.369,-0.5 0.386,-0.469ZM0.187,-0.272C0.187,-0.219 0.196,-0.178 0.213,-0.148C0.231,-0.118 0.255,-0.103 0.286,-0.103C0.317,-0.103 0.341,-0.118 0.359,-0.148C0.377,-0.178 0.386,-0.219 0.386,-0.272C0.386,-0.325 0.377,-0.366 0.359,-0.396C0.341,-0.426 0.317,-0.441 0.286,-0.441C0.255,-0.441 0.231,-0.426 0.213,-0.396C0.196,-0.366 0.187,-0.325 0.187,-0.272Z" style="fill:#ebebeb;fill-rule:nonzero;"/>
                </g>
            </g>
            <g transform="matrix(1,0,0,1,-1071.14,-537.373)">
                <g transform="matrix(36,0,0,36,1518.63,1137)">
                    <path d="M0.004,-0.729L0.159,-0.729L0.301,-0.436L0.443,-0.729L0.598,-0.729L0.373,-0.287L0.373,-0L0.229,-0L0.229,-0.287L0.004,-0.729Z" style="fill:#ebebeb;fill-rule:nonzero;"/>
                </g>
                <g transform="matrix(36,0,0,36,1540.31,1137)">
                    <path d="M0.301,-0.444C0.267,-0.444 0.24,-0.429 0.22,-0.399C0.201,-0.369 0.191,-0.327 0.191,-0.273C0.191,-0.219 0.201,-0.177 0.22,-0.147C0.24,-0.117 0.267,-0.102 0.301,-0.102C0.335,-0.102 0.362,-0.117 0.382,-0.147C0.401,-0.177 0.411,-0.219 0.411,-0.273C0.411,-0.327 0.401,-0.369 0.382,-0.399C0.362,-0.429 0.335,-0.444 0.301,-0.444ZM0.048,-0.273C0.048,-0.361 0.071,-0.431 0.116,-0.483C0.162,-0.534 0.224,-0.56 0.301,-0.56C0.378,-0.56 0.44,-0.534 0.486,-0.483C0.531,-0.431 0.554,-0.361 0.554,-0.273C0.554,-0.185 0.531,-0.115 0.486,-0.063C0.44,-0.012 0.378,0.014 0.301,0.014C0.224,0.014 0.162,-0.012 0.116,-0.063C0.071,-0.115 0.048,-0.185 0.048,-0.273Z" style="fill:#ebebeb;fill-rule:nonzero;"/>
                </g>
                <g transform="matrix(36,0,0,36,1561.98,1137)">
                    <path d="M0.078,-0.191L0.078,-0.547L0.221,-0.547L0.221,-0.213C0.221,-0.174 0.227,-0.145 0.238,-0.128C0.249,-0.111 0.267,-0.103 0.293,-0.103C0.319,-0.103 0.339,-0.114 0.353,-0.137C0.368,-0.16 0.375,-0.192 0.375,-0.233L0.375,-0.547L0.518,-0.547L0.518,-0L0.375,-0L0.375,-0.081C0.365,-0.051 0.348,-0.027 0.323,-0.011C0.299,0.006 0.27,0.014 0.236,0.014C0.184,0.014 0.144,-0.003 0.118,-0.038C0.091,-0.072 0.078,-0.123 0.078,-0.191Z" style="fill:#ebebeb;fill-rule:nonzero;"/>
                </g>
            </g>
            <g transform="matrix(1,0,0,1,1.5672,0.214823)">
                <g transform="matrix(0.867306,0,0,0.86914,-854.375,-761.167)">
                    <path d="M1292.55,1302.64L1302.9,1312.99L1285.9,1330L1302.9,1347.01L1292.55,1357.36L1275.54,1340.35L1258.53,1357.36L1248.18,1347.01L1265.18,1330L1248.18,1312.99L1258.53,1302.64L1275.54,1319.64L1292.55,1302.64Z" style="fill-opacity:0.2;"/>
                </g>
                <g transform="matrix(0.867306,0,0,0.86914,-856.9,-763.681)">
                    <path d="M1292.55,1302.64L1302.9,1312.99L1285.9,1330L1302.9,1347.01L1292.55,1357.36L1275.54,1340.35L1258.53,1357.36L1248.18,1347.01L1265.18,1330L1248.18,1312.99L1258.53,1302.64L1275.54,1319.64L1292.55,1302.64Z" style="fill:#e53f21;"/>
                </g>
            </g>
            <g>
                <g transform="matrix(0.663142,0,0,1,-339.642,-800.746)">
                    <path d="M1867.05,864.431C1867.05,852.85 1852.87,843.448 1835.41,843.448L1324.5,843.448C1307.04,843.448 1292.86,852.85 1292.86,864.431L1292.86,962.353C1292.86,973.934 1307.04,983.336 1324.5,983.336L1835.41,983.336C1852.87,983.336 1867.05,973.934 1867.05,962.353L1867.05,864.431ZM1854.9,864.431L1854.9,962.353C1854.9,969.485 1846.16,975.276 1835.41,975.276C1835.41,975.276 1324.5,975.276 1324.5,975.276C1313.74,975.276 1305.01,969.485 1305.01,962.353L1305.01,864.431C1305.01,857.299 1313.74,851.509 1324.5,851.509C1324.5,851.509 1835.41,851.509 1835.41,851.509C1846.16,851.509 1854.9,857.299 1854.9,864.431Z" style="fill:#fff;"/>
                </g>
                <g transform="matrix(1,0,0,1,-819.386,-1029.14)">
                    <g transform="matrix(36,0,0,36,1462.46,1156)">
                        <path d="M0.249,-0.32C0.176,-0.347 0.127,-0.377 0.102,-0.407C0.076,-0.437 0.063,-0.478 0.063,-0.53C0.063,-0.596 0.084,-0.648 0.126,-0.686C0.169,-0.723 0.227,-0.742 0.301,-0.742C0.334,-0.742 0.368,-0.738 0.401,-0.731C0.435,-0.723 0.468,-0.712 0.501,-0.697L0.501,-0.556C0.47,-0.578 0.439,-0.595 0.407,-0.606C0.375,-0.617 0.343,-0.623 0.312,-0.623C0.277,-0.623 0.25,-0.616 0.232,-0.602C0.213,-0.588 0.204,-0.568 0.204,-0.542C0.204,-0.522 0.211,-0.505 0.224,-0.492C0.238,-0.479 0.266,-0.464 0.309,-0.448L0.371,-0.425C0.43,-0.403 0.473,-0.375 0.5,-0.339C0.528,-0.304 0.542,-0.259 0.542,-0.205C0.542,-0.132 0.52,-0.077 0.477,-0.04C0.433,-0.004 0.368,0.014 0.28,0.014C0.244,0.014 0.207,0.01 0.171,0.001C0.135,-0.007 0.1,-0.02 0.066,-0.037L0.066,-0.186C0.104,-0.159 0.142,-0.138 0.177,-0.125C0.213,-0.112 0.249,-0.105 0.284,-0.105C0.32,-0.105 0.347,-0.113 0.367,-0.129C0.386,-0.145 0.396,-0.168 0.396,-0.197C0.396,-0.219 0.389,-0.238 0.376,-0.254C0.363,-0.271 0.345,-0.284 0.32,-0.293L0.249,-0.32Z" style="fill:#fff;fill-rule:nonzero;"/>
                    </g>
                    <g transform="matrix(36,0,0,36,1484.13,1156)">
                        <path d="M0.301,-0.444C0.267,-0.444 0.24,-0.429 0.22,-0.399C0.201,-0.369 0.191,-0.327 0.191,-0.273C0.191,-0.219 0.201,-0.177 0.22,-0.147C0.24,-0.117 0.267,-0.102 0.301,-0.102C0.335,-0.102 0.362,-0.117 0.382,-0.147C0.401,-0.177 0.411,-0.219 0.411,-0.273C0.411,-0.327 0.401,-0.369 0.382,-0.399C0.362,-0.429 0.335,-0.444 0.301,-0.444ZM0.048,-0.273C0.048,-0.361 0.071,-0.431 0.116,-0.483C0.162,-0.534 0.224,-0.56 0.301,-0.56C0.378,-0.56 0.44,-0.534 0.486,-0.483C0.531,-0.431 0.554,-0.361 0.554,-0.273C0.554,-0.185 0.531,-0.115 0.486,-0.063C0.44,-0.012 0.378,0.014 0.301,0.014C0.224,0.014 0.162,-0.012 0.116,-0.063C0.071,-0.115 0.048,-0.185 0.048,-0.273Z" style="fill:#fff;fill-rule:nonzero;"/>
                    </g>
                    <g transform="matrix(36,0,0,36,1505.8,1156)">
                        <path d="M0.078,-0.191L0.078,-0.547L0.221,-0.547L0.221,-0.213C0.221,-0.174 0.227,-0.145 0.238,-0.128C0.249,-0.111 0.267,-0.103 0.293,-0.103C0.319,-0.103 0.339,-0.114 0.353,-0.137C0.368,-0.16 0.375,-0.192 0.375,-0.233L0.375,-0.547L0.518,-0.547L0.518,-0L0.375,-0L0.375,-0.081C0.365,-0.051 0.348,-0.027 0.323,-0.011C0.299,0.006 0.27,0.014 0.236,0.014C0.184,0.014 0.144,-0.003 0.118,-0.038C0.091,-0.072 0.078,-0.123 0.078,-0.191Z" style="fill:#fff;fill-rule:nonzero;"/>
                    </g>
                    <g transform="matrix(36,0,0,36,1527.48,1156)">
                        <path d="M0.562,-0.396C0.546,-0.41 0.528,-0.421 0.507,-0.428C0.486,-0.435 0.463,-0.439 0.438,-0.439C0.408,-0.439 0.381,-0.434 0.359,-0.423C0.336,-0.413 0.319,-0.397 0.306,-0.377C0.298,-0.365 0.293,-0.35 0.29,-0.332C0.287,-0.314 0.285,-0.288 0.285,-0.252L0.285,-0L0.142,-0L0.142,-0.547L0.285,-0.547L0.285,-0.462C0.299,-0.493 0.321,-0.517 0.35,-0.534C0.379,-0.552 0.412,-0.56 0.451,-0.56C0.471,-0.56 0.49,-0.558 0.509,-0.553C0.527,-0.548 0.545,-0.541 0.562,-0.532L0.562,-0.396Z" style="fill:#fff;fill-rule:nonzero;"/>
                    </g>
                    <g transform="matrix(36,0,0,36,1549.15,1156)">
                        <path d="M0.518,-0.028C0.494,-0.014 0.468,-0.003 0.44,0.004C0.413,0.011 0.383,0.014 0.351,0.014C0.267,0.014 0.201,-0.011 0.153,-0.062C0.106,-0.113 0.082,-0.183 0.082,-0.273C0.082,-0.363 0.106,-0.434 0.154,-0.485C0.202,-0.536 0.268,-0.561 0.352,-0.561C0.381,-0.561 0.41,-0.558 0.437,-0.551C0.464,-0.544 0.491,-0.533 0.518,-0.519L0.518,-0.388C0.497,-0.406 0.474,-0.42 0.449,-0.429C0.425,-0.439 0.399,-0.444 0.372,-0.444C0.326,-0.444 0.29,-0.429 0.265,-0.399C0.24,-0.37 0.227,-0.328 0.227,-0.273C0.227,-0.218 0.24,-0.176 0.265,-0.147C0.29,-0.118 0.326,-0.103 0.372,-0.103C0.4,-0.103 0.426,-0.108 0.45,-0.117C0.474,-0.126 0.497,-0.14 0.518,-0.159L0.518,-0.028Z" style="fill:#fff;fill-rule:nonzero;"/>
                    </g>
                    <g transform="matrix(36,0,0,36,1570.82,1156)">
                        <path d="M0.538,-0.027C0.505,-0.013 0.471,-0.003 0.437,0.004C0.402,0.011 0.366,0.014 0.327,0.014C0.236,0.014 0.166,-0.01 0.117,-0.059C0.069,-0.108 0.045,-0.179 0.045,-0.271C0.045,-0.36 0.068,-0.431 0.115,-0.482C0.161,-0.534 0.225,-0.56 0.305,-0.56C0.386,-0.56 0.449,-0.536 0.494,-0.488C0.539,-0.44 0.561,-0.372 0.561,-0.285L0.561,-0.227L0.19,-0.227C0.191,-0.184 0.203,-0.152 0.229,-0.131C0.254,-0.11 0.291,-0.099 0.341,-0.099C0.374,-0.099 0.406,-0.104 0.438,-0.113C0.47,-0.123 0.503,-0.138 0.538,-0.158L0.538,-0.027ZM0.417,-0.334C0.416,-0.372 0.407,-0.401 0.388,-0.42C0.369,-0.44 0.342,-0.449 0.305,-0.449C0.272,-0.449 0.246,-0.439 0.227,-0.419C0.207,-0.399 0.195,-0.371 0.192,-0.334L0.417,-0.334Z" style="fill:#fff;fill-rule:nonzero;"/>
                    </g>
                </g>
                <g transform="matrix(1,0,0,1,582.695,14.9321)">
                    <g transform="matrix(-1.46218,1.79065e-16,-1.79065e-16,-1.46218,387.856,310.292)">
                        <path d="M176,115.5C176,113.6 177.6,112 179.5,112C181.4,112 183,113.6 183,115.5C183,117.4 181.4,119 179.5,119C177.6,119 176,117.4 176,115.5ZM176,101.5C176,99.6 177.6,98 179.5,98C181.4,98 183,99.6 183,101.5C183,103.4 181.4,105 179.5,105C177.6,105 176,103.4 176,101.5ZM176,87.5C176,85.6 177.6,84 179.5,84C181.4,84 183,85.6 183,87.5C183,89.4 181.4,91 179.5,91C177.6,91 176,89.4 176,87.5ZM176,73.5C176,71.6 177.6,70 179.5,70C181.4,70 183,71.6 183,73.5C183,75.4 181.4,77 179.5,77C177.6,77 176,75.4 176,73.5ZM176,59.5C176,57.6 177.6,56 179.5,56C181.4,56 183,57.6 183,59.5C183,61.4 181.4,63 179.5,63C177.6,63 176,61.4 176,59.5ZM176,45.5C176,43.6 177.6,42 179.5,42C181.4,42 183,43.6 183,45.5C183,47.4 181.4,49 179.5,49C177.6,49 176,47.4 176,45.5ZM176,31.5C176,29.6 177.6,28 179.5,28C181.4,28 183,29.6 183,31.5C183,33.4 181.4,35 179.5,35C177.6,35 176,33.4 176,31.5ZM176,17.5C176,15.6 177.6,14 179.5,14C181.4,14 183,15.6 183,17.5C183,19.4 181.4,21 179.5,21C177.6,21 176,19.4 176,17.5ZM176,3.5C176,1.6 177.6,0 179.5,0C181.4,0 183,1.6 183,3.5C183,5.4 181.4,7 179.5,7C177.6,7 176,5.4 176,3.5Z" style="fill:#a4fbfb;fill-rule:nonzero;"/>
                        <path d="M185.039,108.5C187.117,106.844 188.471,104.299 188.471,101.5C188.471,98.701 187.117,96.156 185.039,94.5C187.117,92.844 188.471,90.299 188.471,87.5C188.471,84.701 187.117,82.156 185.039,80.5C187.117,78.844 188.471,76.299 188.471,73.5C188.471,70.701 187.117,68.156 185.039,66.5C187.117,64.844 188.471,62.299 188.471,59.5C188.471,56.701 187.117,54.156 185.039,52.5C187.117,50.844 188.471,48.299 188.471,45.5C188.471,42.701 187.117,40.156 185.039,38.5C187.117,36.844 188.471,34.299 188.471,31.5C188.471,28.701 187.117,26.156 185.039,24.5C187.117,22.844 188.471,20.299 188.471,17.5C188.471,14.701 187.117,12.156 185.039,10.5C187.117,8.844 188.471,6.299 188.471,3.5C188.471,-1.37 184.37,-5.471 179.5,-5.471C174.63,-5.471 170.529,-1.37 170.529,3.5C170.529,6.299 171.883,8.844 173.961,10.5C171.883,12.156 170.529,14.701 170.529,17.5C170.529,20.299 171.883,22.844 173.961,24.5C171.883,26.156 170.529,28.701 170.529,31.5C170.529,34.299 171.883,36.844 173.961,38.5C171.883,40.156 170.529,42.701 170.529,45.5C170.529,48.299 171.883,50.844 173.961,52.5C171.883,54.156 170.529,56.701 170.529,59.5C170.529,62.299 171.883,64.844 173.961,66.5C171.883,68.156 170.529,70.701 170.529,73.5C170.529,76.299 171.883,78.844 173.961,80.5C171.883,82.156 170.529,84.701 170.529,87.5C170.529,90.299 171.883,92.844 173.961,94.5C171.883,96.156 170.529,98.701 170.529,101.5C170.529,104.299 171.883,106.844 173.961,108.5C171.883,110.156 170.529,112.701 170.529,115.5C170.529,120.37 174.63,124.471 179.5,124.471C184.37,124.471 188.471,120.37 188.471,115.5C188.471,112.701 187.117,110.156 185.039,108.5ZM176,3.5C176,1.6 177.6,0 179.5,0C181.4,0 183,1.6 183,3.5C183,5.4 181.4,7 179.5,7C177.6,7 176,5.4 176,3.5ZM176,17.5C176,15.6 177.6,14 179.5,14C181.4,14 183,15.6 183,17.5C183,19.4 181.4,21 179.5,21C177.6,21 176,19.4 176,17.5ZM176,31.5C176,29.6 177.6,28 179.5,28C181.4,28 183,29.6 183,31.5C183,33.4 181.4,35 179.5,35C177.6,35 176,33.4 176,31.5ZM176,45.5C176,43.6 177.6,42 179.5,42C181.4,42 183,43.6 183,45.5C183,47.4 181.4,49 179.5,49C177.6,49 176,47.4 176,45.5ZM176,59.5C176,57.6 177.6,56 179.5,56C181.4,56 183,57.6 183,59.5C183,61.4 181.4,63 179.5,63C177.6,63 176,61.4 176,59.5ZM176,73.5C176,71.6 177.6,70 179.5,70C181.4,70 183,71.6 183,73.5C183,75.4 181.4,77 179.5,77C177.6,77 176,75.4 176,73.5ZM176,87.5C176,85.6 177.6,84 179.5,84C181.4,84 183,85.6 183,87.5C183,89.4 181.4,91 179.5,91C177.6,91 176,89.4 176,87.5ZM176,101.5C176,99.6 177.6,98 179.5,98C181.4,98 183,99.6 183,101.5C183,103.4 181.4,105 179.5,105C177.6,105 176,103.4 176,101.5ZM176,115.5C176,113.6 177.6,112 179.5,112C181.4,112 183,113.6 183,115.5C183,117.4 181.4,119 179.5,119C177.6,119 176,117.4 176,115.5Z" style="fill:#1f70b8;"/>
                    </g>
                    <g transform="matrix(4.39604e-17,0.717928,-0.717928,4.39604e-17,378.985,-154.734)">
                        <path d="M674.67,353.224L637,323.798C634.723,322.019 634.319,318.727 636.097,316.45C637.876,314.173 641.168,313.769 643.445,315.547L686.341,349.057C687.672,350.097 688.363,351.655 688.352,353.224C688.363,354.794 687.672,356.352 686.341,357.392L643.445,390.901C641.168,392.68 637.876,392.275 636.097,389.998C634.319,387.722 634.723,384.429 637,382.651L674.67,353.224Z" style="fill:#a4fbfb;"/>
                        <path d="M656.568,353.224L630.14,373.869C623.017,379.434 621.751,389.735 627.316,396.858C632.88,403.981 643.181,405.247 650.305,399.682C650.305,399.682 693.201,366.173 693.201,366.173C697.341,362.939 699.507,358.106 699.495,353.224C699.507,348.343 697.341,343.51 693.201,340.275C693.201,340.275 650.305,306.766 650.305,306.766C643.181,301.201 632.88,302.467 627.316,309.59C621.751,316.714 623.017,327.015 630.14,332.579L656.568,353.224ZM674.67,353.224L637,323.798C634.723,322.019 634.319,318.727 636.097,316.45C637.876,314.173 641.168,313.769 643.445,315.547L686.341,349.057C687.672,350.097 688.363,351.655 688.352,353.224C688.363,354.794 687.672,356.352 686.341,357.392L643.445,390.901C641.168,392.68 637.876,392.275 636.097,389.998C634.319,387.722 634.723,384.429 637,382.651L674.67,353.224Z" style="fill:#1f70b8;"/>
                    </g>
                </g>
            </g>
            <g transform="matrix(1,0,0,1,-455.877,0)">
                <g transform="matrix(0.663142,0,0,1,-339.642,-800.746)">
                    <path d="M1867.05,864.431C1867.05,852.85 1852.87,843.448 1835.41,843.448L1324.5,843.448C1307.04,843.448 1292.86,852.85 1292.86,864.431L1292.86,962.353C1292.86,973.934 1307.04,983.336 1324.5,983.336L1835.41,983.336C1852.87,983.336 1867.05,973.934 1867.05,962.353L1867.05,864.431ZM1854.9,864.431L1854.9,962.353C1854.9,969.485 1846.16,975.276 1835.41,975.276C1835.41,975.276 1324.5,975.276 1324.5,975.276C1313.74,975.276 1305.01,969.485 1305.01,962.353L1305.01,864.431C1305.01,857.299 1313.74,851.509 1324.5,851.509C1324.5,851.509 1835.41,851.509 1835.41,851.509C1846.16,851.509 1854.9,857.299 1854.9,864.431Z" style="fill:#fff;"/>
                </g>
                <g transform="matrix(1,0,0,1,-819.386,-1029.14)">
                    <g transform="matrix(36,0,0,36,1462.46,1156)">
                        <path d="M0.249,-0.32C0.176,-0.347 0.127,-0.377 0.102,-0.407C0.076,-0.437 0.063,-0.478 0.063,-0.53C0.063,-0.596 0.084,-0.648 0.126,-0.686C0.169,-0.723 0.227,-0.742 0.301,-0.742C0.334,-0.742 0.368,-0.738 0.401,-0.731C0.435,-0.723 0.468,-0.712 0.501,-0.697L0.501,-0.556C0.47,-0.578 0.439,-0.595 0.407,-0.606C0.375,-0.617 0.343,-0.623 0.312,-0.623C0.277,-0.623 0.25,-0.616 0.232,-0.602C0.213,-0.588 0.204,-0.568 0.204,-0.542C0.204,-0.522 0.211,-0.505 0.224,-0.492C0.238,-0.479 0.266,-0.464 0.309,-0.448L0.371,-0.425C0.43,-0.403 0.473,-0.375 0.5,-0.339C0.528,-0.304 0.542,-0.259 0.542,-0.205C0.542,-0.132 0.52,-0.077 0.477,-0.04C0.433,-0.004 0.368,0.014 0.28,0.014C0.244,0.014 0.207,0.01 0.171,0.001C0.135,-0.007 0.1,-0.02 0.066,-0.037L0.066,-0.186C0.104,-0.159 0.142,-0.138 0.177,-0.125C0.213,-0.112 0.249,-0.105 0.284,-0.105C0.32,-0.105 0.347,-0.113 0.367,-0.129C0.386,-0.145 0.396,-0.168 0.396,-0.197C0.396,-0.219 0.389,-0.238 0.376,-0.254C0.363,-0.271 0.345,-0.284 0.32,-0.293L0.249,-0.32Z" style="fill:#fff;fill-rule:nonzero;"/>
                    </g>
                    <g transform="matrix(36,0,0,36,1484.13,1156)">
                        <path d="M0.301,-0.444C0.267,-0.444 0.24,-0.429 0.22,-0.399C0.201,-0.369 0.191,-0.327 0.191,-0.273C0.191,-0.219 0.201,-0.177 0.22,-0.147C0.24,-0.117 0.267,-0.102 0.301,-0.102C0.335,-0.102 0.362,-0.117 0.382,-0.147C0.401,-0.177 0.411,-0.219 0.411,-0.273C0.411,-0.327 0.401,-0.369 0.382,-0.399C0.362,-0.429 0.335,-0.444 0.301,-0.444ZM0.048,-0.273C0.048,-0.361 0.071,-0.431 0.116,-0.483C0.162,-0.534 0.224,-0.56 0.301,-0.56C0.378,-0.56 0.44,-0.534 0.486,-0.483C0.531,-0.431 0.554,-0.361 0.554,-0.273C0.554,-0.185 0.531,-0.115 0.486,-0.063C0.44,-0.012 0.378,0.014 0.301,0.014C0.224,0.014 0.162,-0.012 0.116,-0.063C0.071,-0.115 0.048,-0.185 0.048,-0.273Z" style="fill:#fff;fill-rule:nonzero;"/>
                    </g>
                    <g transform="matrix(36,0,0,36,1505.8,1156)">
                        <path d="M0.078,-0.191L0.078,-0.547L0.221,-0.547L0.221,-0.213C0.221,-0.174 0.227,-0.145 0.238,-0.128C0.249,-0.111 0.267,-0.103 0.293,-0.103C0.319,-0.103 0.339,-0.114 0.353,-0.137C0.368,-0.16 0.375,-0.192 0.375,-0.233L0.375,-0.547L0.518,-0.547L0.518,-0L0.375,-0L0.375,-0.081C0.365,-0.051 0.348,-0.027 0.323,-0.011C0.299,0.006 0.27,0.014 0.236,0.014C0.184,0.014 0.144,-0.003 0.118,-0.038C0.091,-0.072 0.078,-0.123 0.078,-0.191Z" style="fill:#fff;fill-rule:nonzero;"/>
                    </g>
                    <g transform="matrix(36,0,0,36,1527.48,1156)">
                        <path d="M0.562,-0.396C0.546,-0.41 0.528,-0.421 0.507,-0.428C0.486,-0.435 0.463,-0.439 0.438,-0.439C0.408,-0.439 0.381,-0.434 0.359,-0.423C0.336,-0.413 0.319,-0.397 0.306,-0.377C0.298,-0.365 0.293,-0.35 0.29,-0.332C0.287,-0.314 0.285,-0.288 0.285,-0.252L0.285,-0L0.142,-0L0.142,-0.547L0.285,-0.547L0.285,-0.462C0.299,-0.493 0.321,-0.517 0.35,-0.534C0.379,-0.552 0.412,-0.56 0.451,-0.56C0.471,-0.56 0.49,-0.558 0.509,-0.553C0.527,-0.548 0.545,-0.541 0.562,-0.532L0.562,-0.396Z" style="fill:#fff;fill-rule:nonzero;"/>
                    </g>
                    <g transform="matrix(36,0,0,36,1549.15,1156)">
                        <path d="M0.518,-0.028C0.494,-0.014 0.468,-0.003 0.44,0.004C0.413,0.011 0.383,0.014 0.351,0.014C0.267,0.014 0.201,-0.011 0.153,-0.062C0.106,-0.113 0.082,-0.183 0.082,-0.273C0.082,-0.363 0.106,-0.434 0.154,-0.485C0.202,-0.536 0.268,-0.561 0.352,-0.561C0.381,-0.561 0.41,-0.558 0.437,-0.551C0.464,-0.544 0.491,-0.533 0.518,-0.519L0.518,-0.388C0.497,-0.406 0.474,-0.42 0.449,-0.429C0.425,-0.439 0.399,-0.444 0.372,-0.444C0.326,-0.444 0.29,-0.429 0.265,-0.399C0.24,-0.37 0.227,-0.328 0.227,-0.273C0.227,-0.218 0.24,-0.176 0.265,-0.147C0.29,-0.118 0.326,-0.103 0.372,-0.103C0.4,-0.103 0.426,-0.108 0.45,-0.117C0.474,-0.126 0.497,-0.14 0.518,-0.159L0.518,-0.028Z" style="fill:#fff;fill-rule:nonzero;"/>
                    </g>
                    <g transform="matrix(36,0,0,36,1570.82,1156)">
                        <path d="M0.538,-0.027C0.505,-0.013 0.471,-0.003 0.437,0.004C0.402,0.011 0.366,0.014 0.327,0.014C0.236,0.014 0.166,-0.01 0.117,-0.059C0.069,-0.108 0.045,-0.179 0.045,-0.271C0.045,-0.36 0.068,-0.431 0.115,-0.482C0.161,-0.534 0.225,-0.56 0.305,-0.56C0.386,-0.56 0.449,-0.536 0.494,-0.488C0.539,-0.44 0.561,-0.372 0.561,-0.285L0.561,-0.227L0.19,-0.227C0.191,-0.184 0.203,-0.152 0.229,-0.131C0.254,-0.11 0.291,-0.099 0.341,-0.099C0.374,-0.099 0.406,-0.104 0.438,-0.113C0.47,-0.123 0.503,-0.138 0.538,-0.158L0.538,-0.027ZM0.417,-0.334C0.416,-0.372 0.407,-0.401 0.388,-0.42C0.369,-0.44 0.342,-0.449 0.305,-0.449C0.272,-0.449 0.246,-0.439 0.227,-0.419C0.207,-0.399 0.195,-0.371 0.192,-0.334L0.417,-0.334Z" style="fill:#fff;fill-rule:nonzero;"/>
                    </g>
                </g>
            </g>
            <g transform="matrix(1,0,0,1,354.604,196.092)">
                <g transform="matrix(-1.46218,1.79065e-16,-1.79065e-16,-1.46218,387.856,310.292)">
                    <path d="M176,45.5C176,43.6 177.6,42 179.5,42C181.4,42 183,43.6 183,45.5C183,47.4 181.4,49 179.5,49C177.6,49 176,47.4 176,45.5ZM176,31.5C176,29.6 177.6,28 179.5,28C181.4,28 183,29.6 183,31.5C183,33.4 181.4,35 179.5,35C177.6,35 176,33.4 176,31.5ZM176,17.5C176,15.6 177.6,14 179.5,14C181.4,14 183,15.6 183,17.5C183,19.4 181.4,21 179.5,21C177.6,21 176,19.4 176,17.5ZM176,3.5C176,1.6 177.6,0 179.5,0C181.4,0 183,1.6 183,3.5C183,5.4 181.4,7 179.5,7C177.6,7 176,5.4 176,3.5Z" style="fill:#74c2fb;fill-rule:nonzero;"/>
                    <path d="M185.039,38.5C187.117,36.844 188.471,34.299 188.471,31.5C188.471,28.701 187.117,26.156 185.039,24.5C187.117,22.844 188.471,20.299 188.471,17.5C188.471,14.701 187.117,12.156 185.039,10.5C187.117,8.844 188.471,6.299 188.471,3.5C188.471,-1.37 184.37,-5.471 179.5,-5.471C174.63,-5.471 170.529,-1.37 170.529,3.5C170.529,6.299 171.883,8.844 173.961,10.5C171.883,12.156 170.529,14.701 170.529,17.5C170.529,20.299 171.883,22.844 173.961,24.5C171.883,26.156 170.529,28.701 170.529,31.5C170.529,34.299 171.883,36.844 173.961,38.5C171.883,40.156 170.529,42.701 170.529,45.5C170.529,50.37 174.63,54.471 179.5,54.471C184.37,54.471 188.471,50.37 188.471,45.5C188.471,42.701 187.117,40.156 185.039,38.5ZM176,3.5C176,1.6 177.6,0 179.5,0C181.4,0 183,1.6 183,3.5C183,5.4 181.4,7 179.5,7C177.6,7 176,5.4 176,3.5ZM176,17.5C176,15.6 177.6,14 179.5,14C181.4,14 183,15.6 183,17.5C183,19.4 181.4,21 179.5,21C177.6,21 176,19.4 176,17.5ZM176,31.5C176,29.6 177.6,28 179.5,28C181.4,28 183,29.6 183,31.5C183,33.4 181.4,35 179.5,35C177.6,35 176,33.4 176,31.5ZM176,45.5C176,43.6 177.6,42 179.5,42C181.4,42 183,43.6 183,45.5C183,47.4 181.4,49 179.5,49C177.6,49 176,47.4 176,45.5Z" style="fill:#1f70b8;"/>
                </g>
                <g transform="matrix(4.39604e-17,0.717928,-0.717928,4.39604e-17,378.985,-154.734)">
                    <path d="M674.67,353.224L637,323.798C634.723,322.019 634.319,318.727 636.097,316.45C637.876,314.173 641.168,313.769 643.445,315.547L686.341,349.057C687.672,350.097 688.363,351.655 688.352,353.224C688.363,354.794 687.672,356.352 686.341,357.392L643.445,390.901C641.168,392.68 637.876,392.275 636.097,389.998C634.319,387.722 634.723,384.429 637,382.651L674.67,353.224Z" style="fill:#74c2fb;"/>
                    <path d="M656.568,353.224L630.14,373.869C623.017,379.434 621.751,389.735 627.316,396.858C632.88,403.981 643.181,405.247 650.305,399.682C650.305,399.682 693.201,366.173 693.201,366.173C697.341,362.939 699.507,358.106 699.495,353.224C699.507,348.343 697.341,343.51 693.201,340.275C693.201,340.275 650.305,306.766 650.305,306.766C643.181,301.201 632.88,302.467 627.316,309.59C621.751,316.714 623.017,327.015 630.14,332.579L656.568,353.224ZM674.67,353.224L637,323.798C634.723,322.019 634.319,318.727 636.097,316.45C637.876,314.173 641.168,313.769 643.445,315.547L686.341,349.057C687.672,350.097 688.363,351.655 688.352,353.224C688.363,354.794 687.672,356.352 686.341,357.392L643.445,390.901C641.168,392.68 637.876,392.275 636.097,389.998C634.319,387.722 634.723,384.429 637,382.651L674.67,353.224Z" style="fill:#1f70b8;"/>
                </g>
            </g>
            <g transform="matrix(1,0,0,1,123.967,14.9321)">
                <g transform="matrix(-1.46218,1.79065e-16,-1.79065e-16,-1.46218,387.856,310.292)">
                    <path d="M176,115.5C176,113.6 177.6,112 179.5,112C181.4,112 183,113.6 183,115.5C183,117.4 181.4,119 179.5,119C177.6,119 176,117.4 176,115.5ZM176,101.5C176,99.6 177.6,98 179.5,98C181.4,98 183,99.6 183,101.5C183,103.4 181.4,105 179.5,105C177.6,105 176,103.4 176,101.5ZM176,87.5C176,85.6 177.6,84 179.5,84C181.4,84 183,85.6 183,87.5C183,89.4 181.4,91 179.5,91C177.6,91 176,89.4 176,87.5ZM176,73.5C176,71.6 177.6,70 179.5,70C181.4,70 183,71.6 183,73.5C183,75.4 181.4,77 179.5,77C177.6,77 176,75.4 176,73.5ZM176,59.5C176,57.6 177.6,56 179.5,56C181.4,56 183,57.6 183,59.5C183,61.4 181.4,63 179.5,63C177.6,63 176,61.4 176,59.5ZM176,45.5C176,43.6 177.6,42 179.5,42C181.4,42 183,43.6 183,45.5C183,47.4 181.4,49 179.5,49C177.6,49 176,47.4 176,45.5ZM176,31.5C176,29.6 177.6,28 179.5,28C181.4,28 183,29.6 183,31.5C183,33.4 181.4,35 179.5,35C177.6,35 176,33.4 176,31.5ZM176,17.5C176,15.6 177.6,14 179.5,14C181.4,14 183,15.6 183,17.5C183,19.4 181.4,21 179.5,21C177.6,21 176,19.4 176,17.5ZM176,3.5C176,1.6 177.6,0 179.5,0C181.4,0 183,1.6 183,3.5C183,5.4 181.4,7 179.5,7C177.6,7 176,5.4 176,3.5Z" style="fill:#a4fbfb;fill-rule:nonzero;"/>
                    <path d="M185.039,108.5C187.117,106.844 188.471,104.299 188.471,101.5C188.471,98.701 187.117,96.156 185.039,94.5C187.117,92.844 188.471,90.299 188.471,87.5C188.471,84.701 187.117,82.156 185.039,80.5C187.117,78.844 188.471,76.299 188.471,73.5C188.471,70.701 187.117,68.156 185.039,66.5C187.117,64.844 188.471,62.299 188.471,59.5C188.471,56.701 187.117,54.156 185.039,52.5C187.117,50.844 188.471,48.299 188.471,45.5C188.471,42.701 187.117,40.156 185.039,38.5C187.117,36.844 188.471,34.299 188.471,31.5C188.471,28.701 187.117,26.156 185.039,24.5C187.117,22.844 188.471,20.299 188.471,17.5C188.471,14.701 187.117,12.156 185.039,10.5C187.117,8.844 188.471,6.299 188.471,3.5C188.471,-1.37 184.37,-5.471 179.5,-5.471C174.63,-5.471 170.529,-1.37 170.529,3.5C170.529,6.299 171.883,8.844 173.961,10.5C171.883,12.156 170.529,14.701 170.529,17.5C170.529,20.299 171.883,22.844 173.961,24.5C171.883,26.156 170.529,28.701 170.529,31.5C170.529,34.299 171.883,36.844 173.961,38.5C171.883,40.156 170.529,42.701 170.529,45.5C170.529,48.299 171.883,50.844 173.961,52.5C171.883,54.156 170.529,56.701 170.529,59.5C170.529,62.299 171.883,64.844 173.961,66.5C171.883,68.156 170.529,70.701 170.529,73.5C170.529,76.299 171.883,78.844 173.961,80.5C171.883,82.156 170.529,84.701 170.529,87.5C170.529,90.299 171.883,92.844 173.961,94.5C171.883,96.156 170.529,98.701 170.529,101.5C170.529,104.299 171.883,106.844 173.961,108.5C171.883,110.156 170.529,112.701 170.529,115.5C170.529,120.37 174.63,124.471 179.5,124.471C184.37,124.471 188.471,120.37 188.471,115.5C188.471,112.701 187.117,110.156 185.039,108.5ZM176,3.5C176,1.6 177.6,0 179.5,0C181.4,0 183,1.6 183,3.5C183,5.4 181.4,7 179.5,7C177.6,7 176,5.4 176,3.5ZM176,17.5C176,15.6 177.6,14 179.5,14C181.4,14 183,15.6 183,17.5C183,19.4 181.4,21 179.5,21C177.6,21 176,19.4 176,17.5ZM176,31.5C176,29.6 177.6,28 179.5,28C181.4,28 183,29.6 183,31.5C183,33.4 181.4,35 179.5,35C177.6,35 176,33.4 176,31.5ZM176,45.5C176,43.6 177.6,42 179.5,42C181.4,42 183,43.6 183,45.5C183,47.4 181.4,49 179.5,49C177.6,49 176,47.4 176,45.5ZM176,59.5C176,57.6 177.6,56 179.5,56C181.4,56 183,57.6 183,59.5C183,61.4 181.4,63 179.5,63C177.6,63 176,61.4 176,59.5ZM176,73.5C176,71.6 177.6,70 179.5,70C181.4,70 183,71.6 183,73.5C183,75.4 181.4,77 179.5,77C177.6,77 176,75.4 176,73.5ZM176,87.5C176,85.6 177.6,84 179.5,84C181.4,84 183,85.6 183,87.5C183,89.4 181.4,91 179.5,91C177.6,91 176,89.4 176,87.5ZM176,101.5C176,99.6 177.6,98 179.5,98C181.4,98 183,99.6 183,101.5C183,103.4 181.4,105 179.5,105C177.6,105 176,103.4 176,101.5ZM176,115.5C176,113.6 177.6,112 179.5,112C181.4,112 183,113.6 183,115.5C183,117.4 181.4,119 179.5,119C177.6,119 176,117.4 176,115.5Z" style="fill:#1f70b8;"/>
                </g>
                <g transform="matrix(4.39604e-17,0.717928,-0.717928,4.39604e-17,378.985,-154.734)">
                    <path d="M674.67,353.224L637,323.798C634.723,322.019 634.319,318.727 636.097,316.45C637.876,314.173 641.168,313.769 643.445,315.547L686.341,349.057C687.672,350.097 688.363,351.655 688.352,353.224C688.363,354.794 687.672,356.352 686.341,357.392L643.445,390.901C641.168,392.68 637.876,392.275 636.097,389.998C634.319,387.722 634.723,384.429 637,382.651L674.67,353.224Z" style="fill:#a4fbfb;"/>
                    <path d="M656.568,353.224L630.14,373.869C623.017,379.434 621.751,389.735 627.316,396.858C632.88,403.981 643.181,405.247 650.305,399.682C650.305,399.682 693.201,366.173 693.201,366.173C697.341,362.939 699.507,358.106 699.495,353.224C699.507,348.343 697.341,343.51 693.201,340.275C693.201,340.275 650.305,306.766 650.305,306.766C643.181,301.201 632.88,302.467 627.316,309.59C621.751,316.714 623.017,327.015 630.14,332.579L656.568,353.224ZM674.67,353.224L637,323.798C634.723,322.019 634.319,318.727 636.097,316.45C637.876,314.173 641.168,313.769 643.445,315.547L686.341,349.057C687.672,350.097 688.363,351.655 688.352,353.224C688.363,354.794 687.672,356.352 686.341,357.392L643.445,390.901C641.168,392.68 637.876,392.275 636.097,389.998C634.319,387.722 634.723,384.429 637,382.651L674.67,353.224Z" style="fill:#1f70b8;"/>
                </g>
            </g>
        </g>
    </g>
</svg>
