<?xml version="1.0" standalone="no"?>
<!DOCTYPE svg PUBLIC "-//W3C//DTD SVG 20010904//EN"
 "http://www.w3.org/TR/2001/REC-SVG-20010904/DTD/svg10.dtd">
<svg version="1.0" xmlns="http://www.w3.org/2000/svg"
 width="700.000000pt" height="700.000000pt" viewBox="0 0 700.000000 700.000000"
 preserveAspectRatio="xMidYMid meet">
<metadata>
Created by potrace 1.14, written by Peter Selinger 2001-2017
</metadata>
<g transform="translate(0.000000,700.000000) scale(0.100000,-0.100000)"
fill="#000000" stroke="none">
<path d="M0 3500 l0 -3500 3500 0 3500 0 0 3500 0 3500 -3500 0 -3500 0 0
-3500z m2632 1462 c290 -61 471 -154 654 -336 112 -112 160 -178 227 -312 117
-234 167 -470 167 -792 0 -184 -10 -296 -41 -447 -115 -571 -480 -943 -1022
-1042 -79 -14 -193 -17 -829 -20 l-738 -4 0 1491 0 1491 738 -3 c718 -4 740
-4 844 -26z m1868 -1187 l0 -1215 725 0 725 0 0 -275 0 -275 -1050 0 -1050 0
0 1490 0 1490 325 0 325 0 0 -1215z"/>
<path d="M1700 3499 l0 -941 358 4 c329 4 363 6 437 26 134 37 200 75 295 171
71 71 94 103 132 181 82 167 116 358 104 595 -16 338 -84 534 -240 691 -64 64
-99 89 -166 121 -156 76 -278 93 -657 93 l-263 0 0 -941z"/>
</g>
</svg>
