<svg width="16" height="16" viewBox="0 0 16 16" fill="none" xmlns="http://www.w3.org/2000/svg">
<g clip-path="url(#clip0_4086_2138)">
<path d="M7.99984 9.99984C9.10441 9.99984 9.99984 9.10441 9.99984 7.99984C9.99984 6.89527 9.10441 5.99984 7.99984 5.99984C6.89527 5.99984 5.99984 6.89527 5.99984 7.99984C5.99984 9.10441 6.89527 9.99984 7.99984 9.99984Z" stroke="#1E1E1E" stroke-width="1.6" stroke-linecap="round" stroke-linejoin="round"/>
<path d="M12.9332 9.99984C12.8444 10.2009 12.818 10.424 12.8572 10.6402C12.8964 10.8565 12.9995 11.056 13.1532 11.2132L13.1932 11.2532C13.3171 11.377 13.4155 11.5241 13.4826 11.6859C13.5497 11.8478 13.5842 12.0213 13.5842 12.1965C13.5842 12.3717 13.5497 12.5452 13.4826 12.7071C13.4155 12.869 13.3171 13.016 13.1932 13.1398C13.0693 13.2638 12.9223 13.3621 12.7604 13.4292C12.5986 13.4963 12.4251 13.5309 12.2498 13.5309C12.0746 13.5309 11.9011 13.4963 11.7392 13.4292C11.5774 13.3621 11.4303 13.2638 11.3065 13.1398L11.2665 13.0998C11.1094 12.9461 10.9098 12.843 10.6936 12.8038C10.4773 12.7646 10.2542 12.7911 10.0532 12.8798C9.85599 12.9643 9.68783 13.1047 9.56937 13.2835C9.45092 13.4624 9.38736 13.672 9.3865 13.8865V13.9998C9.3865 14.3535 9.24603 14.6926 8.99598 14.9426C8.74593 15.1927 8.40679 15.3332 8.05317 15.3332C7.69955 15.3332 7.36041 15.1927 7.11036 14.9426C6.86031 14.6926 6.71984 14.3535 6.71984 13.9998V13.9398C6.71467 13.7192 6.64325 13.5052 6.51484 13.3256C6.38644 13.1461 6.20699 13.0094 5.99984 12.9332C5.79876 12.8444 5.57571 12.818 5.35944 12.8572C5.14318 12.8964 4.94362 12.9995 4.7865 13.1532L4.7465 13.1932C4.62267 13.3171 4.47562 13.4155 4.31376 13.4826C4.15189 13.5497 3.97839 13.5842 3.80317 13.5842C3.62795 13.5842 3.45445 13.5497 3.29258 13.4826C3.13072 13.4155 2.98367 13.3171 2.85984 13.1932C2.73587 13.0693 2.63752 12.9223 2.57042 12.7604C2.50333 12.5986 2.46879 12.4251 2.46879 12.2498C2.46879 12.0746 2.50333 11.9011 2.57042 11.7392C2.63752 11.5774 2.73587 11.4303 2.85984 11.3065L2.89984 11.2665C3.05353 11.1094 3.15663 10.9098 3.19584 10.6936C3.23505 10.4773 3.20858 10.2542 3.11984 10.0532C3.03533 9.85599 2.89501 9.68783 2.71615 9.56937C2.53729 9.45092 2.32769 9.38736 2.11317 9.3865H1.99984C1.64622 9.3865 1.30708 9.24603 1.05703 8.99598C0.80698 8.74593 0.666504 8.40679 0.666504 8.05317C0.666504 7.69955 0.80698 7.36041 1.05703 7.11036C1.30708 6.86031 1.64622 6.71984 1.99984 6.71984H2.05984C2.2805 6.71467 2.49451 6.64325 2.67404 6.51484C2.85357 6.38644 2.99031 6.20699 3.0665 5.99984C3.15525 5.79876 3.18172 5.57571 3.14251 5.35944C3.10329 5.14318 3.00019 4.94362 2.8465 4.7865L2.8065 4.7465C2.68254 4.62267 2.58419 4.47562 2.51709 4.31376C2.44999 4.15189 2.41545 3.97839 2.41545 3.80317C2.41545 3.62795 2.44999 3.45445 2.51709 3.29258C2.58419 3.13072 2.68254 2.98367 2.8065 2.85984C2.93033 2.73587 3.07739 2.63752 3.23925 2.57042C3.40111 2.50333 3.57462 2.46879 3.74984 2.46879C3.92506 2.46879 4.09856 2.50333 4.26042 2.57042C4.42229 2.63752 4.56934 2.73587 4.69317 2.85984L4.73317 2.89984C4.89029 3.05353 5.08985 3.15663 5.30611 3.19584C5.52237 3.23505 5.74543 3.20858 5.9465 3.11984H5.99984C6.19702 3.03533 6.36518 2.89501 6.48363 2.71615C6.60208 2.53729 6.66565 2.32769 6.6665 2.11317V1.99984C6.6665 1.64622 6.80698 1.30708 7.05703 1.05703C7.30708 0.80698 7.64621 0.666504 7.99984 0.666504C8.35346 0.666504 8.6926 0.80698 8.94265 1.05703C9.19269 1.30708 9.33317 1.64622 9.33317 1.99984V2.05984C9.33403 2.27436 9.39759 2.48395 9.51604 2.66281C9.63449 2.84167 9.80266 2.98199 9.99984 3.0665C10.2009 3.15525 10.424 3.18172 10.6402 3.14251C10.8565 3.10329 11.056 3.00019 11.2132 2.8465L11.2532 2.8065C11.377 2.68254 11.5241 2.58419 11.6859 2.51709C11.8478 2.44999 12.0213 2.41545 12.1965 2.41545C12.3717 2.41545 12.5452 2.44999 12.7071 2.51709C12.869 2.58419 13.016 2.68254 13.1398 2.8065C13.2638 2.93033 13.3621 3.07739 13.4292 3.23925C13.4963 3.40111 13.5309 3.57462 13.5309 3.74984C13.5309 3.92506 13.4963 4.09856 13.4292 4.26042C13.3621 4.42229 13.2638 4.56934 13.1398 4.69317L13.0998 4.73317C12.9461 4.89029 12.843 5.08985 12.8038 5.30611C12.7646 5.52237 12.7911 5.74543 12.8798 5.9465V5.99984C12.9643 6.19702 13.1047 6.36518 13.2835 6.48363C13.4624 6.60208 13.672 6.66565 13.8865 6.6665H13.9998C14.3535 6.6665 14.6926 6.80698 14.9426 7.05703C15.1927 7.30708 15.3332 7.64621 15.3332 7.99984C15.3332 8.35346 15.1927 8.6926 14.9426 8.94265C14.6926 9.19269 14.3535 9.33317 13.9998 9.33317H13.9398C13.7253 9.33403 13.5157 9.39759 13.3369 9.51604C13.158 9.63449 13.0177 9.80266 12.9332 9.99984Z" stroke="#1E1E1E" stroke-width="1.6" stroke-linecap="round" stroke-linejoin="round"/>
</g>
<defs>
<clipPath id="clip0_4086_2138">
<rect width="16" height="16" fill="white"/>
</clipPath>
</defs>
</svg>
